<?xml version="1.0" encoding="iso-8859-1"?>
<!-- Generator: Adobe Illustrator 19.0.0, SVG Export Plug-In . SVG Version: 6.00 Build 0)  -->
<svg version="1.1" id="Capa_1" xmlns="http://www.w3.org/2000/svg" xmlns:xlink="http://www.w3.org/1999/xlink" x="0px" y="0px"
	 viewBox="0 0 511.999 511.999" style="enable-background:new 0 0 511.999 511.999;" xml:space="preserve">
<circle style="fill:#FFE17A;" cx="255.999" cy="296.078" r="176.344"/>
<path style="fill:#525266;" d="M488.453,239.969c0-128.381-104.073-232.454-232.454-232.454S23.545,111.588,23.545,239.969
	c0,24.039,3.649,47.225,10.424,69.035c10.508,33.824,27.866,60.742,45.949,81.497l-0.724,0.367
	c17.444,20.419,38.365,37.775,61.841,51.164c0.04,0.024,0.082,0.051,0.121,0.075c-0.003-0.004-0.005-0.008-0.008-0.012
	c12.259,6.983,25.218,12.876,38.741,17.563l28.017,44.828h96.188l28.019-44.83c13.522-4.687,26.481-10.582,38.741-17.564
	c-0.004,0.005-0.007,0.011-0.011,0.016c0.076-0.047,0.158-0.098,0.236-0.146c19.518-11.146,37.274-25.026,52.724-41.138
	l-0.646-0.604c21.133-21.828,42.644-51.845,54.874-91.215C484.804,287.194,488.453,264.008,488.453,239.969z M207.906,432.344
	c0-26.562,21.532-48.094,48.094-48.094s48.094,21.532,48.094,48.094c0,1.025-0.043,2.041-0.106,3.05
	c-15.484,3.252-31.536,4.966-47.988,4.966s-32.503-1.713-47.988-4.966C207.949,434.384,207.906,433.369,207.906,432.344z
	 M416.313,312.11c-2.758,31.653-10.601,58.822-19.519,80.749c-18.458,14.074-39.084,25.448-61.291,33.534
	c0.415-3.304,0.653-6.663,0.653-10.081c0-44.269-35.887-80.157-80.157-80.157s-80.157,35.887-80.157,80.157
	c0,3.417,0.238,6.775,0.653,10.079c-22.206-8.089-42.835-19.463-61.293-33.54c-8.917-21.926-16.759-49.093-19.517-80.743
	c-4.705-53.993,7.489-96.882,16.031-120.235h288.564C408.824,215.227,421.018,258.116,416.313,312.11z"/>
<path style="fill:#47475D;" d="M288.062,480.438c-128.381,0-232.454-104.073-232.454-232.454S159.681,15.53,288.062,15.53
	c13.754,0,27.226,1.203,40.325,3.494c-22.784-7.46-47.111-11.509-72.387-11.509c-128.381,0-232.454,104.073-232.454,232.454
	c0,24.039,3.649,47.225,10.424,69.035c10.508,33.824,27.866,60.742,45.949,81.497l-0.724,0.367
	c17.444,20.419,38.365,37.775,61.841,51.164c0.04,0.024,0.082,0.051,0.121,0.075c-0.003-0.004-0.005-0.008-0.008-0.012
	c12.259,6.983,25.218,12.876,38.741,17.563l28.017,44.828h96.188l16.448-26.316C309.926,479.653,299.087,480.438,288.062,480.438z"
	/>
<g>
	<path style="fill:#9D5CAD;" d="M368.219,336.157h-32.063c-35.415,0-64.125-28.71-64.125-64.125l0,0
		c0-13.281,10.766-24.047,24.047-24.047h72.141c13.281,0,24.047,10.766,24.047,24.047v40.078
		C392.266,325.391,381.5,336.157,368.219,336.157z"/>
	<path style="fill:#9D5CAD;" d="M296.078,247.984c-13.281,0-24.047,10.766-24.047,24.047c0,19.067,8.33,36.182,21.541,47.928
		l71.975-71.975L296.078,247.984L296.078,247.984z"/>
	<path style="fill:#9D5CAD;" d="M390.724,263.554l-70.586,70.586c5.12,1.317,10.487,2.017,16.018,2.017h32.063
		c13.281,0,24.047-10.766,24.047-24.047v-40.078C392.266,269.046,391.718,266.191,390.724,263.554z"/>
	<path style="fill:#9D5CAD;" d="M143.78,336.157h32.063c35.415,0,64.125-28.71,64.125-64.125l0,0
		c0-13.281-10.766-24.047-24.047-24.047H143.78c-13.281,0-24.047,10.766-24.047,24.047v40.078
		C119.733,325.391,130.499,336.157,143.78,336.157z"/>
	<path style="fill:#9D5CAD;" d="M143.78,247.984c-13.281,0-24.047,10.766-24.047,24.047v40.078c0,3.707,0.841,7.217,2.339,10.353
		l74.478-74.478H143.78z"/>
	<path style="fill:#9D5CAD;" d="M229.253,252.019l-84.137,84.137h30.727c35.415,0,64.125-28.71,64.125-64.125
		C239.968,263.683,235.712,256.331,229.253,252.019z"/>
</g>
<path d="M322.129,184.36H111.718c-3.154,0-5.974,1.971-7.057,4.933c-14.382,39.312-20.073,82.007-16.46,123.47
	c2.476,28.41,9.219,56.31,20.042,82.922c0.506,1.243,1.336,2.329,2.404,3.144c19.281,14.705,40.57,26.354,63.278,34.625
	c5.188,1.896,10.715-2.526,10.028-7.997c-0.4-3.186-0.594-6.176-0.594-9.142c0-40.055,32.587-72.642,72.642-72.642
	s72.642,32.587,72.642,72.642c0,2.964-0.194,5.955-0.595,9.144c-0.687,5.466,4.833,9.894,10.028,7.997
	c22.707-8.271,43.996-19.919,63.276-34.621c1.067-0.815,1.899-1.9,2.404-3.144c10.825-26.613,17.568-54.513,20.045-82.928
	c3.612-41.464-2.079-84.158-16.46-123.47c-1.084-2.962-3.904-4.933-7.058-4.933h-48.094c-4.151,0-7.515,3.364-7.515,7.515
	s3.364,7.515,7.515,7.515h42.787c12.338,35.881,17.125,74.509,13.852,112.068c-2.286,26.238-8.416,52.02-18.226,76.662
	c-14.548,10.887-30.288,19.935-46.938,26.99c-0.644-47.791-39.721-86.467-87.662-86.467c-47.938,0-87.013,38.679-87.663,86.464
	c-16.651-7.055-32.391-16.103-46.94-26.992c-9.808-24.642-15.938-50.421-18.224-76.657c-3.273-37.557,1.514-76.186,13.852-112.068
	h205.104c4.151,0,7.515-3.364,7.515-7.515S326.28,184.36,322.129,184.36z"/>
<path d="M255.999,376.736c-30.663,0-55.609,24.946-55.609,55.609c0,1.082,0.039,2.199,0.121,3.519
	c0.21,3.373,2.648,6.191,5.956,6.885c16.194,3.401,32.858,5.126,49.532,5.126c16.672,0,33.336-1.724,49.532-5.125
	c3.307-0.693,5.743-3.51,5.956-6.881c0.081-1.299,0.121-2.451,0.121-3.524C311.608,401.682,286.662,376.736,255.999,376.736z
	 M215.54,429.211c1.604-20.917,19.138-37.446,40.459-37.446s38.854,16.53,40.46,37.447
	C269.881,434.036,242.113,434.037,215.54,429.211z"/>
<path d="M425.683,70.285C380.358,24.961,320.098,0,255.999,0S131.641,24.961,86.316,70.285S16.031,175.87,16.031,239.969
	c0,24.296,3.621,48.273,10.763,71.264c1.231,3.963,5.442,6.179,9.406,4.948c3.964-1.231,6.178-5.443,4.948-9.405
	c-6.694-21.546-10.088-44.023-10.088-66.806c0-124.032,100.907-224.939,224.939-224.939s224.939,100.907,224.939,224.939
	c0,22.784-3.394,45.26-10.086,66.806c-10.129,32.608-27.993,62.289-53.097,88.217c-0.861,0.89-1.481,1.969-1.819,3.136
	c-14.424,14.586-30.755,27.126-48.585,37.307c-0.05,0.028-0.1,0.057-0.148,0.087c-0.023,0.013-0.046,0.025-0.069,0.039
	c-11.908,6.782-24.52,12.5-37.483,16.994c-1.621,0.562-3.001,1.661-3.911,3.117l-25.813,41.298h-87.858l-25.809-41.295
	c-0.91-1.456-2.289-2.556-3.912-3.117c-12.964-4.494-25.576-10.211-37.482-16.992c-0.031-0.019-0.063-0.036-0.094-0.053
	c-0.005-0.003-0.01-0.006-0.016-0.009c-21.696-12.374-41.047-28.136-57.562-46.881c-0.289-1.117-0.834-2.167-1.61-3.06
	c-13.637-15.651-24.892-32.708-33.453-50.697c-1.783-3.746-6.268-5.339-10.015-3.556c-3.747,1.783-5.339,6.268-3.556,10.016
	c8.652,18.178,19.863,35.448,33.347,51.378c0.28,1.108,0.812,2.152,1.573,3.044c18.106,21.193,39.54,38.937,63.708,52.739
	c0.01,0.007,0.018,0.012,0.021,0.013c0.165,0.102,0.333,0.196,0.503,0.285c11.849,6.727,24.35,12.467,37.197,17.083l26.624,42.598
	c1.374,2.197,3.781,3.532,6.372,3.532h96.188c2.591,0,4.999-1.335,6.372-3.532l26.625-42.601
	c12.823-4.608,25.301-10.336,37.135-17.049c0.175-0.089,0.349-0.185,0.519-0.289l0.176-0.108
	c20.052-11.464,38.322-25.728,54.305-42.397c0.866-0.902,1.484-1.997,1.815-3.18c25.455-27.019,43.67-57.822,54.166-91.611
	c7.14-22.99,10.761-46.967,10.761-71.263C495.968,175.87,471.007,115.61,425.683,70.285z"/>
<path d="M143.78,240.47c-17.403,0-31.562,14.159-31.562,31.562v40.078c0,17.403,14.159,31.562,31.562,31.562h32.063
	c34.169,0,62.809-24.052,69.925-56.11h20.463c7.116,32.058,35.757,56.11,69.925,56.11h32.063c17.403,0,31.562-14.159,31.562-31.562
	v-40.078c0-17.403-14.159-31.562-31.562-31.562H143.78z M175.843,328.642H143.78c-9.116,0-16.532-7.417-16.532-16.532v-40.078
	c0-9.116,7.416-16.532,16.532-16.532h72.141c9.116,0,16.532,7.417,16.532,16.532C232.454,303.246,207.058,328.642,175.843,328.642z
	 M247.47,272.532c0.001-0.167,0.013-0.333,0.013-0.501c0-6.058-1.719-11.721-4.69-16.532h26.415
	c-2.971,4.811-4.69,10.474-4.69,16.532c0,0.168,0.011,0.334,0.013,0.501H247.47z M384.751,272.031v40.078
	c0,9.116-7.416,16.532-16.532,16.532h-32.063c-31.215,0-56.611-25.396-56.611-56.611c0-9.116,7.417-16.532,16.532-16.532h72.141
	C377.334,255.499,384.751,262.916,384.751,272.031z"/>
<g>
</g>
<g>
</g>
<g>
</g>
<g>
</g>
<g>
</g>
<g>
</g>
<g>
</g>
<g>
</g>
<g>
</g>
<g>
</g>
<g>
</g>
<g>
</g>
<g>
</g>
<g>
</g>
<g>
</g>
</svg>
