<?xml version="1.0" encoding="iso-8859-1"?>
<!-- Generator: Adobe Illustrator 19.0.0, SVG Export Plug-In . SVG Version: 6.00 Build 0)  -->
<svg version="1.1" id="Capa_1" xmlns="http://www.w3.org/2000/svg" xmlns:xlink="http://www.w3.org/1999/xlink" x="0px" y="0px"
	 viewBox="0 0 512 512" style="enable-background:new 0 0 512 512;" xml:space="preserve">
<g>
	<path style="fill:#424A4C;" d="M159.8,83.819h-47.069V63.897c0-2.758,2.236-4.994,4.994-4.994h37.082
		c2.758,0,4.994,2.236,4.994,4.994v19.922H159.8z"/>
	<path style="fill:#424A4C;" d="M399.037,83.819h-47.069V63.897c0-2.758,2.236-4.994,4.993-4.994h37.082
		c2.758,0,4.993,2.236,4.993,4.994L399.037,83.819L399.037,83.819z"/>
</g>
<path style="fill:#A1ACAD;" d="M465.395,504.51H46.605c-2.758,0-4.994-2.236-4.994-4.993V88.812c0-2.758,2.236-4.993,4.994-4.993
	h418.79c2.758,0,4.994,2.236,4.994,4.993v410.704C470.389,502.274,468.153,504.51,465.395,504.51z"/>
<path style="fill:#819696;" d="M465.395,504.51h-59.532V83.819h59.532c2.758,0,4.994,2.236,4.994,4.993v410.704
	C470.389,502.274,468.153,504.51,465.395,504.51z"/>
<path style="fill:#DDE5E8;" d="M419.3,468.056H92.701c-2.758,0-4.993-2.236-4.993-4.993V125.266c0-2.758,2.236-4.994,4.993-4.994
	H419.3c2.758,0,4.993,2.236,4.993,4.994v337.796C424.293,465.82,422.058,468.056,419.3,468.056z"/>
<g>
	<circle style="fill:#D8362A;" cx="272.36" cy="177.12" r="12.68"/>
	<circle style="fill:#D8362A;" cx="324.01" cy="177.12" r="12.68"/>
	<circle style="fill:#D8362A;" cx="375.65" cy="177.12" r="12.68"/>
</g>
<circle cx="128" cy="178.92" r="8.271"/>
<circle cx="161.24" cy="178.92" r="8.271"/>
<circle cx="194.48" cy="178.92" r="8.271"/>
<circle cx="227.71" cy="178.92" r="8.271"/>
<path style="fill:#FFD15C;" d="M419.3,468.056H92.701c-2.758,0-4.993-2.236-4.993-4.993v-249.92h336.586v249.92
	C424.293,465.82,422.058,468.056,419.3,468.056z"/>
<path d="M272.364,197.288c-11.122,0-20.17-9.048-20.17-20.17s9.048-20.17,20.17-20.17s20.17,9.048,20.17,20.17
	C292.534,188.24,283.486,197.288,272.364,197.288z M272.364,171.929c-2.862,0-5.19,2.328-5.19,5.19s2.328,5.19,5.19,5.19
	s5.19-2.328,5.19-5.19S275.225,171.929,272.364,171.929z"/>
<path d="M324.008,197.288c-11.122,0-20.17-9.048-20.17-20.17s9.048-20.17,20.17-20.17s20.17,9.048,20.17,20.17
	C344.178,188.24,335.131,197.288,324.008,197.288z M324.008,171.929c-2.862,0-5.19,2.328-5.19,5.19s2.328,5.19,5.19,5.19
	s5.19-2.328,5.19-5.19S326.87,171.929,324.008,171.929z"/>
<path d="M375.653,197.288c-11.122,0-20.17-9.048-20.17-20.17s9.048-20.17,20.17-20.17s20.17,9.048,20.17,20.17
	C395.823,188.24,386.775,197.288,375.653,197.288z M375.653,171.929c-2.862,0-5.19,2.328-5.19,5.19s2.328,5.19,5.19,5.19
	s5.19-2.328,5.19-5.19S378.515,171.929,375.653,171.929z"/>
<path d="M470.388,436.994c4.137,0,7.49-3.353,7.49-7.49V88.812c0-6.884-5.6-12.484-12.484-12.484h-58.868v-12.72
	c0-6.884-5.6-12.484-12.484-12.484h-9.887V37.367C384.157,16.763,367.393,0,346.788,0H164.979
	c-20.605,0-37.368,16.763-37.368,37.367v13.757h-9.887c-6.884,0-12.484,5.6-12.484,12.484v12.72H46.605
	c-6.884,0-12.484,5.6-12.484,12.484v410.704c0,6.884,5.6,12.484,12.484,12.484h418.79c6.884,0,12.484-5.6,12.484-12.484v-22.743
	c0-4.137-3.353-7.49-7.49-7.49s-7.49,3.353-7.49,7.49v20.246H49.102V91.309h413.796v338.195
	C462.898,433.641,466.251,436.994,470.388,436.994z M391.547,76.04h-32.088v-9.934h32.088V76.04z M120.221,66.105h32.088v9.934
	h-32.088C120.221,76.039,120.221,66.105,120.221,66.105z M154.806,51.125h-12.215V37.367c0-12.344,10.043-22.387,22.388-22.387
	h181.809c12.344,0,22.388,10.043,22.388,22.387v13.757h-12.215c-6.884,0-12.484,5.6-12.484,12.484v12.72H167.29v-12.72
	C167.29,56.725,161.69,51.125,154.806,51.125z"/>
<path d="M92.7,112.782c-6.884,0-12.484,5.6-12.484,12.484v337.797c0,6.884,5.6,12.484,12.484,12.484h326.6
	c6.884,0,12.484-5.6,12.484-12.484V125.266c0-6.884-5.6-12.484-12.484-12.484H92.7z M244.797,333.979v-16.935h22.406v16.935H244.797
	z M267.203,348.959v16.934h-22.406v-16.934H267.203z M170.022,317.044h22.407v16.935h-22.407V317.044z M155.042,333.979h-22.406
	v-16.935h22.406V333.979z M207.41,317.044h22.407v16.935H207.41V317.044z M282.184,317.044h22.406v16.935h-22.406V317.044z
	 M319.571,317.044h22.407v16.935h-22.407V317.044z M356.959,317.044h22.406v16.935h-22.406V317.044z M356.959,302.063v-16.935
	h22.406v16.935H356.959z M341.978,302.063h-22.407v-16.935h22.407V302.063z M304.59,302.063h-22.406v-16.935h22.406V302.063z
	 M267.203,302.063h-22.406v-16.935h22.406V302.063z M229.817,302.063H207.41v-16.935h22.407V302.063z M192.429,302.063h-22.407
	v-16.935h22.407V302.063z M155.042,302.063h-22.406v-16.935h22.406V302.063z M117.655,302.063H95.197v-16.935h22.458V302.063z
	 M117.655,317.044v16.935H95.197v-16.935H117.655z M117.655,348.959v16.934H95.197v-16.934H117.655z M132.635,348.959h22.406v16.934
	h-22.406V348.959z M170.022,348.959h22.407v16.934h-22.407V348.959z M207.41,348.959h22.407v16.934H207.41V348.959z
	 M229.817,380.874v16.935H207.41v-16.935H229.817z M244.797,380.874h22.406v16.935h-22.406V380.874z M282.184,380.874h22.406v16.935
	h-22.406V380.874z M282.184,365.893v-16.934h22.406v16.934H282.184z M319.571,348.959h22.407v16.934h-22.407V348.959z
	 M356.959,348.959h22.406v16.934h-22.406V348.959z M394.346,348.959h22.457v16.934h-22.457V348.959z M394.346,333.979v-16.935
	h22.457v16.935H394.346z M394.346,302.063v-16.935h22.457v16.935H394.346z M394.346,270.148v-16.935h22.457v16.935H394.346z
	 M379.365,270.148h-22.406v-16.935h22.406V270.148z M341.978,270.148h-22.407v-16.935h22.407V270.148z M304.59,270.148h-22.406
	v-16.935h22.406V270.148z M267.203,270.148h-22.406v-16.935h22.406V270.148z M229.817,270.148H207.41v-16.935h22.407V270.148z
	 M192.429,270.148h-22.407v-16.935h22.407V270.148z M155.042,270.148h-22.406v-16.935h22.406V270.148z M117.655,270.148H95.197
	v-16.935h22.458V270.148z M95.197,380.874h22.458v16.935H95.197V380.874z M132.635,380.874h22.406v16.935h-22.406V380.874z
	 M170.022,380.874h22.407v16.935h-22.407V380.874z M192.429,412.789v16.935h-22.407v-16.935H192.429z M207.41,412.789h22.407v16.935
	H207.41V412.789z M244.797,412.789h22.406v16.935h-22.406V412.789z M282.184,412.789h22.406v16.935h-22.406V412.789z
	 M319.571,412.789h22.407v16.935h-22.407V412.789z M319.571,397.809v-16.935h22.407v16.935H319.571z M356.959,380.874h22.406v16.935
	h-22.406V380.874z M394.346,380.874h22.457v16.935h-22.457V380.874z M416.803,238.232h-22.457v-17.599h22.457V238.232z
	 M379.365,238.232h-22.406v-17.599h22.406V238.232z M341.978,238.232h-22.407v-17.599h22.407V238.232z M304.59,238.232h-22.406
	v-17.599h22.406V238.232z M267.203,238.232h-22.406v-17.599h22.406V238.232z M229.817,238.232H207.41v-17.599h22.407V238.232z
	 M192.429,238.232h-22.407v-17.599h22.407V238.232z M155.042,238.232h-22.406v-17.599h22.406V238.232z M117.655,238.232H95.197
	v-17.599h22.458V238.232z M95.197,412.789h22.458v16.935H95.197V412.789z M132.635,412.789h22.406v16.935h-22.406V412.789z
	 M155.042,444.705v15.861h-22.406v-15.861H155.042z M170.022,444.705h22.407v15.861h-22.407V444.705z M207.41,444.705h22.407v15.861
	H207.41V444.705z M244.797,444.705h22.406v15.861h-22.406V444.705z M282.184,444.705h22.406v15.861h-22.406V444.705z
	 M319.571,444.705h22.407v15.861h-22.407V444.705z M356.959,444.705h22.406v15.861h-22.406V444.705z M356.959,429.724v-16.935
	h22.406v16.935H356.959z M394.346,412.789h22.457v16.935h-22.457V412.789z M416.803,127.763v77.89H95.197v-77.89H416.803z
	 M95.197,444.705h22.458v15.861H95.197V444.705z M394.346,460.566v-15.861h22.457v15.861H394.346z"/>
<g>
</g>
<g>
</g>
<g>
</g>
<g>
</g>
<g>
</g>
<g>
</g>
<g>
</g>
<g>
</g>
<g>
</g>
<g>
</g>
<g>
</g>
<g>
</g>
<g>
</g>
<g>
</g>
<g>
</g>
</svg>
