<?xml version="1.0" encoding="iso-8859-1"?>
<!-- Generator: Adobe Illustrator 19.0.0, SVG Export Plug-In . SVG Version: 6.00 Build 0)  -->
<svg xmlns="http://www.w3.org/2000/svg" xmlns:xlink="http://www.w3.org/1999/xlink" version="1.1" id="Layer_1" x="0px" y="0px" viewBox="0 0 512.022 512.022" style="enable-background:new 0 0 512.022 512.022;" xml:space="preserve" width="512" height="512">
<g>
	<g>
		<path style="fill:#F2902F;" d="M226.295,229.967c-70.12-39.364-159.932-15.043-199.901,56.156    c-56.668,100.946,21.32,225.798,137.279,218.413C309.972,495.15,352.646,300.897,226.295,229.967z"/>
		<path style="fill:#E57B1C;" d="M106.62,479.263c-71.096-39.911-95.587-129.661-56.156-199.9    c17.292-30.804,44.404-53.561,76.431-65.581C48.507,228.937-1.057,301.881,8.831,376.951    c12.279,93.83,108.457,151.648,197.19,118.497C204.335,495.77,137.358,496.518,106.62,479.263z"/>
		
			<rect x="246.138" y="16.391" transform="matrix(-0.7071 -0.7071 0.7071 -0.7071 296.6875 601.7779)" style="fill:#60433A;" width="53.676" height="446.103"/>
		
			<rect x="269.046" y="25.88" transform="matrix(-0.7071 -0.7071 0.7071 -0.7071 306.1766 624.6854)" style="fill:#6D5248;" width="26.838" height="446.103"/>
		<circle style="fill:#FCC163;" cx="228.823" cy="395.334" r="22.961"/>
		<circle style="fill:#FCC163;" cx="117.084" cy="283.595" r="22.961"/>
		<path style="fill:#F6B138;" d="M235.587,411.57c-8.967-8.967-8.967-23.505,0-32.472c1.446-1.446,3.047-2.633,4.736-3.612    c-8.785-5.096-20.215-3.909-27.736,3.612c-8.967,8.967-8.967,23.505,0,32.472c7.521,7.521,18.951,8.708,27.736,3.612    C238.635,414.203,237.033,413.016,235.587,411.57z"/>
		<path style="fill:#F6B138;" d="M123.849,267.359c1.446-1.446,3.047-2.633,4.736-3.613c-8.785-5.096-20.215-3.909-27.736,3.613    c-8.967,8.967-8.967,23.505,0,32.472c7.521,7.521,18.951,8.708,27.736,3.612C115.34,295.761,113.326,277.882,123.849,267.359z"/>
		<path style="fill:#A9A9AA;" d="M500.399,44.993L467.426,12.02c-5.567-5.567-14.676-5.567-20.242,0l-32.973,32.973    c-5.567,5.567-5.567,14.676,0,20.242l32.973,32.973c5.567,5.567,14.676,5.567,20.242,0l32.973-32.973    C505.966,59.669,505.966,50.56,500.399,44.993z"/>
		<path style="fill:#929293;" d="M483.389,27.984L467.426,12.02c-5.567-5.567-14.676-5.567-20.242,0l-32.973,32.973    c-5.567,5.567-5.567,14.676,0,20.242l16.197,16.197C432.736,78.209,430.251,81.311,483.389,27.984z"/>
		<path style="fill:#6D5248;" d="M116.52,433.854L65.914,484.46c-5.567,5.567-14.676,5.566-20.242,0L27.96,466.747    c-5.567-5.567-5.567-14.676,0-20.242l50.606-50.606L116.52,433.854z"/>
		<path style="fill:#60433A;" d="M97.886,415.22l-19.32-19.32L27.96,446.505c-5.567,5.566-5.567,14.676,0,20.242l9.3,9.3    C38.888,474.042,35.533,477.645,97.886,415.22z"/>
	</g>
	<g>
		<path d="M250.304,416.903c11.876-11.877,11.876-31.202,0-43.08c-11.876-11.874-31.201-11.876-43.079,0v0.001    c-19.205,19.207-5.417,51.986,21.539,51.986C236.565,425.811,244.365,422.841,250.304,416.903z M217.832,384.43L217.832,384.43    c6.026-6.026,15.836-6.028,21.864,0c6.028,6.029,6.028,15.839,0,21.866c-6.026,6.029-15.836,6.03-21.864,0    C211.804,400.269,211.804,390.459,217.832,384.43z"/>
		<path d="M95.486,262.085c-11.876,11.877-11.876,31.202,0,43.079c5.939,5.938,13.738,8.907,21.54,8.907    c7.799,0,15.601-2.97,21.538-8.907c5.754-5.754,8.923-13.403,8.923-21.539c0-8.137-3.169-15.786-8.922-21.54    C126.688,250.21,107.363,250.21,95.486,262.085z M127.957,294.557c-6.028,6.03-15.838,6.029-21.864,0    c-6.028-6.027-6.028-15.837,0-21.864c3.014-3.015,6.973-4.521,10.932-4.521c3.96,0,7.919,1.507,10.934,4.521    c2.92,2.92,4.528,6.803,4.528,10.933C132.487,287.754,130.878,291.637,127.957,294.557z"/>
		<path d="M472.671,103.54l32.973-32.973c8.504-8.505,8.504-22.343,0-30.849c0,0,0,0,0-0.001L472.67,6.745    c-8.504-8.504-22.344-8.504-30.85,0l-32.973,32.974c-5.659,5.66-7.529,13.677-5.657,20.917l-7.555,7.555l-31.589-31.589    c-2.93-2.928-7.678-2.928-10.607,0c-2.929,2.93-2.929,7.678,0,10.607l31.589,31.589L374.55,89.277l-31.589-31.589    c-2.93-2.928-7.678-2.928-10.607,0c-2.929,2.93-2.929,7.678,0,10.607l31.589,31.589l-15.251,15.25    c-2.929,2.93-2.929,7.678,0,10.607c2.93,2.928,7.678,2.928,10.607,0c18.711-18.711,29.143-29.143,52.362-52.362l8.37,8.37    L115.196,386.586l-8.371-8.371c3.757-3.757,225.344-225.342,231.26-231.258c2.929-2.93,2.929-7.678,0-10.607    c-2.929-2.928-7.677-2.928-10.607,0l-91.002,91.001c-21.486-13.519-46.109-21.551-71.615-23.281    c-4.123-0.293-7.71,2.841-7.99,6.975c-0.281,4.133,2.842,7.71,6.975,7.99c21.883,1.485,43.045,8.094,61.732,19.215l-129.36,129.36    l-9.878-9.878c-2.93-2.928-7.678-2.928-10.607,0c-2.929,2.93-2.929,7.678,0,10.607c11.124,11.124,41.536,41.536,53.137,53.137    c14.475,13.548,15.201,17.378,20.485,17.378c1.919,0,3.839-0.732,5.304-2.196c2.929-2.93,2.929-7.678,0-10.607l-9.878-9.878    l129.364-129.364c51.937,87.044-4.308,198.829-104.647,209.717c-4.117,0.446-7.094,4.147-6.646,8.266    c0.451,4.157,4.192,7.094,8.266,6.646c34.78-3.774,67.585-19.503,92.371-44.288c51.14-51.141,59.772-130.614,21.559-191.243    l127.459-127.459c34.426,33.328,33.537,35.996,39.102,35.996c6.633,0,10.032-8.075,5.304-12.803l-33.798-33.8l10.478-10.478    c34.454,33.353,33.538,35.995,39.103,35.995c6.624,0,10.041-8.065,5.304-12.804l-33.799-33.799l7.555-7.555    C459.53,111.209,467.351,108.86,472.671,103.54z M419.455,50.325c33.805-32.791,32.709-34.965,37.791-34.965    c5.078,0,4.037,2.224,37.79,34.964c2.656,2.657,2.656,6.979,0,9.637l-32.972,32.973c-2.651,2.649-6.958,2.655-9.617,0.019    L419.455,59.96C416.799,57.304,416.799,52.982,419.455,50.325z M430.638,92.358l8.371,8.371L270.135,269.603    c-0.005,0.005-0.01,0.008-0.014,0.013L134.174,405.564l-8.371-8.371L430.638,92.358z"/>
		<path d="M140.924,496.688c-20.441-1.97-40.238-8.463-57.772-18.889l33.308-33.308l9.878,9.878    c1.465,1.464,3.384,2.196,5.304,2.196c1.919,0,3.839-0.732,5.304-2.196c2.929-2.93,2.929-7.678,0-10.607l-15.173-15.174    c-0.003-0.003-0.005-0.005-0.007-0.008l-18.978-18.977l-34.159-34.159c-2.929-2.927-7.677-2.929-10.607,0    c-2.929,2.93-2.929,7.678,0,10.607l9.878,9.878l-33.315,33.315c-51.397-86.137,2.945-195.858,100.786-209.238    c4.104-0.562,6.976-4.343,6.414-8.447c-0.561-4.104-4.348-6.974-8.447-6.414c-33.601,4.595-64.063,19.727-88.096,43.758    c-51.141,51.141-59.773,130.615-21.559,191.244c-0.384,0.55-7.456,5.996-7.456,16.51c-0.001,5.838,2.263,11.316,6.371,15.425    l17.712,17.712c8.506,8.504,22.344,8.504,30.85,0l1.095-1.095c20.216,12.713,43.323,20.618,67.231,22.922    c0.245,0.023,0.487,0.035,0.729,0.035c3.818-0.001,7.083-2.903,7.457-6.781C148.067,500.75,145.047,497.085,140.924,496.688z     M50.916,479.185l-17.713-17.712c-2.639-2.639-2.64-6.996,0.001-9.635l45.302-45.303l27.347,27.348    c-5.991,5.991-40.1,40.099-45.302,45.301C57.895,481.843,53.573,481.843,50.916,479.185z"/>
	</g>
</g>















</svg>
