<svg id="Capa_1" enable-background="new 0 0 512 512" height="512" viewBox="0 0 512 512" width="512" xmlns="http://www.w3.org/2000/svg"><g><g><g><path d="m60.021 73.533h391.959v26.651h-391.959z" fill="#b5dbfd"/><g><g><path d="m70.113 148.418h-31.545v-64.885c0-5.523 4.477-10 10-10h21.545z" fill="#f8f3f1"/></g><g><path d="m441.887 148.418h31.545v-64.885c0-5.523-4.477-10-10-10h-21.545z" fill="#f8f3f1"/></g></g></g><path d="m494.5 438.466h-477c-5.523 0-10-4.477-10-10v-276.939c0-5.523 4.477-10 10-10h477c5.523 0 10 4.477 10 10v276.939c0 5.523-4.477 10-10 10z" fill="#e0d3ce"/><path d="m504.5 226.886v-75.359c0-5.523-4.477-10-10-10h-477c-5.523 0-10 4.477-10 10v75.359z" fill="#cdbfbb"/><path d="m504.5 151.527v276.94c0 5.52-4.48 10-10 10h-35c5.52 0 10-4.48 10-10v-276.94c0-5.52-4.48-10-10-10h35c5.52 0 10 4.48 10 10z" fill="#cdbfbb"/><g><g><path d="m81.2 202.657v45.57c0 5.52-4.47 10-10 10h-16.88c-5.53 0-10-4.48-10-10v-45.57z" fill="#8dcafc"/><path d="m44.32 202.657h36.88v24.23h-36.88z" fill="#64b9fc"/></g><g><path d="m467.68 202.657v45.57c0 5.52-4.47 10-10 10h-16.88c-5.53 0-10-4.48-10-10v-45.57z" fill="#8dcafc"/><path d="m430.8 202.657h36.88v24.23h-36.88z" fill="#64b9fc"/></g></g><path d="m504.5 151.527v51.13h-497v-51.13c0-5.52 4.48-10 10-10h477c5.52 0 10 4.48 10 10z" fill="#fb4a59"/><path d="m504.5 151.527v51.13h-35v-51.13c0-5.52-4.48-10-10-10h35c5.52 0 10 4.48 10 10z" fill="#f82f40"/><path d="m340.42 202.657v158.84c0 5.53-4.47 10-10 10h-148.84c-5.53 0-10-4.47-10-10v-158.84z" fill="#f8f3f1"/><path d="m171.58 202.657v24.23h119.54c8.837 0 16 7.163 16 16v118.61c0 5.53-4.47 10-10 10h33.3c5.523 0 10-4.477 10-10v-158.84z" fill="#efe2dd"/><path d="m340.42 324.957v36.54c0 5.53-4.47 10-10 10h-148.84c-5.53 0-10-4.47-10-10v-36.54z" fill="#b5dbfd"/><path d="m340.42 324.957v36.54c0 5.53-4.47 10-10 10h-33.3c5.53 0 10-4.47 10-10v-36.54z" fill="#8dcafc"/><g><path d="m296.19 324.956h-80.38c-2.761 0-5-2.239-5-5v-44.059c0-2.761 2.239-5 5-5h80.381c2.761 0 5 2.239 5 5v44.059c-.001 2.762-2.239 5-5.001 5z" fill="#756f6f"/><path d="m279.175 324.956h-46.35l6-23.835h34.35z" fill="#e0d3ce"/></g><g><g><g><circle cx="87.802" cy="345.847" fill="#756f6f" r="54.802"/><path d="m142.605 345.847c0 30.265-24.539 54.803-54.803 54.803-4.829 0-9.518-.63-13.984-1.805 23.492-6.175 40.809-27.562 40.809-52.998s-17.317-46.823-40.809-52.998c4.466-1.175 9.155-1.805 13.984-1.805 30.265-.001 54.803 24.538 54.803 54.803z" fill="#5b5555"/></g><g><circle cx="87.802" cy="345.847" fill="#f8f3f1" r="17.663"/></g></g><g><g><circle cx="424.197" cy="345.847" fill="#756f6f" r="54.802"/><path d="m479 345.847c0 30.265-24.539 54.803-54.803 54.803-4.829 0-9.518-.63-13.984-1.805 23.492-6.175 40.809-27.562 40.809-52.998s-17.317-46.823-40.809-52.998c4.466-1.175 9.155-1.805 13.984-1.805 30.264-.001 54.803 24.538 54.803 54.803z" fill="#5b5555"/></g><g><circle cx="424.197" cy="345.847" fill="#f8f3f1" r="17.663"/></g></g></g><path d="m60.021 141.527h111.555v61.126h-111.555z" fill="#756f6f"/><path d="m141.276 141.527h30.299v61.126h-30.299z" fill="#5b5555"/></g><g><path d="m494.5 134.027h-13.568v-50.493c0-9.649-7.851-17.5-17.5-17.5h-414.864c-9.649 0-17.5 7.851-17.5 17.5v50.493h-13.568c-9.649 0-17.5 7.851-17.5 17.5v276.939c0 9.649 7.851 17.5 17.5 17.5h477c9.649 0 17.5-7.851 17.5-17.5v-148.08c0-4.142-3.358-7.5-7.5-7.5s-7.5 3.358-7.5 7.5v148.081c0 1.378-1.122 2.5-2.5 2.5h-477c-1.378 0-2.5-1.122-2.5-2.5v-218.315h21.815v38.074c0 9.649 7.851 17.5 17.5 17.5h16.888c9.649 0 17.5-7.851 17.5-17.5v-7.287h49.401c4.142 0 7.5-3.358 7.5-7.5s-3.358-7.5-7.5-7.5h-49.4v-15.787h75.372v151.349c0 9.649 7.851 17.5 17.5 17.5h33.875c4.142 0 7.5-3.358 7.5-7.5s-3.358-7.5-7.5-7.5h-33.875c-1.378 0-2.5-1.122-2.5-2.5v-29.044h153.849v29.044c0 1.378-1.122 2.5-2.5 2.5h-78.685c-4.142 0-7.5 3.358-7.5 7.5s3.358 7.5 7.5 7.5h78.684c9.649 0 17.5-7.851 17.5-17.5v-151.349h75.372v15.787h-49.401c-4.142 0-7.5 3.358-7.5 7.5s3.358 7.5 7.5 7.5h49.401v7.287c0 9.649 7.851 17.5 17.5 17.5h16.888c9.649 0 17.5-7.851 17.5-17.5v-38.074h21.816v33.943c0 4.142 3.358 7.5 7.5 7.5s7.5-3.358 7.5-7.5v-92.569c0-9.649-7.851-17.499-17.5-17.499zm-42.521-52.993h11.452c1.378 0 2.5 1.122 2.5 2.5v50.493h-16.545v-52.993zm-364.774 80.233c4.142 0 7.5-3.358 7.5-7.5v-4.74h13.595v4.74c0 4.142 3.358 7.5 7.5 7.5s7.5-3.358 7.5-7.5v-4.74h13.595v4.74c0 4.142 3.358 7.5 7.5 7.5s7.5-3.358 7.5-7.5v-4.74h12.181v46.125h-44.61l-17.673-22.714c-2.544-3.27-7.256-3.858-10.525-1.314-3.27 2.544-3.857 7.256-1.314 10.525l10.506 13.503h-32.94v-46.125h12.185v4.74c0 4.142 3.358 7.5 7.5 7.5zm-9.592-80.233h356.773v11.651h-356.773zm-31.545 2.5c0-1.378 1.122-2.5 2.5-2.5h11.452 2.593v52.993h-2.593-13.952zm-31.068 67.993c0-1.378 1.122-2.5 2.5-2.5h35.021v46.125h-37.521zm58.704 96.7c0 1.378-1.122 2.5-2.5 2.5h-16.889c-1.378 0-2.5-1.122-2.5-2.5v-38.074h21.888v38.074zm168.743 69.23 2.224-8.835h22.658l2.224 8.835zm42.574 0-4.573-18.167c-.839-3.333-3.836-5.669-7.273-5.669h-34.351c-3.437 0-6.434 2.336-7.273 5.669l-4.573 18.167h-8.669v-39.06h75.381v39.06zm47.903 0h-24.234v-41.56c0-6.893-5.607-12.5-12.5-12.5h-80.38c-6.893 0-12.5 5.607-12.5 12.5v41.56h-24.234v-107.305h153.849v107.305zm127.261-69.23c0 1.378-1.122 2.5-2.5 2.5h-16.888c-1.378 0-2.5-1.122-2.5-2.5v-38.074h21.888zm-281.109-53.075v-15.562h267.527c4.142 0 7.5-3.358 7.5-7.5s-3.358-7.5-7.5-7.5h-267.527v-15.563h87.9c4.142 0 7.5-3.358 7.5-7.5s-3.358-7.5-7.5-7.5h-189.363v-26.342h356.773v26.342h-131.12c-4.142 0-7.5 3.358-7.5 7.5s3.358 7.5 7.5 7.5h191.234c1.378 0 2.5 1.122 2.5 2.5v43.625z"/><path d="m210.81 242.542h90.381c4.142 0 7.5-3.358 7.5-7.5s-3.358-7.5-7.5-7.5h-90.381c-4.142 0-7.5 3.358-7.5 7.5s3.357 7.5 7.5 7.5z"/><path d="m87.802 283.544c-34.354 0-62.302 27.949-62.302 62.303s27.949 62.302 62.302 62.302 62.302-27.949 62.302-62.302c0-34.354-27.948-62.303-62.302-62.303zm0 109.605c-26.083 0-47.302-21.22-47.302-47.302 0-26.083 21.22-47.303 47.302-47.303s47.302 21.22 47.302 47.303-21.219 47.302-47.302 47.302z"/><path d="m87.802 320.684c-13.875 0-25.163 11.289-25.163 25.164s11.288 25.163 25.163 25.163 25.163-11.288 25.163-25.163-11.288-25.164-25.163-25.164zm0 35.326c-5.604 0-10.163-4.559-10.163-10.163s4.559-10.164 10.163-10.164 10.163 4.56 10.163 10.164-4.559 10.163-10.163 10.163z"/><path d="m424.197 283.544c-34.354 0-62.302 27.949-62.302 62.303s27.949 62.302 62.302 62.302 62.302-27.949 62.302-62.302c0-34.354-27.949-62.303-62.302-62.303zm0 109.605c-26.083 0-47.302-21.22-47.302-47.302 0-26.083 21.22-47.303 47.302-47.303s47.302 21.22 47.302 47.303-21.22 47.302-47.302 47.302z"/><path d="m424.197 320.684c-13.875 0-25.163 11.289-25.163 25.164s11.288 25.163 25.163 25.163 25.163-11.288 25.163-25.163-11.288-25.164-25.163-25.164zm0 35.326c-5.604 0-10.163-4.559-10.163-10.163s4.559-10.164 10.163-10.164 10.163 4.56 10.163 10.164-4.559 10.163-10.163 10.163z"/><path d="m245.864 394.322c-4.142 0-7.5 3.358-7.5 7.5s3.358 7.5 7.5 7.5h20.272c4.142 0 7.5-3.358 7.5-7.5s-3.358-7.5-7.5-7.5z"/></g></g></svg>