<?xml version="1.0" encoding="iso-8859-1"?>
<!-- Generator: Adobe Illustrator 19.0.0, SVG Export Plug-In . SVG Version: 6.00 Build 0)  -->
<svg version="1.1" id="Capa_1" xmlns="http://www.w3.org/2000/svg" xmlns:xlink="http://www.w3.org/1999/xlink" x="0px" y="0px"
	 viewBox="0 0 512.001 512.001" style="enable-background:new 0 0 512.001 512.001;" xml:space="preserve">
<path style="fill:#AD8761;" d="M474.522,225.396l-0.061,0.032c-136.832,71.631-300.087,71.631-436.919,0l0,0
	c-18.465-9.665-30.037-28.784-30.037-49.624l0,0c0-37.586,36.287-64.507,72.258-53.606l59.828,18.13h234.152l58.49-17.905
	c35.93-10.999,72.262,15.875,72.262,53.451l0,0C504.495,196.671,492.948,215.749,474.522,225.396z"/>
<path style="fill:#936C4C;" d="M389.768,135.421l-16.024,4.905H139.591l-18.601-5.637l-2.764,21.994
	c-3.003,23.898,15.628,45.016,39.714,45.016h194.786c24.086,0,42.717-21.118,39.714-45.016L389.768,135.421z"/>
<path style="fill:#AD8761;" d="M358.677,48.516c-2.913-23.186-22.629-40.578-45.997-40.578l0,0
	c-12.581,0-24.622,5.113-33.359,14.166l0,0c-13.109,13.584-34.871,13.584-47.979,0l0,0c-8.737-9.053-20.778-14.166-33.359-14.166
	l0,0c-23.368,0-43.083,17.392-45.997,40.578l-11.537,91.811h229.762L358.677,48.516z"/>
<path style="fill:#E8D4B1;" d="M371.168,147.924l-0.955-7.598H140.452l-0.955,7.598c-2.252,17.924,11.721,33.762,29.785,33.762
	h172.101C359.448,181.686,373.421,165.848,371.168,147.924z"/>
<path d="M486.3,124.897c-16.333-12.081-36.841-15.6-56.265-9.652l-53.358,16.334L366.123,47.58
	c-3.377-26.878-26.352-47.148-53.443-47.148c-14.536,0-28.664,6-38.757,16.46c-4.913,5.09-11.515,7.894-18.59,7.894
	c-7.075,0-13.677-2.804-18.59-7.894c-10.095-10.461-24.221-16.46-38.758-16.46c-27.091,0-50.066,20.269-53.443,47.148
	l-10.459,83.235l-52.144-15.801c-19.443-5.892-39.95-2.329-56.266,9.776C9.358,136.894,0,155.487,0,175.803
	c0,23.713,13.051,45.276,34.06,56.274c21.463,11.236,43.569,20.731,66.117,28.497l34.779,77.507
	c16.783,37.399,49.804,64.327,88.514,73.992c-11.967,9.445-19.67,24.064-19.67,40.457v28.733h15.01V452.53
	c0-11.65,5.489-22.034,14.009-28.727v8.213h15.01v-15.232c2.424-0.508,4.933-0.779,7.505-0.779s5.081,0.27,7.505,0.779v15.232h15.01
	v-8.213c8.521,6.692,14.009,17.077,14.009,28.727v41.027h15.01V452.53c0-16.393-7.703-31.012-19.67-40.457
	c38.709-9.665,71.731-36.593,88.514-73.992l34.542-76.98c23.115-7.868,45.771-17.549,67.75-29.056
	c20.971-10.978,33.998-32.502,33.998-56.173C512,155.557,502.634,136.978,486.3,124.897z M159.435,49.451
	c2.437-19.389,19.009-34.009,38.55-34.009c10.486,0,20.675,4.328,27.957,11.873c7.767,8.048,18.205,12.481,29.39,12.481
	c11.185,0,21.623-4.433,29.39-12.481c7.282-7.546,17.472-11.873,27.957-11.873c19.541,0,36.114,14.621,38.55,34.009l10.476,83.37
	H148.959L159.435,49.451z M146.944,148.86l0.129-1.029h216.522l0.129,1.029c0.806,6.407-1.185,12.859-5.456,17.702
	c-4.273,4.842-10.427,7.62-16.884,7.62H169.283c-6.457,0-12.612-2.777-16.884-7.62C148.127,161.719,146.138,155.267,146.944,148.86z
	 M362.015,331.936c-15.693,34.974-47.411,59.615-84.168,66.85v-8.797h-15.01v10.751c-2.489,0.16-4.989,0.256-7.505,0.256
	c-2.516,0-5.016-0.096-7.505-0.256V389.99h-15.01v8.797c-36.757-7.236-68.475-31.877-84.168-66.85l-29.258-65.202
	c44.538,13.263,90.557,19.905,136.59,19.903c45.499-0.003,91.008-6.489,135.088-19.453L362.015,331.936z M470.979,218.779
	c-134.612,70.467-295.344,70.469-429.959,0c-16.044-8.399-26.011-24.867-26.011-42.977c0-15.514,7.147-29.714,19.607-38.958
	s28.122-11.966,42.97-7.466l54.599,16.545l-0.134,1.066c-1.342,10.678,1.973,21.432,9.093,29.502
	c7.121,8.07,17.376,12.699,28.139,12.699h172.1c10.763,0,21.019-4.628,28.139-12.699c7.12-8.07,10.435-18.824,9.093-29.502
	l-0.037-0.294l55.851-17.097c14.825-4.539,30.479-1.853,42.945,7.368s19.616,23.402,19.616,38.907
	C496.99,193.939,487.047,210.368,470.979,218.779z"/>
<rect x="203.803" y="496.273" width="15.01" height="15.296"/>
<g>
	<path style="fill:#FFFFFF;" d="M274.545,117.812h-39.025v-15.01h39.025V117.812z M220.509,117.812H205.5v-15.01h15.01V117.812z
		 M190.49,117.812h-15.01v-15.01h15.01V117.812z"/>
	<path style="fill:#FFFFFF;" d="M255.338,69.816c-0.002,0-0.003,0-0.006,0l0.002-15.01c0.001,0,0.003,0,0.004,0
		c5.838,0,11.567-0.88,17.027-2.617l4.548,14.304C269.981,68.699,262.721,69.816,255.338,69.816z M292.169,59.53l-7.823-12.809
		c4.058-2.479,7.818-5.501,11.178-8.982c4.468-4.631,10.722-7.287,17.157-7.287c11.991,0,22.161,8.972,23.658,20.87l-14.893,1.872
		c-0.554-4.408-4.322-7.732-8.766-7.732c-2.384,0-4.7,0.984-6.356,2.7C302.078,52.562,297.315,56.387,292.169,59.53z"/>
	<path style="fill:#FFFFFF;" d="M189.22,53.195l-14.893-1.872c1.496-11.898,11.667-20.87,23.658-20.87
		c6.435,0,12.688,2.656,17.157,7.286l-10.801,10.423c-1.655-1.715-3.973-2.7-6.357-2.7C193.542,45.462,189.773,48.787,189.22,53.195
		z"/>
	<path style="fill:#FFFFFF;" d="M45.029,175.803H30.02c0-20.714,17.336-33.537,33.4-33.537c3.278,0,6.58,0.497,9.814,1.477
		l-4.353,14.364c-1.822-0.552-3.659-0.833-5.462-0.833C54.575,157.276,45.029,164.36,45.029,175.803z"/>
	<path style="fill:#FFFFFF;" d="M145.32,242.711c-12.777-3.253-25.555-7.111-37.979-11.466l4.966-14.164
		c12.011,4.211,24.364,7.941,36.716,11.086L145.32,242.711z M93.023,225.95c-4.733-1.842-9.486-3.786-14.129-5.779l5.92-13.793
		c4.485,1.924,9.079,3.803,13.655,5.585L93.023,225.95z M64.972,213.915c-4.588-2.157-9.198-4.422-13.703-6.733l6.85-13.356
		c4.353,2.232,8.806,4.421,13.238,6.504L64.972,213.915z"/>
	<path style="fill:#FFFFFF;" d="M313.449,252.909l-1.935-14.885c4.859-0.631,9.771-1.355,14.598-2.148l2.438,14.811
		C323.555,251.508,318.475,252.256,313.449,252.909z M343.566,247.955l-2.938-14.72c4.803-0.959,9.654-2.012,14.419-3.131
		l3.432,14.613C353.552,245.874,348.535,246.964,343.566,247.955z M373.277,240.977l-3.923-14.488
		c20.869-5.651,41.452-12.905,61.175-21.563l6.033,13.744C416.158,227.626,394.865,235.132,373.277,240.977z M450.434,212.296
		l-6.5-13.53c4.415-2.121,8.851-4.347,13.185-6.615l6.962,13.298C459.594,207.797,455.003,210.102,450.434,212.296z"/>
	<path style="fill:#FFFFFF;" d="M481.98,175.872h-15.01c0-11.372-9.487-18.412-18.278-18.412c-1.808,0-3.65,0.283-5.476,0.843
		l-4.396-14.352c3.251-0.996,6.571-1.5,9.87-1.5C464.701,142.45,481.98,155.228,481.98,175.872z"/>
</g>
<g>
</g>
<g>
</g>
<g>
</g>
<g>
</g>
<g>
</g>
<g>
</g>
<g>
</g>
<g>
</g>
<g>
</g>
<g>
</g>
<g>
</g>
<g>
</g>
<g>
</g>
<g>
</g>
<g>
</g>
</svg>
