<svg id="Capa_1" enable-background="new 0 0 512 512" height="512" viewBox="0 0 512 512" width="512" xmlns="http://www.w3.org/2000/svg"><g><g><path d="m291.235 98.925h-71.383v-42.663c0-5.523 4.477-10 10-10h51.383c5.523 0 10 4.477 10 10z" fill="#f9f6f9"/></g><g><path d="m281.302 46.262h-27.174c5.486 0 9.933 4.447 9.933 9.933v42.73h27.174v-42.73c0-5.486-4.447-9.933-9.933-9.933z" fill="#dddaec"/></g><g><circle cx="255.544" cy="295.483" fill="#f9f6f9" r="208.269"/></g><g><path d="m381.39 129.536c26.554 34.96 42.323 78.559 42.323 125.846 0 115.024-93.245 208.269-208.269 208.269-47.288 0-90.886-15.77-125.847-42.323 38.036 50.078 98.21 82.423 165.946 82.423 115.024 0 208.269-93.245 208.269-208.269.001-67.736-32.344-127.909-82.422-165.946z" fill="#dddaec"/></g><g><path d="m372.551 309.857 30.879 12.898c2.854 1.192 2.854 5.235 0 6.427l-30.879 12.898c-6.766 2.826-12.145 8.205-14.971 14.971l-12.898 30.879c-1.192 2.854-5.235 2.854-6.427 0l-12.898-30.879c-2.826-6.766-8.205-12.145-14.971-14.971l-30.879-12.898c-2.854-1.192-2.854-5.235 0-6.427l30.879-12.898c6.766-2.826 12.145-8.205 14.971-14.971l12.898-30.879c1.192-2.854 5.235-2.854 6.427 0l12.898 30.879c2.826 6.766 8.205 12.145 14.971 14.971z" fill="#ffd064"/></g><g><g><path d="m403.43 322.755-24.345-10.169-25.413 10.615c-6.766 2.826-12.145 8.205-14.971 14.971l-10.615 25.413 10.169 24.345c1.192 2.854 5.235 2.854 6.427 0l12.898-30.879c2.826-6.766 8.205-12.145 14.971-14.971l30.879-12.898c2.854-1.191 2.854-5.235 0-6.427z" fill="#e7a561"/></g></g><g><path d="m55.857 105.288 15.704 6.559c1.451.606 1.451 2.663 0 3.269l-15.704 6.559c-3.441 1.437-6.177 4.173-7.614 7.614l-6.559 15.704c-.606 1.451-2.663 1.451-3.269 0l-6.559-15.704c-1.437-3.441-4.173-6.177-7.614-7.614l-15.704-6.559c-1.451-.606-1.451-2.663 0-3.269l15.704-6.559c3.441-1.437 6.177-4.173 7.614-7.614l6.559-15.704c.606-1.451 2.663-1.451 3.269 0l6.559 15.704c1.438 3.441 4.173 6.176 7.614 7.614z" fill="#ffe07d"/></g><g><path d="m486.402 436.885 15.704 6.559c1.451.606 1.451 2.663 0 3.269l-15.704 6.559c-3.441 1.437-6.177 4.173-7.614 7.614l-6.559 15.704c-.606 1.451-2.663 1.451-3.269 0l-6.559-15.704c-1.437-3.441-4.173-6.177-7.614-7.614l-15.704-6.559c-1.451-.606-1.451-2.663 0-3.269l15.704-6.559c3.441-1.437 6.177-4.173 7.614-7.614l6.559-15.704c.606-1.451 2.663-1.451 3.269 0l6.559 15.704c1.438 3.442 4.174 6.177 7.614 7.614z" fill="#ffe07d"/></g><g><g><path d="m71.561 111.847-15.704-6.559c-.665-.278-1.293-.617-1.901-.987l-10.915 4.559c-3.441 1.437-6.177 4.173-7.614 7.614l-4.559 10.915c.37.608.71 1.236.987 1.901l6.559 15.704c.606 1.451 2.663 1.451 3.269 0l6.56-15.704c1.437-3.441 4.173-6.177 7.614-7.614l15.704-6.56c1.452-.606 1.452-2.663 0-3.269z" fill="#ffd064"/></g></g><g><g><path d="m502.107 443.445-15.704-6.559c-.665-.278-1.293-.617-1.901-.987l-10.915 4.559c-3.441 1.437-6.177 4.173-7.614 7.614l-4.559 10.915c.37.608.71 1.236.987 1.901l6.559 15.704c.606 1.451 2.663 1.451 3.269 0l6.559-15.704c1.437-3.441 4.173-6.177 7.614-7.614l15.704-6.56c1.452-.607 1.452-2.663.001-3.269z" fill="#ffd064"/></g></g><g><g><path d="m37.92 382.246-23.453-23.454c-1.621-1.621-1.525-4.29.215-5.782 10.194-8.736 19.971-10.371 26.037-11.385 4.531-.758 5.005-.837 7.068-2.901 2.063-2.063 2.142-2.536 2.899-7.066 1.117-6.682 2.986-17.865 14.27-29.148 11.283-11.283 22.466-13.152 29.148-14.269 4.53-.757 5.003-.836 7.065-2.898 2.064-2.064 2.143-2.538 2.901-7.069 1.117-6.682 2.987-17.865 14.271-29.149 11.283-11.283 22.467-13.153 29.149-14.27 2.589-.433 3.854-.644 4.847-1.131 1.567-.768 3.433-.557 4.668.677l23.454 23.454c1.621 1.621 1.525 4.29-.215 5.782-10.194 8.737-19.971 10.371-26.037 11.385-4.531.758-5.005.837-7.068 2.9-2.064 2.064-2.143 2.538-2.901 7.069-1.117 6.682-2.987 17.866-14.271 29.149-11.283 11.283-22.466 13.152-29.148 14.269-4.53.757-5.003.836-7.065 2.898-2.062 2.063-2.142 2.536-2.899 7.066-1.117 6.682-2.986 17.865-14.27 29.148-11.283 11.284-22.467 13.154-29.149 14.271-2.59.433-3.854.644-4.847 1.131-1.568.768-3.434.557-4.669-.677z" fill="#cbafea"/></g></g><g><path d="m180.46 257.853-23.454-23.453c-1.234-1.234-3.1-1.445-4.668-.677-.993.487-2.257.698-4.847 1.131-2.818.471-6.442 1.085-10.53 2.473l18.685 18.685c1.621 1.621 1.525 4.29-.215 5.782-10.194 8.737-19.971 10.371-26.037 11.385-4.531.758-5.005.837-7.068 2.9-2.064 2.064-2.143 2.538-2.901 7.069-1.117 6.682-2.987 17.866-14.271 29.149-11.283 11.283-22.466 13.152-29.148 14.269-4.53.757-5.003.836-7.065 2.898-2.062 2.063-2.142 2.536-2.899 7.066-1.117 6.682-2.986 17.865-14.27 29.148-6.526 6.526-13.012 9.894-18.62 11.798l4.769 4.769c1.234 1.234 3.1 1.445 4.668.677.993-.487 2.258-.698 4.847-1.131 6.682-1.117 17.866-2.987 29.149-14.271 11.283-11.283 13.153-22.466 14.27-29.148.757-4.53.837-5.004 2.899-7.066s2.536-2.141 7.065-2.898c6.682-1.117 17.865-2.986 29.148-14.269 11.284-11.283 13.154-22.467 14.271-29.149.758-4.531.837-5.005 2.901-7.069 2.064-2.063 2.537-2.143 7.068-2.9 6.067-1.014 15.844-2.649 26.037-11.385 1.741-1.493 1.837-4.162.216-5.783z" fill="#bc95e2"/></g><g><g><path d="m504.55 244.506c0 1.698-1.42 3.074-3.115 2.979-14.061-.784-22.441-6.764-27.586-10.436-3.738-2.667-4.129-2.946-7.045-2.946-2.917 0-3.308.279-7.047 2.947-5.514 3.935-14.744 10.522-30.701 10.522s-25.187-6.586-30.702-10.521c-2.49-1.777-3.495-2.494-4.75-2.775-1.349-.302-2.298-1.515-2.298-2.898v-34.933c0-1.698 1.42-3.074 3.115-2.979 14.062.784 22.442 6.764 27.588 10.435 3.739 2.668 4.13 2.947 7.048 2.947 2.917 0 3.308-.279 7.047-2.947 5.514-3.935 14.744-10.522 30.701-10.522s25.187 6.587 30.701 10.522c2.488 1.775 3.493 2.493 4.747 2.774 1.349.303 2.298 1.515 2.298 2.898v34.933z" fill="#cbafea"/></g></g><g><path d="m502.252 206.675c-1.254-.281-2.259-.999-4.747-2.774-2.021-1.442-4.547-3.24-7.715-4.939v25.723c0 1.698-1.42 3.074-3.115 2.98-14.061-.784-22.441-6.764-27.586-10.436-3.738-2.667-4.129-2.946-7.045-2.946-2.917 0-3.308.279-7.047 2.947-5.514 3.935-14.744 10.522-30.701 10.522-10.112 0-17.516-2.645-22.991-5.584v9.212c0 1.383.949 2.596 2.299 2.898 1.255.281 2.261.998 4.75 2.775 5.515 3.935 14.745 10.521 30.702 10.521s25.187-6.586 30.701-10.522c3.739-2.668 4.13-2.947 7.047-2.947 2.916 0 3.307.279 7.045 2.946 5.145 3.672 13.525 9.652 27.586 10.436 1.695.095 3.115-1.282 3.115-2.979v-34.934c0-1.384-.949-2.597-2.298-2.899z" fill="#bc95e2"/></g><g><path d="m218.652 159.765-34.486 9.24c-4.279 1.147-5.712 6.495-2.58 9.628l25.245 25.245c3.132 3.133 8.481 1.699 9.628-2.58l9.24-34.486c1.147-4.278-2.768-8.193-7.047-7.047z" fill="#e28086"/></g><g><path d="m218.717 159.748-11.039 2.958-8.88 33.139 8.081 8.081c3.111 3.111 8.424 1.688 9.563-2.562l9.275-34.615c1.139-4.25-2.75-8.14-7-7.001z" fill="#dd636e"/></g><g><path d="m183.392 432.929 17.851-30.919c2.215-3.836-.554-8.632-4.984-8.632h-35.702c-4.43 0-7.199 4.796-4.984 8.632l17.851 30.919c2.215 3.837 7.753 3.837 9.968 0z" fill="#b3e59f"/></g><g><path d="m196.326 393.378h-12.081l-16.828 29.147 6.041 10.462c2.2 3.811 7.7 3.811 9.9 0l17.918-31.035c2.2-3.81-.55-8.574-4.95-8.574z" fill="#95d6a4"/></g><g><circle cx="117.409" cy="468.74" fill="#ffe07d" r="19.798"/></g><g><path d="m123.698 449.979c.247 1.25.383 2.54.383 3.863 0 10.934-8.864 19.798-19.798 19.798-2.201 0-4.311-.374-6.289-1.037 1.798 9.084 9.804 15.936 19.416 15.936 10.934 0 19.798-8.864 19.798-19.798-.001-8.734-5.662-16.131-13.51-18.762z" fill="#ffd064"/></g><g><path d="m24.982 132.16 6.559 15.705c1.438 3.442 4.778 5.666 8.508 5.666s7.07-2.224 8.508-5.667l6.56-15.705c.686-1.642 1.968-2.925 3.611-3.611l15.705-6.559c3.442-1.438 5.666-4.778 5.666-8.508s-2.224-7.07-5.667-8.508l-15.704-6.56c-1.642-.686-2.925-1.968-3.611-3.611l-6.56-15.705c-1.438-3.442-4.778-5.666-8.508-5.666s-7.07 2.224-8.508 5.667l-6.559 15.704c-.686 1.643-1.969 2.925-3.611 3.612l-15.705 6.56c-3.442 1.437-5.666 4.777-5.666 8.508s2.224 7.07 5.667 8.508l15.704 6.559c1.642.686 2.925 1.969 3.611 3.611zm2.131-19.998c5.284-2.207 9.409-6.332 11.617-11.617l1.32-3.16 1.32 3.159c2.207 5.285 6.333 9.41 11.618 11.618l3.16 1.32-3.16 1.32c-5.285 2.208-9.41 6.333-11.616 11.617l-1.32 3.16-1.32-3.16c-2.207-5.284-6.333-9.409-11.617-11.616l-3.16-1.32z"/><path d="m504.978 436.571-15.704-6.56s0 0-.001 0c-1.642-.686-2.925-1.968-3.61-3.611l-6.56-15.705c-1.438-3.442-4.777-5.666-8.508-5.666s-7.07 2.224-8.509 5.667l-6.558 15.704c-.687 1.643-1.969 2.926-3.612 3.612l-15.705 6.56c-3.442 1.438-5.666 4.778-5.666 8.508s2.224 7.07 5.667 8.508l15.704 6.559c1.643.686 2.926 1.969 3.611 3.611l6.56 15.705c1.438 3.442 4.777 5.666 8.508 5.666s7.07-2.224 8.509-5.667l6.558-15.704c.687-1.643 1.969-2.926 3.612-3.612l15.705-6.559c3.442-1.438 5.666-4.778 5.666-8.508s-2.224-7.07-5.667-8.508zm-21.446 9.828c-5.285 2.207-9.41 6.333-11.618 11.617l-1.319 3.159-1.32-3.16c-2.207-5.284-6.332-9.409-11.617-11.616l-3.159-1.32 3.158-1.32c5.285-2.206 9.41-6.332 11.619-11.617l1.319-3.159 1.32 3.16c2.208 5.285 6.333 9.41 11.618 11.617l3.159 1.32z"/><circle cx="383.893" cy="55.062" r="8.8"/><circle cx="441.968" cy="122.281" r="8.8"/><circle cx="419.775" cy="468.74" r="8.8"/><circle cx="100.62" cy="95.412" r="8.8"/><path d="m504.214 199.486c-.448-.27-1.428-.968-2.381-1.648-5.832-4.162-16.686-11.908-35.028-11.908-9.472 0-16.934 2.069-22.751 4.64-13.716-24.554-32.424-46.614-54.473-64.121-3.223-2.558-7.908-2.02-10.467 1.202-2.558 3.222-2.02 7.908 1.203 10.466 7.438 5.906 14.459 12.378 21.01 19.305h-30.788c-2.661-4.608-5.456-9.086-8.402-13.405-9.182-13.464-19.383-24.948-30.352-34.336 6.496 2.66 12.86 5.641 19.04 8.979 3.619 1.955 8.139.605 10.095-3.015 1.955-3.62.604-8.14-3.016-10.095-18.539-10.012-38.548-17.198-59.217-21.405v-27.95c0-9.584-7.798-17.382-17.382-17.382h-18.31v-30.565c0-4.114-3.335-7.45-7.45-7.45-4.114 0-7.45 3.335-7.45 7.45v30.564h-18.309c-9.584 0-17.382 7.798-17.382 17.382v27.866c-41.172 8.313-79.017 28.508-109.396 58.886-40.744 40.744-63.182 94.916-63.182 152.537 0 12.007 1.061 24.041 2.958 35.801.191 1.183.317 1.741-.091 2.172-.504.533-2.162.648-3.201.822-6.251 1.045-17.888 2.991-29.657 13.076-2.398 2.055-3.843 5.047-3.964 8.208-.121 3.165 1.093 6.262 3.329 8.499l23.453 23.454c2.166 2.166 5.073 3.303 8.042 3.303 1.698 0 3.417-.372 5.029-1.136.446-.125 1.713-.337 2.94-.542 2.882-.482 6.777-1.133 11.258-2.615 10.673 22.926 25.137 43.548 43.074 61.466-6.584 4.978-10.849 12.872-10.849 21.744 0 15.025 12.223 27.248 27.248 27.248 11.231 0 20.894-6.831 25.06-16.555 33.484 20.16 71.672 30.775 111.089 30.775 57.62 0 111.793-22.439 152.536-63.182 40.744-40.744 63.182-94.916 63.182-152.536 0-17.891-2.193-35.648-6.52-52.838.626-.445 1.208-.853 1.576-1.088.238-.005.732-.005.971 0 .495.316 1.375.945 2.232 1.556 5.341 3.812 15.281 10.906 31.5 11.811 2.822.156 5.641-.872 7.71-2.827 2.078-1.965 3.27-4.732 3.27-7.59v-34.934c-.001-4.802-3.185-8.902-7.787-10.089zm-90.079-27.165c6.373 8.189 12.105 16.859 17.121 25.885-.678.483-1.32.935-1.715 1.187-.239.005-.734.005-.973 0-.495-.316-1.376-.945-2.237-1.559-5.341-3.811-15.282-10.904-31.498-11.807-2.828-.162-5.642.872-7.71 2.827-.378.357-.715.749-1.032 1.155-2.35-6.056-4.909-11.958-7.672-17.688zm33.968 180.185h-48.319c.909-4.835 1.703-9.746 2.385-14.723l4.132-1.726c4.082-1.705 6.718-5.665 6.718-10.088s-2.636-8.383-6.718-10.087l-1.889-.789c.25-4.034.426-8.094.521-12.16h51.277c-.628 17.155-3.418 33.767-8.107 49.573zm-33.095 64.889h-35.965c7.244-15.29 13.17-32.055 17.529-49.991h46.464c-6.952 18.061-16.44 34.869-28.028 49.991zm-54.488 0c-4.115 0-7.45 3.335-7.45 7.45 0 2.055.832 3.915 2.177 5.262-4.291 7.067-8.928 13.717-13.896 19.87-14.74 18.257-31.857 31.49-50.063 39.03 4.866-6.606 9.456-14.645 13.712-24.07 4.388-9.715 8.337-20.658 11.809-32.643h6.684c4.115 0 7.45-3.335 7.45-7.45s-3.335-7.45-7.45-7.45h-2.742c2.684-11.142 4.992-23.024 6.897-35.529l3.732 8.935c1.705 4.082 5.665 6.719 10.088 6.719s8.383-2.637 10.088-6.719l9.773-23.397h19.848c-4.63 17.885-10.973 34.729-18.82 49.991h-1.837zm-252.027-82.894c.767 6.073 1.714 12.079 2.835 18.005h-16.318c1.896-5.173 2.652-9.676 3.192-12.906.174-1.039.309-2.408.781-3.002.471-.594 2.025-.67 3.065-.843 1.791-.299 3.974-.665 6.445-1.254zm14.334-5.578c4.015-2.27 8.22-5.33 12.407-9.517 5.628-5.628 9.226-11.289 11.595-16.473h30.384c.203 16.791 1.088 33.458 2.624 49.573h-53.339c-1.538-7.717-2.767-15.589-3.671-23.583zm-51.272-40.89h-16.679c.646-17.609 3.565-34.645 8.48-50.823h48.201c-.655 3.38-1.249 6.788-1.787 10.217-10.058 11.762-12.081 23.182-13.046 29.618-.291 1.942-.367 2.827-.674 3.089-.477.407-2.133.586-3.173.759-4.887.817-12.686 2.123-21.322 7.14zm25.483-115.712h35.697c-7.428 15.453-13.451 32.277-17.874 49.99h-46.334c7.1-18.084 16.754-34.894 28.511-49.99zm66.454 228.507h29.389c.011 0 .022.001.033.001s.022-.001.032-.001h.377l-14.915 25.835zm40.81 10.782 3.425-5.933c2.38-4.122 2.38-9.043 0-13.165-1.881-3.257-4.939-5.471-8.486-6.26-1.029-6.137-1.947-12.434-2.76-18.848h51.613v49.991h-42.379c-.481-1.904-.954-3.827-1.413-5.785zm-7.676-123.577h-4.513c.213-17.276 1.162-34.365 2.813-50.823h53.168v50.823h-14.396c-4.114 0-7.45 3.335-7.45 7.45s3.335 7.45 7.45 7.45h14.396v49.573h-53.286c-1.575-16.083-2.485-32.755-2.693-49.573h4.512c4.114 0 7.45-3.335 7.45-7.45s-3.337-7.45-7.451-7.45zm51.468-191.707v61.096h-17.326c-.382-.51-.8-1-1.262-1.462-3.366-3.366-8.123-4.639-12.717-3.408l-5.467 1.465c10.142-31.077 23.474-51.893 36.772-57.691zm-59.164 79.115 28.815-7.721-7.721 28.815zm12.681 33.752c3.37 3.388 8.198 4.634 12.717 3.409 4.598-1.232 8.078-4.712 9.31-9.31l8.299-30.971h16.157v49.99h-51.451c.693-5.35 1.455-10.624 2.299-15.787zm75.025 126.864 30.879 12.898c2.097.876 3.986 2.088 5.643 3.551h-50.165v-49.573h44.63c-.037.016-.071.036-.108.051l-30.878 12.897c-4.083 1.705-6.72 5.665-6.72 10.088s2.637 8.383 6.719 10.088zm-13.643-48.024v-50.823h53.192c1.635 16.343 2.58 33.388 2.79 50.823zm-14.899 144.261v62.356c-13.998-6.093-27.907-28.821-38.218-62.356zm14.899 62.389v-62.388h38.232c-2.968 9.737-6.249 18.641-9.803 26.51-8.714 19.295-18.587 31.664-28.429 35.878zm0-77.288v-49.991h51.623c-2.277 17.84-5.411 34.7-9.261 49.991zm69.237-63.215c-3.605-8.631-10.343-15.369-18.973-18.973l-22.116-9.238 22.116-9.238c8.63-3.604 15.368-10.343 18.974-18.974l9.237-22.115 9.237 22.115c3.604 8.63 10.343 15.37 18.974 18.974l22.116 9.238-22.116 9.237c-8.631 3.605-15.37 10.344-18.974 18.974l-9.237 22.115zm43.192-5.225 10.648-4.448c-.455 2.684-.949 5.35-1.478 7.999h-14.813c1.657-1.463 3.546-2.675 5.643-3.551zm0-45.971c-.037-.016-.071-.036-.108-.051h14.716c-.05 2.024-.121 4.045-.211 6.064zm-12.631-14.951-11.235-26.897c-1.705-4.082-5.665-6.719-10.088-6.719-3.445 0-6.603 1.605-8.64 4.241-.434-7.253-.993-14.411-1.679-21.448h53.198c3.294 16.179 5.251 33.215 5.683 50.823zm-33.3-65.722c-2.227-17.708-5.265-34.507-9.059-49.99h41.343c7.879 15.096 14.349 31.906 19.108 49.99zm-15.014 0h-51.484v-49.99h42.083c3.942 15.358 7.095 32.172 9.401 49.99zm-51.484-64.889v-61.094c12.608 5.514 25.38 24.549 35.297 53.25.883 2.556 1.738 5.175 2.568 7.844zm-43.094-55.648c-9.687 13.086-18.231 31.81-25.228 55.648h-36.697c4.242-6.674 8.799-12.94 13.65-18.732 14.541-17.363 30.863-29.782 48.275-36.916zm-47.29 70.547c-.737 4.218.585 8.455 3.662 11.533l9.809 9.809c-1.732 9.221-3.226 18.797-4.463 28.649h-51.379c4.735-17.909 11.196-34.763 19.149-49.99h23.222zm7.353 64.889c-.285 2.922-.548 5.863-.79 8.82l-8.82-8.82zm-2.75 50.823h-25.937c.113-.641.215-1.25.31-1.816.174-1.04.301-2.162.976-2.86.63-.651 1.834-.816 2.874-.99 4.897-.819 13.1-2.208 22.079-7.61-.148 4.41-.248 8.838-.302 13.276zm4.256 79.372c.775 6.294 1.652 12.476 2.629 18.524h-23.607c-4.76 0-9.022 2.461-11.402 6.582-2.38 4.122-2.38 9.044 0 13.166l6.766 11.718h-7.132c-7.856-15.272-14.194-32.108-18.818-49.991h51.564zm-17.013 64.889 2.551 4.418c2.379 4.121 6.642 6.582 11.401 6.583h.001c4.759 0 9.021-2.461 11.402-6.582l2.551-4.418h1.942c6.999 24.227 15.693 43.4 25.589 56.772-18.896-7.797-36.6-21.74-51.742-41.083-3.871-4.945-7.534-10.185-10.978-15.689h7.283zm286.86-181.69c2.794 12.248 4.438 24.782 4.901 37.429h-51.281c-.318-13.63-1.497-27.044-3.516-40.105 6.315 3.57 15.268 7.093 27.637 7.093 9.201 0 16.516-1.949 22.259-4.417zm-98.125-93.182h-36.77c-1.285-4.368-2.632-8.613-4.048-12.71-6.165-17.844-13.37-32.258-21.322-42.943 24.058 9.829 45.448 29.382 62.14 55.653zm-125.888-101.227c0-1.369 1.114-2.483 2.483-2.483h51.518c1.37 0 2.483 1.114 2.483 2.483v25.445c-9.344-1.233-18.78-1.877-28.242-1.877-9.524 0-18.951.626-28.242 1.834zm-47.827 53.446c-6.748 5.729-13.199 12.231-19.273 19.483-7.162 8.553-13.726 18.044-19.625 28.298h-30.732c19.425-20.489 43.115-36.889 69.63-47.781zm-133.269 264.803c-1.905.318-3.341.559-4.627.925l-19.054-19.055c7.46-5.342 14.281-6.482 19.423-7.342 5.233-.875 7.5-1.374 11.107-4.981 3.606-3.606 4.105-5.873 4.979-11.106 1.033-6.177 2.593-15.512 12.189-25.108s18.931-11.156 25.109-12.189c5.232-.874 7.5-1.373 11.105-4.979 3.607-3.607 4.105-5.875 4.98-11.109 1.033-6.177 2.594-15.513 12.191-25.109 9.598-9.597 18.933-11.157 25.111-12.19 1.904-.318 3.34-.559 4.626-.925l19.055 19.055c-7.46 5.342-14.281 6.482-19.424 7.342-5.233.875-7.5 1.374-11.108 4.981-3.606 3.607-4.105 5.875-4.98 11.109-1.033 6.177-2.594 15.513-12.191 25.109-9.596 9.596-18.931 11.156-25.109 12.189-5.232.874-7.499 1.373-11.105 4.979-3.605 3.606-4.104 5.873-4.978 11.106-1.033 6.177-2.593 15.512-12.189 25.108-9.597 9.597-18.932 11.157-25.11 12.19zm35.646-1.656c1.797-1.797 3.38-3.596 4.789-5.383h27.906c4.325 17.698 10.237 34.508 17.57 49.991h-36.178c-8.881-11.597-16.46-24.116-22.653-37.477 2.819-1.921 5.697-4.262 8.566-7.131zm37.543 109.294c-6.809 0-12.349-5.54-12.349-12.349s5.54-12.349 12.349-12.349 12.349 5.54 12.349 12.349c0 6.81-5.539 12.349-12.349 12.349zm26.591-18.278c-2.715-12.182-13.602-21.319-26.591-21.319-.226 0-.449.012-.674.017-.072-.073-.138-.15-.213-.22-3.454-3.226-6.77-6.561-9.966-9.988h31.307c5.03 8.87 10.562 17.198 16.569 24.873 7.213 9.215 14.986 17.323 23.188 24.283-11.678-4.773-22.929-10.672-33.62-17.646zm185.694 17.493c15.094-12.849 28.518-29.443 39.626-49.003h31.099c-19.625 21.052-43.704 37.891-70.725 49.003zm165.421-241.774c-9.104-1.529-14.898-5.664-18.925-8.537-4.318-3.082-6.274-4.332-11.372-4.332s-7.055 1.25-11.374 4.332c-5.098 3.638-12.802 9.136-26.374 9.136-13.571 0-21.276-5.497-26.38-9.139-1.521-1.085-2.732-1.949-3.922-2.614v-26.943c9.103 1.529 14.899 5.663 18.927 8.537 4.319 3.082 6.275 4.333 11.375 4.333 5.098 0 7.055-1.25 11.374-4.332 5.098-3.638 12.802-9.136 26.374-9.136 13.571 0 21.276 5.498 26.379 9.14 1.52 1.084 2.729 1.947 3.918 2.611z"/></g></g></svg>