<svg id="Capa_1" enable-background="new 0 0 511.531 511.531" height="512" viewBox="0 0 511.531 511.531" width="512" xmlns="http://www.w3.org/2000/svg"><g><g><path d="m435.681 160.101c-.723-27.128-15.434-51.95-38.884-65.609l-68.055-39.639-72.978 3.26-72.978-3.26-68.055 39.639c-23.45 13.659-38.161 38.48-38.884 65.609l-6.869 307.731h56.67v26.302c86.744 13.372 173.488 13.372 260.232 0v-26.302h56.67z" fill="#86a0af"/><path d="m305.408 69.089 68.055 39.639c23.45 13.659 38.161 38.48 38.884 65.609l6.551 293.496h23.652l-6.869-307.731c-.723-27.128-15.434-51.95-38.884-65.609l-68.055-39.64-72.978 3.26z" fill="#738b95"/><path d="m125.648 504.134h-48.408c-5.073 0-9.146-4.187-9.006-9.258l.745-27.044h56.67z" fill="#d0e2e7"/><path d="m385.88 504.134h48.408c5.073 0 9.146-4.187 9.006-9.258l-.745-27.044h-56.67v36.302z" fill="#cbe2ff"/><path d="m385.88 504.134h48.408c5.073 0 9.146-4.187 9.006-9.258l-.745-27.044h-56.67v36.302z" fill="#d0e2e7"/><path d="m442.55 467.832h-23.484l.628 36.302h14.594c5.073 0 9.146-4.187 9.006-9.258z" fill="#b4d0d5"/><path d="m75.847 160.101-.638 28.579h361.11l-.638-28.579c-.135-5.06-.758-10.04-1.832-14.882h-356.17c-1.074 4.842-1.697 9.822-1.832 14.882z" fill="#d0e2e7"/><path d="m433.849 145.219h-27.958c3.939 9.068 6.184 18.93 6.455 29.118l.32 14.343h23.652c-.916-23.278.304-30.963-2.469-43.461z" fill="#b4d0d5"/><path d="m205.465 55.867-22.679-1.013-12.531 7.299v437.67c11.736 1.189 23.473 2.137 35.209 2.836v-446.792z" fill="#d0e2e7"/><path d="m306.064 55.867v446.792c11.736-.699 23.473-1.647 35.209-2.836v-437.671l-12.531-7.299z" fill="#d0e2e7"/><path d="m72.61 305.124h366.308l-.97-43.461h-364.368z" fill="#d0e2e7"/><path d="m415.266 305.124h23.652c-.11-4.929-.872-39.054-.97-43.461h-23.652z" fill="#b4d0d5"/><path d="m70.011 421.568h371.506l-.97-43.461h-369.566z" fill="#d0e2e7"/><g fill="#b4d0d5"><path d="m417.865 421.568h23.652c-.336-15.052-.671-30.042-.97-43.461h-23.652z"/><path d="m306.064 145.219h35.209v43.461h-35.209z"/><path d="m170.256 145.219h35.209v43.461h-35.209z"/><path d="m306.064 261.406h35.209v43.461h-35.209z"/><path d="m170.256 261.406h35.209v43.461h-35.209z"/><path d="m306.064 377.593h35.209v43.461h-35.209z"/><path d="m170.256 377.593h35.209v43.461h-35.209z"/><path d="m313.638 13.623c-38.583-8.613-77.166-8.613-115.748 0l-25.179 28.962c11.841 27.664 30.158 56.9 55.014 73.878l28.04-16.396 28.04 16.396c24.855-16.978 43.172-46.214 55.014-73.878z"/></g><path d="m220.817 45.264c6.309 18.997 18.677 37.166 34.947 54.803 16.27-17.637 28.638-35.807 34.947-54.803-23.298-10.429-46.596-10.429-69.894 0z" fill="#86a0af"/><path d="m244.381 86.802c3.531 4.458 7.336 8.878 11.383 13.266 16.27-17.637 28.638-35.807 34.947-54.803-9.437-4.224-18.874-6.736-28.311-7.538-.91 13.396-4.793 32.663-18.019 49.075z" fill="#738b95"/></g><g><path d="m442.94 155.27c-2.171-28.147-17.767-53.136-42.367-67.464l-58.601-34.132c1.262-2.692 2.511-5.469 3.741-8.343 1.132-2.644.652-5.702-1.234-7.872l-25.18-28.962c-1.052-1.209-2.462-2.05-4.025-2.398-14.593-3.259-29.424-5.341-44.082-6.188-4.146-.244-7.681 2.919-7.92 7.055-.239 4.135 2.919 7.681 7.055 7.92 13.051.755 26.254 2.546 39.283 5.329l20.431 23.5c-12.524 27.781-28.889 50.076-46.663 63.604l-15.926-9.312c14.832-17.289 24.786-33.848 30.317-50.406.001-.002.002-.003.002-.005l3.815-10.614c1.401-3.898-.623-8.193-4.521-9.595-3.894-1.402-8.193.622-9.595 4.521l-1.184 3.293c-20.286-7.266-40.755-7.266-61.041 0l-1.184-3.293c-1.401-3.896-5.696-5.924-9.595-4.521-3.898 1.4-5.922 5.696-4.521 9.595l3.815 10.614c.001.004.004.007.005.011 5.531 16.556 15.484 33.113 30.315 50.4l-15.927 9.312c-17.774-13.529-34.139-35.823-46.664-63.604l20.431-23.5c13.03-2.783 26.234-4.574 39.284-5.329 4.135-.239 7.294-3.785 7.055-7.92-.239-4.136-3.79-7.298-7.92-7.055-14.657.847-29.489 2.929-44.083 6.188-1.564.349-2.975 1.189-4.026 2.398l-25.179 28.962c-1.887 2.17-2.366 5.229-1.235 7.872 1.231 2.875 2.479 5.652 3.741 8.344l-58.601 34.132c-25.864 15.065-41.809 41.96-42.607 71.922-.436 19.524-3.375 151.201-3.745 167.787-.092 4.141 3.189 7.572 7.331 7.665.057.001.114.002.171.002 4.064 0 7.404-3.249 7.495-7.333l.344-15.431h38.203v57.983h-39.496l.28-12.565c.093-4.141-3.189-7.572-7.331-7.665-4.119-.049-7.573 3.189-7.666 7.331-.928 23.731-2.614 100.45-3.198 136.962-.124 4.494 1.535 8.744 4.669 11.967 3.135 3.223 7.338 4.997 11.834 4.997h48.408c4.142 0 7.5-3.357 7.5-7.5v-1.302c39.242 5.644 79.86 8.784 122.616 8.784 42.688 0 83.3-3.129 122.616-8.784v1.302c0 4.143 3.357 7.5 7.5 7.5h48.408c4.496 0 8.699-1.774 11.834-4.998 3.136-3.222 4.794-7.472 4.67-11.967 0-.106-7.739-337.755-7.852-339.194zm-49.558 273.592h40.803l.698 31.264h-41.501zm-79.816 65.559v-65.558h20.209v63.933c-6.732.624-13.469 1.163-20.209 1.625zm0-80.559v-28.461h20.209v28.461zm-135.808 78.934v-63.933h20.209v65.558c-6.74-.462-13.477-1.001-20.209-1.625zm0-78.934v-28.461h20.209v28.461zm-15 0h-29.607v-28.461h29.607zm-80.212-217.888h35.604v57.983h-36.898zm1.412-43.461h78.8v28.461h-29.607v-4.045c0-4.143-3.358-7.5-7.5-7.5s-7.5 3.357-7.5 7.5v4.045h-35.27c.54-16.089.112-21.299 1.077-28.461zm114.009-53.525v38.524h-20.209v-67.9c6.673 11.844 13.544 21.512 20.209 29.376zm0 53.525v28.461h-20.209v-28.461zm115.599-53.525c6.664-7.864 13.535-17.532 20.209-29.376v67.902h-20.209zm20.209 53.525v28.461h-20.209v-28.461zm94.877 28.461h-35.27v-4.045c0-4.143-3.357-7.5-7.5-7.5s-7.5 3.357-7.5 7.5v4.045h-29.607v-28.461h78.8c.98 7.267.55 12.76 1.077 28.461zm2.23 99.924.369 16.52h-37.869v-28.461h37.233zm-52.5 16.52h-29.607v-28.461h29.607zm-29.607-43.461v-57.983h29.607v57.983zm-15 0h-20.209v-57.983h20.209zm0 15v28.461h-20.209v-28.461zm-35.209 28.461h-85.599v-28.461h85.599zm0 15v57.983h-85.599v-57.983zm15 0h20.209v57.983h-20.209zm35.209 0h29.607v57.983h-29.607zm44.607 0h38.204l1.294 57.983h-39.498zm36.899-58.461h-36.899v-57.983h35.604zm-131.715-72.983h-27.806c-4.143 0-7.5 3.357-7.5 7.5s3.357 7.5 7.5 7.5h27.806v57.983h-85.599v-57.983h27.806c4.142 0 7.5-3.357 7.5-7.5s-3.358-7.5-7.5-7.5h-27.806v-28.461h85.599zm-100.599 72.983h-20.209v-57.983h20.209zm-64.817-57.983h29.607v57.983h-29.607zm29.608 72.983v28.461h-29.607v-28.461zm15 0h20.209v28.461h-20.209zm20.209 43.461v57.983h-20.209v-57.983zm15 72.983h85.599v28.461h-85.599zm135.808 0h29.607v28.461h-29.607zm44.607 0h39.833l.635 28.461h-40.468zm30.52-247.888h-75.127v-62.52l44.25 25.773c14.566 8.485 25.307 21.501 30.877 36.747zm-142.762-88.235c-5.27 12.734-13.638 25.7-25.374 39.32-11.736-13.62-20.104-26.586-25.374-39.32 17.019-6.106 33.731-6.104 50.748 0zm-57.644 73.172c2.394 1.636 5.514 1.744 8.016.281l24.254-14.182 24.253 14.182c1.173.686 2.48 1.025 3.786 1.025 1.48 0 2.958-.438 4.23-1.307 3.248-2.218 6.791-4.919 10.529-8.173v23.235h-85.599v-23.235c3.74 3.255 7.284 5.956 10.531 8.174zm-104.988-21.683 44.25-25.773v62.519h-75.123c5.571-15.252 16.31-28.263 30.873-36.746zm-38.226 196.651.478-21.427.157-7.034h37.233v28.461zm52.868 15h29.607v57.983h-29.607zm-15 101.444h-40.468l.635-28.461h39.833zm0 15v31.264h-41.5l.698-31.264zm0 67.566h-40.908c-.527 0-.879-.248-1.082-.457-.203-.208-.442-.567-.427-1.095l.544-19.75h41.874zm15-67.566h29.607v62.41c-9.882-1.093-19.753-2.358-29.607-3.8zm79.817 66.454v-66.453h85.599v66.453c-28.518 1.446-57.081 1.446-85.599 0zm135.808-4.044v-62.41h29.607v58.609c-9.855 1.444-19.725 2.708-29.607 3.801zm86.598 4.699c-.203.208-.556.457-1.083.457h-40.908v-21.302h41.874l.544 19.75c.015.527-.225.886-.427 1.095z"/><path d="m255.766 174.397c4.142 0 7.5-3.357 7.5-7.5v-1.152c0-4.143-3.358-7.5-7.5-7.5s-7.5 3.357-7.5 7.5v1.152c0 4.142 3.358 7.5 7.5 7.5z"/><path d="m255.766 216.838c-4.142 0-7.5 3.357-7.5 7.5v1.151c0 4.143 3.358 7.5 7.5 7.5s7.5-3.357 7.5-7.5v-1.151c.001-4.143-3.357-7.5-7.5-7.5z"/><path d="m255.766 291.582c4.142 0 7.5-3.357 7.5-7.5v-1.151c0-4.143-3.358-7.5-7.5-7.5s-7.5 3.357-7.5 7.5v1.151c0 4.143 3.358 7.5 7.5 7.5z"/><path d="m255.766 350.175c4.142 0 7.5-3.357 7.5-7.5v-1.151c0-4.143-3.358-7.5-7.5-7.5s-7.5 3.357-7.5 7.5v1.151c0 4.142 3.358 7.5 7.5 7.5z"/><path d="m255.766 392.616c-4.142 0-7.5 3.357-7.5 7.5v1.151c0 4.143 3.358 7.5 7.5 7.5s7.5-3.357 7.5-7.5v-1.151c.001-4.142-3.357-7.5-7.5-7.5z"/></g></g></svg>