<svg id="Capa_1" enable-background="new 0 0 511.999 511.999" height="512" viewBox="0 0 511.999 511.999" width="512" xmlns="http://www.w3.org/2000/svg"><g><g><g><path d="m76.838 472.39c42.335 42.335 111.432 43.106 153.53.535 19.892-20.115 30.232-46.123 31.022-72.366.585-19.439 12.301-36.881 29.987-44.968 7.397-3.383 14.341-8.08 20.478-14.095 28.842-28.267 28.263-74.974-.292-103.53l-37.53-37.53c-28.556-28.556-75.263-29.134-103.53-.292-6.015 6.137-10.712 13.081-14.095 20.478-8.087 17.686-25.529 29.402-44.968 29.987-26.242.79-52.25 11.13-72.366 31.022-42.571 42.098-41.8 111.195.535 153.53z" fill="#fac574"/><g><circle cx="185.493" cy="326.507" fill="#685e67" r="41.21"/><path d="m214.635 355.648c-16.092 16.092-42.191 16.092-58.283 0-11.861-11.861-14.979-29.147-9.355-43.865 2.005 5.254 5.123 10.177 9.355 14.418 16.092 16.092 42.191 16.092 58.283 0 4.241-4.241 7.359-9.164 9.364-14.418 5.615 14.718 2.497 32.004-9.364 43.865z" fill="#554e55"/></g><path d="m311.851 341.501c-6.136 6.016-13.074 10.708-20.474 14.087-17.686 8.091-29.397 25.537-29.989 44.968-.792 26.249-11.129 52.257-31.022 72.37-42.101 42.572-111.192 41.8-153.524-.531l-22.299-22.299c42.331 42.331 111.433 43.103 153.524.531 19.892-20.113 30.239-46.121 31.022-72.36.592-19.441 12.302-36.887 29.989-44.968 7.399-3.389 14.348-8.081 20.484-14.097 28.836-28.264 28.254-74.977-.301-103.532l22.299 22.299c28.555 28.555 29.136 75.257.291 103.532z" fill="#e8b66b"/><g><path d="m254.839 289.776 179.993-186.784-25.824-25.824-186.785 179.993c-2.02 1.946-2.05 5.171-.066 7.155l25.527 25.527c1.983 1.983 5.208 1.953 7.155-.067z" fill="#c76d3d"/></g><g><path d="m254.841 289.772c-1.95 2.021-5.175 2.056-7.16.071l-17.951-17.951c1.985 1.985 5.218 1.957 7.161-.071l179.985-186.778 17.951 17.951z" fill="#aa5e33"/></g><g><path d="m431.143 105.481-24.624-24.624c-2.057-2.057-2.256-5.326-.463-7.618l46.483-59.393c4.396-5.617 12.716-6.123 17.76-1.079l28.933 28.933c5.044 5.044 4.539 13.364-1.079 17.76l-59.393 46.483c-2.291 1.793-5.56 1.595-7.617-.462z" fill="#fac574"/><path d="m503.598 55.195-64.842 50.748c-2.29 1.794-5.551 1.595-7.607-.461l-20-20c2.056 2.056 5.325 2.262 7.614.468l64.843-50.748c2.715-2.134 2.963-6.168.525-8.607l19.993 19.993c2.445 2.446 2.196 6.48-.526 8.607z" fill="#e8b66b"/></g></g></g><g><path d="m219.936 360.95c18.991-18.992 18.991-49.894 0-68.886-4.35-4.35-9.415-7.794-15.054-10.24-3.799-1.646-8.218.097-9.864 3.898-1.647 3.8.098 8.217 3.897 9.865 3.9 1.691 7.404 4.074 10.413 7.083 13.144 13.144 13.144 34.529.001 47.673-6.367 6.367-14.833 9.873-23.837 9.873-9.005 0-17.47-3.506-23.837-9.873-6.366-6.367-9.873-14.832-9.873-23.836s3.507-17.469 9.874-23.837c3.042-3.042 6.587-5.444 10.538-7.138 3.807-1.633 5.569-6.042 3.937-9.849-1.632-3.806-6.038-5.57-9.849-3.937-5.712 2.45-10.837 5.921-15.233 10.318-9.2 9.2-14.267 21.432-14.267 34.443s5.066 25.243 14.267 34.443c9.2 9.2 21.432 14.267 34.443 14.267 13.011-.001 25.243-5.067 34.444-14.267z"/><path d="m509.802 66.852-4.208-4.208c2.692-3.17 4.326-7.15 4.582-11.367.337-5.536-1.72-10.959-5.642-14.881l-3.282-3.282c-2.93-2.929-7.677-2.929-10.606.001-2.929 2.929-2.929 7.678.001 10.606l3.281 3.281c1.214 1.214 1.32 2.629 1.276 3.365-.045.736-.322 2.128-1.674 3.186l-58.177 45.532-22.439-22.44 45.531-58.176c1.058-1.352 2.45-1.629 3.186-1.673.728-.05 2.151.061 3.365 1.275l2.555 2.555c2.929 2.929 7.678 2.929 10.606.001 2.93-2.929 2.93-7.677.001-10.606l-2.555-2.556c-3.921-3.921-9.328-5.978-14.882-5.642-4.217.256-8.197 1.89-11.368 4.582l-4.208-4.207c-2.928-2.93-7.677-2.929-10.606 0s-2.929 7.678.001 10.606l5.211 5.211-6.493 8.297-3.977-3.977c-2.929-2.929-7.678-2.93-10.606 0-2.93 2.929-2.93 7.677-.001 10.606l5.27 5.271-6.493 8.296-2.967-2.967c-2.929-2.929-7.678-2.931-10.606-.001-2.93 2.929-2.93 7.678-.001 10.607l4.261 4.261-7.99 10.209c-2.138 2.733-3.033 6.076-2.75 9.322l-119.849 115.492c-15.181-14.31-34.876-22.166-55.803-22.166-.141 0-.282 0-.423.001-21.398.108-41.35 8.499-56.177 23.628-6.494 6.626-11.729 14.233-15.559 22.609-6.888 15.062-21.95 25.114-38.373 25.609-29.168.878-56.661 12.664-77.413 33.185-21.711 21.471-33.715 50.252-33.801 81.042-.088 31.395 12.096 60.916 34.306 83.126l37.229 37.228c19.771 19.771 46.004 31.833 73.867 33.964 2.98.228 5.954.341 8.921.341 24.618 0 48.541-7.791 68.178-22.348 3.327-2.466 4.025-7.164 1.559-10.491-2.466-3.328-7.163-4.025-10.492-1.559-39.588 29.345-96.088 24.824-131.425-10.514l-37.229-37.228c-19.367-19.365-29.99-45.105-29.914-72.477.075-26.768 10.497-51.776 29.348-70.417 18.046-17.846 41.953-28.094 67.317-28.858 22.082-.665 42.321-14.154 51.563-34.364 3.106-6.792 7.355-12.965 12.631-18.348 12.003-12.247 28.176-19.04 45.539-19.128h.345c16.827 0 32.687 6.222 44.998 17.581l-49.722 47.914c-2.438 2.35-3.799 5.509-3.83 8.895s1.271 6.569 3.664 8.963l25.527 25.527c2.367 2.366 5.503 3.665 8.845 3.665h.119c3.386-.031 6.545-1.391 8.895-3.83l47.914-49.722c11.437 12.396 17.665 28.387 17.58 45.343-.088 17.363-6.881 33.536-19.128 45.539-5.382 5.275-11.556 9.525-18.347 12.631-20.211 9.241-33.7 29.481-34.364 51.563-.607 20.154-7.167 39.399-18.971 55.655-2.434 3.352-1.689 8.042 1.663 10.476 1.331.966 2.872 1.432 4.4 1.432 2.319 0 4.607-1.073 6.075-3.094 13.58-18.703 21.127-40.84 21.825-64.017.494-16.423 10.546-31.485 25.609-38.373 8.375-3.83 15.981-9.065 22.608-15.559 15.129-14.827 23.52-34.777 23.628-56.176.106-21.083-7.758-40.943-22.165-56.226l115.487-119.844c.387.034.775.056 1.163.056 2.873 0 5.756-.928 8.164-2.813l10.208-7.99 4.262 4.262c1.464 1.464 3.384 2.196 5.303 2.196s3.839-.732 5.304-2.197c2.929-2.929 2.929-7.678-.001-10.606l-2.968-2.968 8.297-6.493 5.27 5.271c1.465 1.465 3.384 2.197 5.304 2.197 1.919 0 3.839-.732 5.303-2.197 2.93-2.929 2.93-7.677.001-10.606l-3.978-3.978 8.296-6.493 5.212 5.212c1.465 1.464 3.385 2.197 5.304 2.197s3.839-.732 5.304-2.197c2.93-2.932 2.93-7.681.001-10.61zm-88.511 39.384-15.48 16.064-16.111-16.111 16.064-15.48zm-38.106 39.543-16.965-16.965 12.676-12.215 16.504 16.504zm-25.976 26.957-17.945-17.945 16.153-15.566 17.357 17.358zm-25.977 26.956-18.924-18.925 16.153-15.566 18.337 18.337zm-52.422 54.4-20.902-20.902 16.397-15.8 20.306 20.306zm26.211-27.2-19.914-19.913 16.397-15.801 19.317 19.318zm-53.825 55.856-21.944-21.944 17.853-17.204 21.295 21.295z"/><path d="m144.885 410.514c1.919 0 3.839-.732 5.304-2.197 2.929-2.929 2.929-7.678 0-10.606l-35.899-35.899c-2.93-2.929-7.678-2.929-10.607 0s-2.929 7.678 0 10.606l35.899 35.899c1.464 1.464 3.384 2.197 5.303 2.197z"/><path d="m83.332 382.162c-2.929 2.929-2.929 7.678 0 10.606l35.899 35.899c1.465 1.464 3.385 2.197 5.304 2.197s3.839-.732 5.304-2.197c2.929-2.929 2.929-7.678 0-10.606l-35.899-35.899c-2.931-2.929-7.679-2.929-10.608 0z"/><path d="m458.747 42.647-12.251 12.252c-2.929 2.929-2.929 7.678.001 10.607 1.464 1.464 3.384 2.196 5.303 2.196s3.839-.732 5.304-2.197l12.251-12.252c2.929-2.929 2.929-7.678-.001-10.607-2.929-2.929-7.678-2.928-10.607.001z"/></g></g></svg>