<?xml version="1.0" encoding="utf-8"?>
<!-- Generator: Adobe Illustrator 16.0.0, SVG Export Plug-In . SVG Version: 6.00 Build 0)  -->
<!DOCTYPE svg PUBLIC "-//W3C//DTD SVG 1.1//EN" "http://www.w3.org/Graphics/SVG/1.1/DTD/svg11.dtd">
<svg version="1.1" id="Capa_1" xmlns="http://www.w3.org/2000/svg" xmlns:xlink="http://www.w3.org/1999/xlink" x="0px" y="0px"
	 width="800px" height="800px" viewBox="0 0 800 800" enable-background="new 0 0 800 800" xml:space="preserve">
<g>
	<path fill="#259245" d="M179.645,659.064v-1c0-6.563-5.339-11.903-11.903-11.903H31.198l368.229-216.257l368.23,216.257H219.355
		c-6.563,0-11.903,5.34-11.903,11.903v1H179.645z"/>
	<path fill="#259245" d="M219.355,645.161h544.625L399.427,431.064L34.875,645.161h132.867c7.126,0,12.903,5.775,12.903,12.903
		h25.807C206.452,650.937,212.229,645.161,219.355,645.161z"/>
	<polygon fill="#259245" points="31.198,153.839 767.657,153.839 399.427,370.096 	"/>
	<polygon fill="#259245" points="763.979,154.839 34.875,154.839 399.427,368.936 	"/>
	<path fill="#FFE000" d="M763.979,645.161h10.214v-51.408L463.226,411.126c-3.946-2.317-6.369-6.552-6.369-11.126
		c0-4.575,2.423-8.809,6.369-11.126l310.968-182.627v-51.408h-10.214L399.427,368.936L34.875,154.839h-9.068v52.081l309.82,181.955
		c3.944,2.317,6.369,6.551,6.369,11.126c0,4.574-2.425,8.809-6.369,11.126L25.807,593.08v52.081h9.068l364.552-214.097
		L763.979,645.161z"/>
	<polygon fill="#333333" points="24.807,235.101 305.588,400 24.807,564.898 	"/>
	<polygon fill="#333333" points="25.807,236.848 25.807,563.151 303.613,400 	"/>
	<polygon fill="#333333" points="493.264,400 775.193,234.425 775.193,565.575 	"/>
	<polygon fill="#333333" points="774.193,563.828 774.193,236.172 495.238,400 	"/>
	<path d="M787.097,129.032H12.903C5.777,129.032,0,134.808,0,141.936v516.129c0,7.128,5.777,12.903,12.903,12.903h154.839
		c7.126,0,12.903-5.775,12.903-12.903s-5.777-12.903-12.903-12.903H34.875h-9.068V593.08l309.82-181.954
		c3.944-2.317,6.369-6.552,6.369-11.126c0-4.575-2.425-8.809-6.369-11.126L25.807,206.919v-52.081h9.068h729.104h10.214v51.408
		L463.226,388.874c-3.946,2.317-6.369,6.551-6.369,11.126c0,4.574,2.423,8.809,6.369,11.126l310.968,182.627v51.408h-10.214H219.355
		c-7.126,0-12.903,5.775-12.903,12.903s5.777,12.903,12.903,12.903h567.742c7.128,0,12.903-5.775,12.903-12.903V141.936
		C800,134.808,794.225,129.032,787.097,129.032z M774.193,563.828L495.238,400l278.955-163.828V563.828z M25.807,236.848
		L303.613,400L25.807,563.151V236.848z"/>
</g>
</svg>
