<?xml version="1.0" encoding="iso-8859-1"?>
<!-- Generator: Adobe Illustrator 19.0.0, SVG Export Plug-In . SVG Version: 6.00 Build 0)  -->
<svg version="1.1" id="Capa_1" xmlns="http://www.w3.org/2000/svg" xmlns:xlink="http://www.w3.org/1999/xlink" x="0px" y="0px"
	 viewBox="0 0 512 512" style="enable-background:new 0 0 512 512;" xml:space="preserve">
<path style="fill:#F8C09C;" d="M380.249,177.61l0.001-0.001V40.632c0-18.299-14.834-33.133-33.133-33.133
	c-18.299,0-33.133,14.834-33.133,33.133V153.5l-132.534,3.101V90.333c0-18.299-14.834-33.133-33.133-33.133
	s-33.133,14.834-33.133,33.133v223.651c0,36.598,29.668,66.267,66.267,66.267v51.746h149.098V380.25
	c36.598,0,66.266-29.668,66.266-66.266V206.3C396.817,194.038,390.15,183.339,380.249,177.61z"/>
<path style="fill:#EF937E;" d="M380.249,177.61l0.001-0.001V40.632c0-18.299-14.834-33.133-33.133-33.133
	c-3.486,0-6.844,0.542-10,1.539c13.411,4.241,23.133,16.78,23.133,31.593v136.976l-0.001,0.001
	c9.901,5.729,16.568,16.428,16.568,28.69v107.684c0,36.598-29.668,66.266-66.266,66.266v51.747h20V380.25
	c36.598,0,66.266-29.668,66.266-66.266V206.3C396.817,194.038,390.15,183.339,380.249,177.61z"/>
<path style="fill:#F8C09C;" d="M181.452,206.302c0,18.299,14.834,33.133,33.133,33.133s33.133-14.834,33.133-33.133v-49.701
	c0-18.299-14.834-33.133-33.133-33.133s-33.133,14.834-33.133,33.133V206.302z"/>
<path style="fill:#EF937E;" d="M214.584,123.468c-3.486,0-6.844,0.542-10,1.539c13.41,4.241,23.133,16.78,23.133,31.593v49.701
	c0,14.813-9.722,27.352-23.133,31.593c3.156,0.998,6.514,1.54,10,1.54c18.299,0,33.133-14.834,33.133-33.133V156.6
	C247.717,138.302,232.883,123.468,214.584,123.468z"/>
<path style="fill:#F8C09C;" d="M280.851,239.435c-18.299,0-33.133-14.834-33.133-33.133l-0.001-66.268
	c0-18.299,14.834-33.133,33.133-33.133s33.133,14.834,33.133,33.133v33.134L280.851,239.435z"/>
<path style="fill:#EF937E;" d="M280.851,106.902c-3.483,0-6.838,0.54-9.992,1.537c13.415,4.238,23.141,16.78,23.141,31.596v33.134
	h19.983v-33.134C313.983,121.736,299.149,106.902,280.851,106.902z"/>
<path style="fill:#D0E2ED;" d="M363.683,438.23l38.967,19.479c4.423,2.211,4.423,8.522,0.001,10.733l-38.966,19.487H148.319
	l-38.967-19.479c-4.423-2.211-4.423-8.522-0.001-10.733l38.966-19.487H363.683z"/>
<path style="fill:#AABFCF;" d="M108.593,468c0.237,0.164,0.489,0.315,0.759,0.449l38.967,19.478h215.366l38.966-19.487
	c0.265-0.132,0.512-0.281,0.745-0.441H108.593V468z"/>
<path style="fill:#394D5C;" d="M357.683,504.5H154.319c-3.314,0-6-2.686-6-6v-70.831c0-3.314,2.686-6,6-6h203.364
	c3.314,0,6,2.686,6,6V498.5C363.683,501.813,360.997,504.5,357.683,504.5z"/>
<path style="fill:#133441;" d="M357.683,421.669h-20c3.314,0,6,2.686,6,6V498.5c0,3.314-2.686,6-6,6h20c3.314,0,6-2.686,6-6v-70.831
	C363.683,424.355,360.997,421.669,357.683,421.669z"/>
<g>
	<circle style="fill:#D0E2ED;" cx="206.301" cy="463.08" r="24.849"/>
	<circle style="fill:#D0E2ED;" cx="305.701" cy="463.08" r="24.849"/>
</g>
<g>
	<path style="fill:#AABFCF;" d="M181.94,468c2.283,11.367,12.321,19.93,24.36,19.93s22.077-8.563,24.36-19.93H181.94z"/>
	<path style="fill:#AABFCF;" d="M281.341,468c2.283,11.367,12.321,19.93,24.36,19.93s22.077-8.563,24.36-19.93H281.341z"/>
</g>
<path style="fill:#EF937E;" d="M181.452,206.302l-0.001-115.969c0-18.299-14.834-33.133-33.133-33.133
	c-3.486,0-6.844,0.542-10,1.539c13.411,4.241,23.133,16.78,23.133,31.593l0.019,115.969c0,18.299,15.277,33.133,33.576,33.133
	c3.401,0,6.681-0.514,9.77-1.466C191.285,233.8,181.452,221.2,181.452,206.302z"/>
<path d="M416.737,456.365l-45.554-22.771v-11.925c0-4.143-3.357-7.5-7.5-7.5h-25.632v-26.797
	c37.164-3.772,66.266-35.245,66.266-73.388l0.001-107.685c0-13.404-6.528-25.309-16.567-32.714V40.632
	C387.75,18.228,369.523,0,347.117,0s-40.633,18.228-40.633,40.632v67.904c-6.998-5.706-15.922-9.134-25.634-9.134
	c-17.846,0-33.03,11.569-38.476,27.597c-7.273-6.832-17.048-11.03-27.791-11.03c-9.712,0-18.636,3.429-25.634,9.134v-34.77
	c0-22.405-18.228-40.633-40.632-40.633c-22.405,0-40.633,18.227-40.633,40.633v146.585c0,4.143,3.357,7.5,7.5,7.5s7.5-3.357,7.5-7.5
	V90.333c0-14.134,11.499-25.633,25.633-25.633s25.632,11.499,25.632,25.633v66.268c0,0.007,0.001,0.013,0.001,0.019v49.683
	c0,22.404,18.228,40.632,40.633,40.632c13.664,0,25.764-6.786,33.134-17.157c0.95,1.336,1.968,2.62,3.068,3.83
	c7.438,8.182,18.162,13.327,30.065,13.327c0.007,0,0.013-0.001,0.019-0.001l42.18-0.001v18.443
	c-46.313,3.826-82.833,42.741-82.833,90.024c0,4.143,3.357,7.5,7.5,7.5s7.5-3.357,7.5-7.5c0-41.539,33.794-75.333,75.333-75.333
	c4.143,0,7.5-3.357,7.5-7.5v-25.635h0.783c4.143,0,7.5-3.358,7.5-7.5c0-4.143-3.358-7.5-7.5-7.5h-8.281c0,0-0.002,0-0.003,0
	s-0.002,0-0.003,0l-49.697,0.001c-9.275,0-17.416-4.952-21.916-12.351c-0.17-0.279-0.331-0.565-0.49-0.852
	c-0.041-0.074-0.086-0.146-0.127-0.221c-1.975-3.632-3.098-7.791-3.098-12.208v-0.04c0.021-14.116,11.511-25.594,25.632-25.594
	h33.106c0.009,0,0.018,0.001,0.027,0.001s0.018-0.001,0.027-0.001l49.674-0.001c14.134,0,25.633,11.499,25.633,25.633
	l-0.001,107.685c0,32.403-26.362,58.766-58.766,58.766c-0.007,0-0.013,0.001-0.019,0.001h-24.831c-4.143,0-7.5,3.357-7.5,7.5
	s3.357,7.5,7.5,7.5h17.351v26.418H188.952v-26.418h17.349c4.143,0,7.5-3.357,7.5-7.5s-3.357-7.5-7.5-7.5h-24.849
	c-32.404,0-58.767-26.362-58.767-58.767v-47.199c0-4.143-3.357-7.5-7.5-7.5s-7.5,3.357-7.5,7.5v47.199
	c0,38.143,29.102,69.617,66.267,73.389v26.796h-25.633c-4.143,0-7.5,3.357-7.5,7.5v11.925l-45.556,22.782
	c-2.541,1.271-4.146,3.868-4.146,6.709s1.605,5.438,4.146,6.708l45.555,22.772V504.5c0,4.143,3.357,7.5,7.5,7.5h215.364
	c4.143,0,7.5-3.357,7.5-7.5v-11.936l45.555-22.782c2.541-1.271,4.146-3.868,4.146-6.709
	C420.884,460.232,419.278,457.636,416.737,456.365z M240.217,206.303c0,14.134-11.499,25.632-25.633,25.632
	s-25.633-11.498-25.633-25.632v-49.702c0-14.134,11.499-25.632,25.633-25.632s25.633,11.498,25.633,25.632V206.303z
	 M255.218,174.801l-0.001-34.767c0-14.134,11.499-25.633,25.633-25.633s25.633,11.499,25.633,25.633v25.633H280.85
	C271.139,165.668,262.216,169.096,255.218,174.801z M321.483,165.667v-25.614c0-0.007,0.001-0.013,0.001-0.019V40.632
	c0-14.134,11.499-25.632,25.633-25.632s25.633,11.498,25.633,25.632v126.067c-2.917-0.668-5.949-1.032-9.065-1.032H321.483z
	 M115.389,463.083l25.431-12.718v25.429L115.389,463.083z M356.184,497H155.819v-67.831h200.364V497H356.184z M371.184,475.793
	v-25.428l25.43,12.711L371.184,475.793z"/>
<path d="M206.301,430.731c-17.838,0-32.35,14.512-32.35,32.35c0,17.837,14.512,32.349,32.35,32.349
	c17.837,0,32.349-14.512,32.349-32.349C238.649,445.243,224.138,430.731,206.301,430.731z M206.301,480.43
	c-9.566,0-17.35-7.782-17.35-17.349c0-9.566,7.783-17.35,17.35-17.35c9.566,0,17.349,7.783,17.349,17.35
	C223.649,472.647,215.867,480.43,206.301,480.43z"/>
<path d="M305.7,430.731c-17.837,0-32.349,14.512-32.349,32.35c0,17.837,14.512,32.349,32.349,32.349
	c17.838,0,32.35-14.512,32.35-32.349C338.05,445.243,323.538,430.731,305.7,430.731z M305.7,480.43
	c-9.566,0-17.349-7.782-17.349-17.349c0-9.566,7.782-17.35,17.349-17.35c9.566,0,17.35,7.783,17.35,17.35
	C323.05,472.647,315.267,480.43,305.7,480.43z"/>
<g>
</g>
<g>
</g>
<g>
</g>
<g>
</g>
<g>
</g>
<g>
</g>
<g>
</g>
<g>
</g>
<g>
</g>
<g>
</g>
<g>
</g>
<g>
</g>
<g>
</g>
<g>
</g>
<g>
</g>
</svg>
