<?xml version="1.0" encoding="iso-8859-1"?>
<!-- Generator: Adobe Illustrator 19.0.0, SVG Export Plug-In . SVG Version: 6.00 Build 0)  -->
<svg version="1.1" id="Capa_1" xmlns="http://www.w3.org/2000/svg" xmlns:xlink="http://www.w3.org/1999/xlink" x="0px" y="0px"
	 viewBox="0 0 511.999 511.999" style="enable-background:new 0 0 511.999 511.999;" xml:space="preserve">
<path style="fill:#FFA733;" d="M313.779,474.022c9.059,13.065,26.992,16.313,40.058,7.255c13.065-9.059,16.313-26.992,7.255-40.058
	c-9.059-13.065-154.283-215.247-174.531-201.208C166.313,254.05,304.721,460.957,313.779,474.022z"/>
<path style="fill:#FF9811;" d="M337.435,457.62c-6.891-9.938-92.563-129.293-142.092-179.682
	c-9.383-20.155-13.629-34.568-8.782-37.928c20.248-14.038,165.472,188.143,174.531,201.208c9.059,13.065,5.81,31-7.255,40.058
	c-4.311,2.988-9.151,4.629-14.027,5.028C344.042,477.312,343.506,466.375,337.435,457.62z"/>
<ellipse transform="matrix(0.5698 0.8218 -0.8218 0.5698 306.7128 -53.6902)" style="fill:#FF3F62;" cx="204.636" cy="266.098" rx="35.542" ry="38.79"/>
<path style="fill:#D80027;" d="M207.166,264.354c-7.82-11.279-21.581-16.217-35.171-14.001c2.943-5.141,7.108-9.791,12.404-13.462
	c17.605-12.206,40.944-9.024,52.128,7.108c11.184,16.131,5.979,39.103-11.626,51.31c-5.296,3.671-11.11,5.941-16.957,6.895
	C214.784,290.252,214.985,275.632,207.166,264.354z"/>
<ellipse transform="matrix(0.5698 0.8218 -0.8218 0.5698 181.566 -38.1004)" style="fill:#FF9811;" cx="127.173" cy="154.365" rx="135.965" ry="111.055"/>
<path style="fill:#EE8700;" d="M159.721,131.798C125.655,82.663,70.821,58.897,24.445,68.89
	c6.558-10.219,14.992-19.144,25.263-26.265c50.405-34.947,125.949-13.249,168.735,48.461s36.61,140.066-13.793,175.012
	c-10.271,7.122-21.587,11.889-33.457,14.447C196.814,240.619,193.787,180.933,159.721,131.798z"/>
<path style="fill:#6DC82A;" d="M218.442,91.086c14.138,20.392,22.926,42.601,26.542,64.461L86.973,265.1
	c-19.203-11.053-36.919-27.073-51.058-47.463c-14.138-20.392-22.926-42.602-26.542-64.461L167.384,43.622
	C186.587,54.675,204.304,70.694,218.442,91.086z"/>
<path style="fill:#5EAC24;" d="M218.442,91.086c-14.138-20.392-31.855-36.41-51.058-47.464l-58.733,40.721
	c19.206,11.053,36.929,27.061,51.07,47.455s22.915,42.607,26.53,64.469l58.733-40.721
	C241.368,133.687,232.58,111.478,218.442,91.086z"/>
<path style="fill:#D80027;" d="M16.12,179.156l96.379,56.133c2.957,1.638,6.77,0.571,8.051-0.317c2.395-1.661,3.61-4.557,3.12-7.428
	l-17.715-103.791l90.985,52.992c2.519,1.467,5.656,1.342,8.051-0.317c2.395-1.661,3.61-4.557,3.121-7.428L189.348,59.053
	c-5.092-4.285-10.374-8.178-15.8-11.665c-0.655,1.357-0.915,2.919-0.642,4.517l17.715,103.791l-90.985-52.992
	c-2.52-1.468-5.657-1.343-8.051,0.317c-2.395,1.661-3.61,4.557-3.121,7.428l17.716,103.791l-90.985-52.992
	c-1.401-0.815-2.955-1.119-4.455-0.982C12.101,166.573,13.895,172.885,16.12,179.156z"/>
<path style="fill:#A5001E;" d="M204.994,176.426c2.395-1.661,3.61-4.557,3.121-7.428L189.348,59.053
	c-5.092-4.285-10.374-8.178-15.8-11.665c-0.655,1.357-0.915,2.919-0.642,4.517l17.715,103.791l-24.83-14.462
	c4.751,7.935,8.732,16.083,11.957,24.328l19.195,11.179C199.461,178.21,202.599,178.085,204.994,176.426z"/>
<g>
	<path style="fill:#FFDA44;" d="M146.815,33.892c13.237,4.974,26.14,12.22,38.106,21.562L14.303,173.747
		C9.75,159.266,7.49,144.641,7.474,130.5L146.815,33.892z"/>
	<path style="fill:#FFDA44;" d="M246.883,178.221L107.541,274.83c-13.237-4.974-26.14-12.22-38.106-21.562l170.618-118.294
		C244.607,149.456,246.867,164.08,246.883,178.221z"/>
</g>
<g>
	<path style="fill:#FFCD00;" d="M184.921,55.453l-58.722,40.714c-11.965-9.343-24.867-16.589-38.104-21.563l58.72-40.712
		C160.052,38.866,172.955,46.111,184.921,55.453z"/>
	<path style="fill:#FFCD00;" d="M246.883,178.221l-58.72,40.712c-0.016-14.14-2.278-28.764-6.831-43.246l58.722-40.713
		C244.607,149.456,246.867,164.08,246.883,178.221z"/>
</g>
<path style="fill:#FFC477;" d="M198.345,474.022c-9.059,13.065-26.992,16.313-40.058,7.255
	c-13.065-9.059-16.313-26.992-7.255-40.058c9.059-13.065,154.283-215.247,174.531-201.208
	C345.811,254.048,207.404,460.957,198.345,474.022z"/>
<path style="fill:#FFB655;" d="M174.689,457.62c6.891-9.938,92.563-129.293,142.092-179.682
	c9.383-20.155,13.629-34.568,8.782-37.928c-20.248-14.038-165.472,188.143-174.531,201.208c-9.059,13.065-5.81,31,7.255,40.058
	c4.311,2.988,9.151,4.629,14.027,5.028C168.082,477.312,168.619,466.375,174.689,457.62z"/>
<ellipse transform="matrix(0.5698 -0.8218 0.8218 0.5698 -86.4148 367.1607)" style="fill:#FF728B;" cx="307.47" cy="266.116" rx="35.542" ry="38.79"/>
<path style="fill:#FF3F62;" d="M304.959,264.354c7.82-11.279,21.581-16.217,35.171-14.001c-2.943-5.141-7.108-9.791-12.404-13.462
	c-17.605-12.206-40.944-9.024-52.128,7.108c-11.184,16.131-5.979,39.103,11.626,51.31c5.296,3.671,11.11,5.941,16.957,6.895
	C297.341,290.252,297.139,275.632,304.959,264.354z"/>
<ellipse transform="matrix(0.5698 -0.8218 0.8218 0.5698 38.7457 382.7576)" style="fill:#FFB655;" cx="384.947" cy="154.373" rx="135.965" ry="111.055"/>
<path style="fill:#FFA733;" d="M352.403,131.798c34.066-49.135,88.901-72.901,135.276-62.908
	c-6.558-10.219-14.992-19.144-25.263-26.265C412.012,7.678,336.468,29.375,293.682,91.085s-36.61,140.066,13.793,175.012
	c10.271,7.122,21.587,11.889,33.457,14.447C315.311,240.619,318.337,180.933,352.403,131.798z"/>
<path style="fill:#91DC5A;" d="M293.682,91.086c-14.138,20.392-22.926,42.601-26.542,64.461l158.011,109.554
	c19.203-11.053,36.919-27.073,51.058-47.463c14.138-20.392,22.926-42.602,26.542-64.461L344.74,43.622
	C325.538,54.675,307.821,70.694,293.682,91.086z"/>
<path style="fill:#6DC82A;" d="M344.74,43.622c-19.203,11.053-36.919,27.073-51.058,47.464s-22.926,42.601-26.542,64.461
	l58.733,40.721c3.615-21.862,12.39-44.074,26.53-64.47c14.141-20.395,31.863-36.402,51.07-47.455L344.74,43.622z"/>
<path style="fill:#FF3F62;" d="M501.386,160.267c-1.501-0.138-3.055,0.167-4.456,0.983l-90.985,52.992l17.716-103.791
	c0.489-2.872-0.727-5.768-3.121-7.428c-2.394-1.66-5.532-1.784-8.051-0.317l-90.985,52.992l17.715-103.791
	c0.273-1.598,0.013-3.16-0.642-4.517c-5.426,3.487-10.707,7.381-15.8,11.665l-18.767,109.945c-0.489,2.872,0.727,5.768,3.121,7.428
	c2.395,1.66,5.534,1.785,8.051,0.317l90.985-52.992l-17.715,103.791c-0.49,2.872,0.726,5.768,3.12,7.428
	c1.281,0.888,6.003,1.796,8.051,0.317l96.379-56.133C498.23,172.884,500.023,166.572,501.386,160.267z"/>
<path style="fill:#D80027;" d="M346.333,141.236l-24.83,14.462l17.715-103.791c0.273-1.598,0.013-3.16-0.642-4.517
	c-5.426,3.487-10.707,7.381-15.8,11.665l-18.767,109.945c-0.489,2.872,0.727,5.768,3.121,7.428c2.395,1.66,5.534,1.785,8.051,0.317
	l19.195-11.179C337.6,157.319,341.582,149.171,346.333,141.236z"/>
<g>
	<path style="fill:#FFE477;" d="M365.309,33.892c-13.237,4.974-26.14,12.22-38.106,21.562l170.618,118.293
		c4.553-14.482,6.813-29.106,6.829-43.247L365.309,33.892z"/>
	<path style="fill:#FFE477;" d="M265.241,178.221l139.341,96.609c13.237-4.974,26.14-12.22,38.106-21.562L272.07,134.974
		C267.517,149.456,265.257,164.08,265.241,178.221z"/>
</g>
<g>
	<path style="fill:#FFDA44;" d="M327.203,55.453l58.722,40.713c11.965-9.343,24.867-16.589,38.104-21.563l-58.72-40.712
		C352.071,38.866,339.169,46.111,327.203,55.453z"/>
	<path style="fill:#FFDA44;" d="M265.241,178.221l58.72,40.712c0.016-14.14,2.278-28.764,6.831-43.246l-58.722-40.713
		C267.517,149.456,265.257,164.08,265.241,178.221z"/>
</g>
<path d="M466.691,36.458C422.55,5.472,343.241,8.421,287.517,86.811c-34.373,48.355-38.299,107.736-15.775,149.895
	c-0.816,0.969-13.536,13.273-8.443,36.076c0.58,2.597,1.409,5.117,2.425,7.555c-3.157,3.63-6.384,7.408-9.659,11.296
	c-3.339-3.963-6.567-7.735-9.663-11.295c1.016-2.438,1.837-4.961,2.425-7.556c2.667-11.768,0.852-25.214-8.449-36.065
	c22.531-42.159,18.037-101.146-15.769-149.906C179.534,21.8,99.16-0.79,45.434,36.458C32.93,45.127,22.71,56.39,15.059,69.933
	c-2.038,3.607-0.766,8.185,2.842,10.223c3.606,2.039,8.185,0.766,10.224-2.841c6.529-11.557,15.23-21.154,25.86-28.524
	c21.9-15.184,49.047-18.726,75.876-12.272L15.873,115.547c0.54-4.424,1.327-8.784,2.375-13.055c0.987-4.024-1.475-8.087-5.498-9.075
	c-4.027-0.989-8.087,1.474-9.076,5.498c-9.692,39.487,0.056,85.466,26.075,122.996c30.345,43.767,76.69,68.307,120.13,68.307
	c4.955,0,9.87-0.332,14.722-0.978c0.621,1.105,11.66,21.201,38.744,20.963c4.568,8.428,9.764,17.661,15.496,27.542
	c-35.807,45.858-68.66,91.533-73.976,99.199c-11.4,16.444-7.299,39.098,9.146,50.499c6.292,4.363,13.492,6.454,20.625,6.454
	c11.507,0,22.836-5.448,29.874-15.6c6.163-8.89,46.632-69.527,80.595-126.659c35.191,45.306,66.384,88.901,69.82,93.857
	c6.687,9.645,4.28,22.93-5.364,29.617c-9.643,6.688-22.931,4.281-29.617-5.363c-3.13-4.516-20.804-30.856-41.793-63.817
	c-2.226-3.496-6.866-4.525-10.358-2.298c-3.495,2.226-4.524,6.864-2.299,10.359c21.11,33.149,38.952,59.736,42.119,64.306
	c7.039,10.153,18.365,15.6,29.874,15.6c7.132,0,14.334-2.093,20.625-6.454c16.444-11.401,20.546-34.055,9.146-50.499
	c-3.584-5.17-37.098-52.006-73.971-99.225c5.513-9.495,10.741-18.756,15.496-27.526c0.594,0.023,8.174,0.403,16.229-2.338
	c3.924-1.336,6.014-5.605,4.675-9.526c-1.341-3.922-5.604-6.011-9.526-4.674c-9.292,3.174-20.006,1.487-28.66-4.515
	c-6.969-4.832-11.787-11.819-13.567-19.675c-1.532-6.759-0.626-13.445,2.531-19.097c6.295,8.354,13.877,15.753,22.737,21.895
	c17.559,12.174,37.953,17.954,59.044,17.954c43.437,0,89.788-24.544,120.13-68.307C527.449,156.899,520.195,74.017,466.691,36.458z
	 M239.302,174.347L106.574,266.37c-8.263-3.396-16.371-7.74-24.157-12.972l153.218-106.23
	C237.805,156.298,239.02,165.415,239.302,174.347z M171.951,55.316L18.764,161.525c-2.158-9.056-3.4-18.168-3.696-27.159
	l132.718-92.017C156.051,45.747,164.163,50.082,171.951,55.316z M42.082,213.361c-8.009-11.551-14.321-23.956-18.833-36.685
	L184.566,64.83c10.184,8.572,19.571,18.791,27.711,30.531c8.139,11.74,14.417,24.114,18.872,36.657L69.802,243.884
	C59.616,235.311,50.222,225.102,42.082,213.361z M124.501,272.202l113.976-79.023c-3.365,27.389-16.096,51.724-38.104,66.753
	C167.304,282.516,132.94,274.232,124.501,272.202z M180.448,285.882c10.031-2.966,19.617-7.476,28.475-13.618
	c8.859-6.142,16.441-13.541,22.737-21.895c3.156,5.651,4.063,12.339,2.531,19.097c-1.78,7.856-6.599,14.844-13.567,19.675
	c-6.969,4.831-15.2,6.892-23.183,5.804C190.576,294.009,184.634,290.818,180.448,285.882z M218.704,307.023
	c3.645-1.407,12.784-4.822,19.34-13.41c2.671,3.104,5.433,6.358,8.274,9.747c-5.776,7.035-11.638,14.316-17.483,21.684
	C225.207,318.723,221.82,312.699,218.704,307.023z M293.426,307.009c-35.155,64.036-93.752,151.928-101.246,162.737
	c-6.688,9.645-19.974,12.051-29.618,5.364c-9.644-6.687-12.051-19.973-5.364-29.617c7.441-10.731,69.234-96.488,116.883-151.88
	C276.677,296.534,283.056,303.989,293.426,307.009z M407.507,33.443c18.148,0,35.624,4.94,50.634,15.347
	c33.663,23.339,45.921,67.931,35.261,112.764L340.181,55.322c7.786-5.233,15.894-9.577,24.157-12.973l105.214,72.947
	c5.41,3.036,8.983,0.21,10.441-1.891c2.361-3.405,1.516-8.08-1.891-10.441l-95.837-66.446
	C390.706,34.488,399.177,33.443,407.507,33.443z M276.49,147.168l153.228,106.236c-7.788,5.234-15.9,9.57-24.165,12.967
	l-132.731-92.026C273.104,165.415,274.32,156.298,276.49,147.168z M311.75,259.932c-21.901-15.184-34.739-39.364-38.104-66.753
	l113.979,79.025C360.797,278.658,333.651,275.116,311.75,259.932z M470.044,213.361c-8.139,11.74-17.527,21.959-27.711,30.531
	L280.975,132.018c4.456-12.543,10.733-24.918,18.872-36.657c8.141-11.742,17.536-21.952,27.721-30.524l161.348,111.866
	C484.46,189.246,478.183,201.621,470.044,213.361z"/>
<g>
</g>
<g>
</g>
<g>
</g>
<g>
</g>
<g>
</g>
<g>
</g>
<g>
</g>
<g>
</g>
<g>
</g>
<g>
</g>
<g>
</g>
<g>
</g>
<g>
</g>
<g>
</g>
<g>
</g>
</svg>
