<svg id="Capa_1" enable-background="new 0 0 511.999 511.999" height="512" viewBox="0 0 511.999 511.999" width="512" xmlns="http://www.w3.org/2000/svg"><g><g><path d="m425.598 209.722-9.351 37.402 56.103-9.35z" fill="#ffc269"/><path d="m408.33 117.426c-16.142-2.532-31.419 1.905-41.594 10.728-1.58 1.37-1.959 3.784-.874 5.573 6.985 11.515 20.169 20.416 36.311 22.948 17.574 2.757 34.122-2.747 44.178-13.178-6.379-13.009-20.447-23.315-38.021-26.071z" fill="#95d6a4"/><path d="m461.898 62.332c11.97-9.712 26.521-13.362 39.024-11.047 2.067.383 3.619 2.298 3.567 4.399-.312 12.711-6.88 26.196-18.849 35.908-13.102 10.631-29.295 13.997-42.511 10.231-.963-13.708 5.667-28.86 18.769-39.491z" fill="#ccf49f"/><path d="m349.459 214.398-221.672-107.343c-4.972-2.408-10.626 1.775-9.685 7.219 2.62 15.158 8.87 41.122 22.976 62.721l185.673 76.139z" fill="#dbeaff"/><path d="m401.573 188.35h-.019c-21.383 0-41.89 8.495-57.01 23.615l-13.694 13.695c-6.58 6.58-16.367 8.773-25.125 5.629l-283.37-101.723c-6.019-2.161-11.656 3.912-9.095 9.772 7.228 16.537 21.796 43.603 46.671 65.402 42.743 72.106 110.116 68.265 110.116 68.265l54.163 42.385-135.142 61.023c-6.133 2.788-9.834 9.083-9.359 15.804 1.591 22.515 12.679 70.11 78.096 69.132 6.001-.09 11.505-3.533 14.19-8.901l29.436-59.338c51.197 17.746 144.009 26.803 185.982-115.106 3.243-10.964 11.158-19.963 21.74-24.292l.267-.109c13.825-5.656 22.857-19.11 22.857-34.046v-.502c0-16.958-13.747-30.705-30.704-30.705z" fill="#edf4ff"/><path d="m157.804 461.348c6.001-.09 11.505-3.533 14.19-8.901l29.436-59.338-27.813-12.81c-4.888-2.251-10.579-1.9-15.152.936l-70.285 43.578c9.495 19.141 29.144 37.14 69.624 36.535z" fill="#dbeaff"/><path d="m122.079 455.688c9.607 3.706 21.327 5.876 35.725 5.661 6.001-.09 11.505-3.533 14.19-8.901l29.436-59.338-18.92-8.714z" fill="#c3ddff"/><path d="m151.318 284.653 72.577-16.156 40.073 24.044c-72.131 64.117-112.65-7.888-112.65-7.888" fill="#c3ddff"/><path d="m156.292 239.239c-42.277.964-73.619-14.57-96.36-34.499 11.352 37.71 52.526 113.285 163.964 63.757l-12.443-9.954c-15.653-12.523-35.121-19.761-55.161-19.304z" fill="#dbeaff"/></g><g><path d="m399.703 228.423v-8.015c0-4.142-3.358-7.5-7.5-7.5s-7.5 3.358-7.5 7.5v8.015c0 4.143 3.358 7.5 7.5 7.5s7.5-3.357 7.5-7.5z"/><path d="m449.182 110.533c1.577.154 3.163.257 4.765.257 12.582 0 25.721-4.694 36.418-13.374 14.441-11.717 22.689-29.282 21.525-45.841-.221-3.149-2.39-5.822-5.426-6.688-15.965-4.549-34.852-.097-49.292 11.62-6.152 4.992-11.168 11.051-14.823 17.636-1.271-8.031-2.33-15.846-3.115-23.326-.432-4.119-4.125-7.107-8.241-6.677-4.12.432-7.109 4.122-6.677 8.241 2.221 21.177 6.456 44.659 11.656 68.255-7.607-5.347-16.713-9.089-26.481-10.621-19.243-3.018-38.684 2.877-50.739 15.382-2.191 2.272-2.724 5.674-1.334 8.508 7.648 15.597 24.352 27.16 43.593 30.179 3.333.522 6.67.778 9.976.778 12.173 0 23.882-3.478 33.181-9.809 6.154 24.204 12.799 47.359 18.75 66.979l-25.113-15.067c-5.071-15.157-19.394-26.115-36.248-26.115-21.731 0-42.251 7.828-58.373 22.125l-223.55-108.201c-2.335-1.13-5.087-.973-7.279.414-2.191 1.387-3.511 3.808-3.488 6.401.012 1.376.419 28.413 12.425 55.523l-111.257-39.938c-2.657-.954-5.625-.335-7.68 1.603-2.054 1.937-2.847 4.864-2.05 7.572.428 1.455 10.801 36.003 38.607 67.929 4.252 4.882 9.058 9.843 14.44 14.671 7.134 21.05 24.72 58.763 62.128 75.21 9.832 4.323 20.385 6.941 31.617 7.873 4.907 7.514 21.344 29.405 48.845 34.022 3.414.573 6.853.859 10.322.859 20.135 0 41.175-9.644 62.688-28.767 3.096-2.751 3.375-7.492.623-10.588s-7.492-3.374-10.588-.623c-21.608 19.208-41.941 27.399-60.437 24.346-14.817-2.446-25.837-11.79-32.505-19.241 18.721-1.428 39.06-6.984 60.897-16.69 3.785-1.682 5.49-6.114 3.808-9.899s-6.115-5.49-9.899-3.808c-39.372 17.499-72.792 20.454-99.332 8.785-21.576-9.487-35.572-27.468-44.365-43.92 26.424 15.718 61.853 25.456 107.973 17.317 4.079-.72 6.802-4.61 6.083-8.689-.72-4.08-4.615-6.8-8.689-6.083-53.549 9.451-97.948-5.435-131.96-44.242-15.087-17.214-24.757-35.613-30.208-47.995l282.839 101.532c11.434 4.104 24.373 1.207 32.962-7.384l13.694-13.694c13.812-13.812 32.176-21.419 51.726-21.419 12.794 0 23.204 10.409 23.204 23.204v.501c0 12.041-7.223 22.713-18.412 27.193-12.651 5.065-22.149 15.576-26.058 28.835-17.195 58.322-44.67 95.82-81.662 111.455-16.283 6.882-60.733 19.427-121.657-12.629-7.252-3.815-16.134-3.481-23.183.87l-62.338 38.49c-2.187-6.342-3.682-13.653-4.277-22.082-.257-3.639 1.698-6.955 4.981-8.447l78.726-35.784c3.771-1.714 5.438-6.161 3.724-9.932s-6.162-5.438-9.931-3.724l-78.726 35.784c-8.909 4.05-14.43 13.357-13.737 23.16.91 12.883 4.535 31.564 16.634 47.401 14.564 19.062 37.08 28.718 66.948 28.718.698 0 1.401-.005 2.106-.016 8.864-.133 16.829-5.132 20.786-13.046l26.728-53.456c14.665 4.556 31.914 8.083 50.2 8.082 15.849-.001 32.478-2.65 48.854-9.571 41.332-17.469 71.683-58.188 90.21-121.029 2.602-8.825 8.888-15.806 17.257-19.157 5.293-2.119 9.999-5.157 13.967-8.89l43.963-7.327c6.306 19.837 10.836 32.867 11.419 34.533 1.081 3.091 3.98 5.027 7.08 5.027.821 0 1.656-.136 2.475-.422 3.91-1.366 5.972-5.645 4.605-9.555-.371-1.061-29.52-84.919-46.278-163.504zm17.441-42.377c9.006-7.307 20.125-10.864 30.181-9.885-1.112 10.04-6.884 20.19-15.891 27.498-9.006 7.307-20.122 10.866-30.181 9.885 1.113-10.04 6.885-20.191 15.891-27.498zm-63.288 81.11c-12.34-1.936-23.191-8.33-29.553-17.152 8.757-6.45 21.046-9.214 33.385-7.278 12.34 1.936 23.19 8.329 29.553 17.151-8.757 6.449-21.043 9.214-33.385 7.279zm-95.076 74.963-165.905-59.556c-11.271-17.37-15.69-37.824-17.402-50.661l206.831 100.108-6.236 6.235c-4.505 4.507-11.29 6.027-17.288 3.874zm-210.216 203.11 63.643-39.296c2.554-1.577 5.74-1.714 8.317-.358.025.013.052.027.077.04l-50.206 58.67c-8.26-4.026-15.955-10.083-21.831-19.056zm67.242 21.755c-1.421 2.841-4.401 4.708-7.594 4.755-6.635.101-14.52-.376-22.577-2.193l48.979-57.237c2.23.967 4.589 1.945 7.07 2.917zm271.847-214.389c1.075-2.976 1.836-6.089 2.256-9.297l11.635 6.981z"/></g></g></svg>