<svg id="Capa_1" enable-background="new 0 0 512 512" height="512" viewBox="0 0 512 512" width="512" xmlns="http://www.w3.org/2000/svg"><g><g><g><path d="m361.901 128.265h-1.673c-29.549 0-56.411-16.452-70.565-42.391-25.482-46.696-75.009-78.374-131.938-78.374-82.967 0-150.225 67.282-150.225 150.278v336.722c0 5.523 4.477 10 10 10h477c5.523 0 10-4.477 10-10v-223.586c0-78.783-63.844-142.649-142.599-142.649z" fill="#688d97"/><path d="m504.5 270.91v223.59c0 5.52-4.48 10-10 10h-49.06c5.52 0 10-4.48 10-10v-214.59c0-78.78-63.85-142.65-142.6-142.65h-1.68c-29.55 0-56.41-16.45-70.56-42.39-25.48-46.69-75.01-78.37-131.94-78.37-.77 0-1.54.01-2.3.02 16.03-5.84 33.33-9.02 51.37-9.02 56.92 0 106.45 31.68 131.93 78.37 14.16 25.94 41.02 42.39 70.57 42.39h1.67c78.76 0 142.6 63.87 142.6 142.65z" fill="#557983"/><path d="m40.268 384.031v-29.351c0-5.523 4.477-10 10-10h411.464c5.523 0 10 4.477 10 10v29.351z" fill="#fcc16d"/><path d="m471.73 354.68v29.35h-23.97v-29.35c0-5.52-4.48-10-10-10h23.97c5.52 0 10 4.48 10 10z" fill="#fca62f"/><g><g><g><path d="m40.268 384.031h47.94v120.469h-47.94z" fill="#eef4f5"/></g><g><path d="m64.238 384.031h23.97v120.469h-23.97z" fill="#cbe5e7"/></g></g><g><g><path d="m88.208 384.031h47.94v120.469h-47.94z" fill="#eef4f5"/></g><g><path d="m112.179 384.031h23.97v120.469h-23.97z" fill="#cbe5e7"/></g></g><g><g><path d="m136.149 384.031h47.94v120.469h-47.94z" fill="#eef4f5"/></g><g><path d="m160.119 384.031h23.97v120.469h-23.97z" fill="#cbe5e7"/></g></g><g><g><path d="m184.089 384.031h47.94v120.469h-47.94z" fill="#eef4f5"/></g><g><path d="m208.06 384.031h23.97v120.469h-23.97z" fill="#cbe5e7"/></g></g><g><g><path d="m232.03 384.031h47.94v120.469h-47.94z" fill="#eef4f5"/></g><g><path d="m256 384.031h23.97v120.469h-23.97z" fill="#cbe5e7"/></g></g><g><g><path d="m279.97 384.031h47.94v120.469h-47.94z" fill="#eef4f5"/></g><g><path d="m303.94 384.031h23.97v120.469h-23.97z" fill="#cbe5e7"/></g></g><g><g><path d="m327.911 384.031h47.94v120.469h-47.94z" fill="#eef4f5"/></g><g><path d="m351.881 384.031h23.97v120.469h-23.97z" fill="#cbe5e7"/></g></g><g><g><path d="m375.851 384.031h47.94v120.469h-47.94z" fill="#eef4f5"/></g><g><path d="m399.821 384.031h23.97v120.469h-23.97z" fill="#cbe5e7"/></g></g><g><g><path d="m423.792 384.031h47.94v120.469h-47.94z" fill="#eef4f5"/></g><g><path d="m447.762 384.031h23.97v120.469h-23.97z" fill="#cbe5e7"/></g></g><g><g><path d="m101.127 452.44v-68.409h-25.837v68.409c0 2.939 2.382 5.321 5.319 5.321h15.198c2.938 0 5.32-2.382 5.32-5.321z" fill="#384848"/></g></g><g><g><path d="m149.067 452.44v-68.409h-25.836v68.409c0 2.939 2.382 5.321 5.319 5.321h15.198c2.937 0 5.319-2.382 5.319-5.321z" fill="#384848"/></g></g><g><g><path d="m197.007 452.44v-68.409h-25.836v68.409c0 2.939 2.382 5.321 5.319 5.321h15.198c2.938 0 5.319-2.382 5.319-5.321z" fill="#384848"/></g></g><g><g><path d="m292.888 452.44v-68.409h-25.836v68.409c0 2.939 2.382 5.321 5.319 5.321h15.198c2.938 0 5.319-2.382 5.319-5.321z" fill="#384848"/></g></g><g><g><path d="m340.829 452.44v-68.409h-25.836v68.409c0 2.939 2.382 5.321 5.319 5.321h15.198c2.937 0 5.319-2.382 5.319-5.321z" fill="#384848"/></g></g><g><g><path d="m436.71 452.44v-68.409h-25.836v68.409c0 2.939 2.382 5.321 5.319 5.321h15.198c2.937 0 5.319-2.382 5.319-5.321z" fill="#384848"/></g></g></g></g></g><g><g><path d="m7.5 314.215c4.142 0 7.5-3.358 7.5-7.5v-148.937c0-78.728 64.026-142.778 142.726-142.778 52.256 0 100.289 28.534 125.354 74.467 15.584 28.558 45.146 46.298 77.149 46.298h1.673c30.985 0 60.133 10.214 84.293 29.538 3.236 2.587 7.955 2.063 10.542-1.172s2.062-7.954-1.173-10.542c-26.848-21.474-59.235-32.824-93.662-32.824h-1.673c-26.512 0-51.028-14.746-63.981-38.484-27.697-50.753-80.775-82.281-138.523-82.281-86.97 0-157.725 70.779-157.725 157.778v148.937c0 4.142 3.358 7.5 7.5 7.5z"/><path d="m482.601 181.653c-2.465-3.329-7.161-4.029-10.49-1.566-3.329 2.464-4.03 7.161-1.566 10.491 17.307 23.382 26.455 51.162 26.455 80.336v223.586c0 1.378-1.121 2.5-2.5 2.5h-15.268v-142.32c0-9.649-7.851-17.5-17.5-17.5h-342.745c-4.142 0-7.5 3.358-7.5 7.5s3.358 7.5 7.5 7.5h342.746c1.379 0 2.5 1.122 2.5 2.5v21.851h-416.465v-21.851c0-1.378 1.122-2.5 2.5-2.5h31.692c4.142 0 7.5-3.358 7.5-7.5s-3.358-7.5-7.5-7.5h-31.692c-9.649 0-17.5 7.851-17.5 17.5v142.32h-15.268c-1.378 0-2.5-1.122-2.5-2.5v-150.759c0-4.142-3.358-7.5-7.5-7.5s-7.5 3.358-7.5 7.5v150.759c0 9.649 7.851 17.5 17.5 17.5h477c9.649 0 17.5-7.851 17.5-17.5v-223.586c0-32.411-10.166-63.277-29.399-89.261zm-53.391 268.608h-10.837v-58.73h10.837zm-95.881 0h-10.837v-58.73h10.837zm-47.94 0h-10.837v-58.73h10.837zm-95.882 0h-10.836v-58.73h10.836zm-47.94 0h-10.836v-58.73h10.836zm-47.941 0h-10.835v-58.73h10.836v58.73zm-45.858-58.73h20.022v60.909c0 7.07 5.75 12.821 12.819 12.821h.099v31.739h-32.94zm47.94 73.73h.099c7.069 0 12.819-5.751 12.819-12.821v-60.909h7.104v60.909c0 7.07 5.75 12.821 12.819 12.821h.099v31.739h-32.94zm47.941 0h.099c7.069 0 12.819-5.751 12.819-12.821v-60.909h7.104v60.909c0 7.07 5.75 12.821 12.819 12.821h.099v31.739h-32.94zm47.94 0h.099c7.069 0 12.819-5.751 12.819-12.821v-60.909h20.022v105.469h-32.94zm47.941-73.73h20.022v60.909c0 7.07 5.751 12.821 12.819 12.821h.1v31.739h-32.941zm47.941 73.73h.099c7.068 0 12.819-5.751 12.819-12.821v-60.909h7.104v60.909c0 7.07 5.751 12.821 12.819 12.821h.1v31.739h-32.94v-31.739zm47.94 0h.099c7.068 0 12.819-5.751 12.819-12.821v-60.909h20.022v105.469h-32.94zm47.941-73.73h20.021v60.909c0 7.07 5.751 12.821 12.819 12.821h.1v31.739h-32.94zm47.94 73.73h.099c7.068 0 12.819-5.751 12.819-12.821v-60.909h20.022v105.469h-32.94z"/><path d="m213.269 306.195c-4.142 0-7.5 3.358-7.5 7.5s3.358 7.5 7.5 7.5h85.463c4.143 0 7.5-3.358 7.5-7.5s-3.357-7.5-7.5-7.5z"/></g></g></g></svg>