<?xml version="1.0" encoding="iso-8859-1"?>
<!-- Generator: Adobe Illustrator 21.0.0, SVG Export Plug-In . SVG Version: 6.00 Build 0)  -->
<svg xmlns="http://www.w3.org/2000/svg" xmlns:xlink="http://www.w3.org/1999/xlink" version="1.1" id="Capa_1" x="0px" y="0px" viewBox="0 0 513.021 513.021" style="enable-background:new 0 0 513.021 513.021;" xml:space="preserve" width="512" height="512">
<g>
	<g>
		<g>
			<path style="fill:#5D5E69;" d="M371.508,505.145h-230l0-176.138c13.561-5.584,28.42-8.664,44-8.664h143     c15.206,0,29.721,2.955,43,8.32L371.508,505.145z"/>
		</g>
		<path style="fill:#484854;" d="M328.508,320.343h-143c0,0,0,0,0,0l139,12.302c19,0,29.721,7.152,43,12.518l0,159.982h4l0-176.482    C358.229,323.297,343.714,320.343,328.508,320.343z"/>
		<g>
			<path style="fill:#FFDDCF;" d="M70.013,435.663v64.482c0,2.761,2.239,5,5,5h70.117V327.593     C101.258,343.943,70.013,386.157,70.013,435.663z"/>
			<path style="fill:#FFDDCF;" d="M367.886,327.271v177.874h70.316c2.761,0,5-2.239,5-5v-65.282l0,0     C443.202,385.429,411.832,343.311,367.886,327.271z"/>
			<path style="fill:#FFCBBE;" d="M367.886,327.271v17.477c26.746,20.965,43.938,53.53,43.938,90.115v65.282c0,2.761-2.239,5-5,5     h31.378c2.761,0,5-2.239,5-5v-65.282C443.202,385.429,411.832,343.311,367.886,327.271z"/>
		</g>
		<path style="fill:#FFDDCF;" d="M256.508,84.935L256.508,84.935c-55.607,0-100.685,45.078-100.685,100.685v10.025h-4.315    c-13.255,0-24,10.745-24,24s10.745,24,24,24h4.315v2.472v15.045c0,55.606,45.078,100.684,100.685,100.684h0    c55.607,0,100.685-45.078,100.685-100.684V214.13v-28.51C357.193,130.013,312.115,84.935,256.508,84.935z"/>
		<path style="fill:#FFCBBE;" d="M359.508,195.645h-2.315V185.62c0-55.607-45.078-100.685-100.685-100.685h0    c-5.326,0-10.555,0.417-15.657,1.214c48.17,7.522,85.027,49.19,85.027,99.471v28.51v47.032c0,50.28-36.857,91.949-85.027,99.471    c5.103,0.797,10.331,1.214,15.657,1.214h0c55.607,0,100.685-45.078,100.685-100.684v-17.728l2.315,0.21c13.255,0,24-10.745,24-24    S372.763,195.645,359.508,195.645z"/>
		<path style="fill:#FF6054;" d="M285.099,94.652c0,15.79-12.801,28.591-28.591,28.591s-28.591-12.801-28.591-28.591    s28.591-86.194,28.591-86.194S285.099,78.862,285.099,94.652z"/>
	</g>
	<g>
		<path d="M409.409,161.145c1.834,0,3.672-0.669,5.118-2.019l52.1-48.663c3.974-3.713,2.653-10.524-2.423-12.479l-28.289-10.901    l74.368-73.607c6.861-6.789-3.681-17.461-10.552-10.66L417.121,84.58c-3.801,3.762-2.411,10.405,2.579,12.328l27.938,10.766    l-43.349,40.489C399.454,152.68,402.729,161.145,409.409,161.145z"/>
		<path d="M77.1,87.082L48.811,97.984c-5.076,1.955-6.397,8.766-2.423,12.479l52.1,48.663c7.029,6.559,17.317-4.35,10.239-10.963    l-43.349-40.489l27.938-10.766c4.99-1.923,6.38-8.566,2.579-12.328L13.284,2.815C10.34-0.099,5.591-0.074,2.678,2.868    c-2.914,2.944-2.889,7.693,0.055,10.606L77.1,87.082z"/>
		<path d="M450.702,497.475c0-23.445,1.25-47.159-0.254-70.541c-1.859-28.895-14.036-56.271-34.287-77.088    c-17.721-18.215-40.641-30.41-65.411-34.979c11.761-20.587,14.97-42.442,15.332-64.417c14.224-3.032,24.927-15.69,24.927-30.805    c0-15.603-11.405-28.585-26.315-31.066c0.243-47.227-28.516-90.417-73.967-105.601c-5.783-23.857-23.226-67.385-27.27-77.342    c-2.469-6.08-11.426-6.085-13.897,0c-4.044,9.958-21.49,53.494-27.271,77.349c-10.711,3.571-20.771,8.765-29.913,15.501    c-7.665,5.647,0.971,17.916,8.897,12.076c6.064-4.468,12.595-8.147,19.486-11.012c2.399,17.591,17.511,31.192,35.749,31.192    c18.233,0,33.342-13.594,35.747-31.177c15.182,6.342,28.686,16.741,38.662,29.949c11.282,14.938,17.663,32.526,18.631,51.133    c-1.047,26.639,2.923,53.121,1.148,79.734c-2.105,31.571-15.182,58.1-40.436,77.317c-28.145,21.417-71.49,22.553-101.497,4.094    c-24.176-14.872-41.104-40.144-44.402-68.363c-1.666-14.249-0.898-28.669-1.103-42.98c-0.231-16.162-1.026-32.332-0.256-48.493    c0.722-17.324,7.209-35.424,18.267-50.964c5.596-7.865-6.585-16.615-12.222-8.697c-14.032,19.72-20.619,42.061-21.29,66.08    c-15.607,1.861-27.75,15.17-27.75,31.269c0,16.168,12.247,29.524,27.95,31.294c0.024,22.416,3.002,44.455,14.52,64.063    c-25.779,4.878-49.363,17.889-67.39,37.401c-21.006,22.736-32.575,52.306-32.575,83.26v69.482c0,4.066,3.398,7.48,7.464,7.5    c52.85,0.25,107.161,0.376,161.424,0.376c54.263,0,108.48-0.126,161.142-0.376c9.689-0.046,9.643-15-0.071-15    c-5.675,0.027-11.377,0.052-17.086,0.076V338.621c11.098,5.395,21.283,12.7,30.022,21.684    c17.761,18.257,28.44,42.262,30.07,67.592c1.491,23.178-0.169,46.528,0.225,69.748h-10.906c-9.653,0-9.719,15,0,15h13.29    C449.233,513.488,451.06,507.147,450.702,497.475z M256.508,115.743c-11.629,0-21.091-9.461-21.091-21.091    c0-8.382,11.104-39.884,21.091-65.789c9.987,25.903,21.091,57.404,21.091,65.789C277.599,106.282,268.137,115.743,256.508,115.743    z M376.008,219.645c0,6.817-4.156,12.681-10.068,15.194c-0.172-5.747-0.444-11.484-0.716-17.19    c-0.193-4.051-0.378-8.03-0.531-11.965v-1.691C371.256,206.172,376.008,212.359,376.008,219.645z M135.008,219.645    c0-7.744,5.37-14.241,12.576-16.009c0.024,8.772,0.217,17.572,0.413,26.215c0.045,1.983,0.089,3.964,0.132,5.943    C140.646,234.23,135.008,227.584,135.008,219.645z M106.105,362.581c9.088-9.836,19.783-17.79,31.525-23.594v158.906    c-20.184-0.054-40.245-0.126-60.117-0.215v-62.015C77.513,408.493,87.667,382.538,106.105,362.581z M360.386,497.78    c-68.262,0.256-138.563,0.307-207.756,0.151V332.935c6.261-1.994,12.726-3.421,19.327-4.246c0.569,0.703,1.155,1.397,1.743,2.089    l-11.264,10.342c-7.061,6.482,2.98,17.628,10.145,11.049l11.528-10.584c6.795,6.255,14.11,11.796,22.287,16.128l-11.528,24.766    c-4.072,8.747,9.492,15.156,13.599,6.33l11.701-25.139c9.219,3.173,19.093,5.268,28.84,5.776v25.198c0,9.631,15,9.702,15,0    v-25.531c9.406-0.739,18.682-1.972,27.701-4.859l10.841,23.29c4.035,8.671,17.701,2.481,13.599-6.33l-10.577-22.723    c8.405-4.377,16.011-10.228,23.129-16.449l9.678,9.073c6.977,6.539,17.349-4.296,10.26-10.943l-9.269-8.691    c0.28-0.318,0.559-0.636,0.834-0.957c0.399-0.466,0.74-0.979,1.014-1.526c0.057-0.113,0.127-0.24,0.193-0.363    c6.465,0.776,12.814,2.137,18.977,4.056V497.78z"/>
		<path d="M272.515,225.146c1.405,0,2.826-0.395,4.09-1.219l48.473-31.611c8.086-5.273-0.053-17.873-8.193-12.564l-48.473,31.611    C262.341,215.321,265.198,225.146,272.515,225.146z"/>
		<path d="M190.148,192.307l48.25,31.611c8.093,5.299,16.295-7.257,8.221-12.547l-48.25-31.611    C190.293,174.471,182.018,186.981,190.148,192.307z"/>
		<path d="M362.752,66.145h14.158l-18.3,40.679c-3.957,8.796,9.681,15.041,13.68,6.154l23.058-51.256    c2.193-4.877-1.492-10.577-6.84-10.577H374.63l19.296-40.532c4.151-8.715-9.365-15.222-13.543-6.447l-24.402,51.256    C353.652,60.311,357.337,66.145,362.752,66.145z"/>
		<path d="M139.376,113.734c3.972,8.828,17.663,2.7,13.68-6.154l-18.3-40.679h14.158c5.415,0,9.1-5.834,6.771-10.724L131.283,4.921    c-1.78-3.74-6.254-5.327-9.996-3.548c-3.74,1.78-5.328,6.256-3.547,9.995l19.296,40.532h-13.878c-5.348,0-9.033,5.7-6.84,10.577    L139.376,113.734z"/>
		<path d="M95.841,228.022c8.112,0,10.232-11.643,2.662-14.514l-41.704-15.824l10.011-10.011c3.829-3.83,2.309-10.56-2.794-12.372    l-53.499-18.988c-9.099-3.224-14.176,10.885-5.018,14.137l42.305,15.015l-9.813,9.813c-3.78,3.781-2.358,10.419,2.643,12.315    l52.548,19.938C94.057,227.865,94.956,228.022,95.841,228.022z"/>
		<path d="M502.499,156.313l-53.499,18.988c-5.104,1.812-6.623,8.542-2.794,12.372l10.011,10.011l-41.704,15.824    c-9.031,3.425-3.744,17.47,5.321,14.023l52.548-19.938c5.001-1.897,6.423-8.534,2.643-12.315l-9.813-9.813l42.305-15.015    C516.614,167.22,511.659,153.063,502.499,156.313z"/>
	</g>
</g>















</svg>
