<?xml version="1.0" encoding="utf-8"?>
<!-- Generator: Adobe Illustrator 16.0.0, SVG Export Plug-In . SVG Version: 6.00 Build 0)  -->
<!DOCTYPE svg PUBLIC "-//W3C//DTD SVG 1.1//EN" "http://www.w3.org/Graphics/SVG/1.1/DTD/svg11.dtd">
<svg version="1.1" id="Capa_1" xmlns="http://www.w3.org/2000/svg" xmlns:xlink="http://www.w3.org/1999/xlink" x="0px" y="0px"
	 width="800px" height="800px" viewBox="0 0 800 800" enable-background="new 0 0 800 800" xml:space="preserve">
<g>
	<path fill="#FFFFFF" d="M116.129,645.161h658.064V154.839H25.807v490.322h38.709c7.128,0,12.903,5.775,12.903,12.903h25.806
		C103.226,650.937,109.001,645.161,116.129,645.161z M229.182,568.648c-2.032,1.174-4.251,1.731-6.44,1.731
		c-4.459,0-8.796-2.314-11.186-6.454l-15.269-26.446c-3.563-6.171-1.448-14.063,4.723-17.626c6.168-3.56,14.064-1.45,17.626,4.723
		l15.269,26.446C237.468,557.194,235.353,565.086,229.182,568.648z M190.269,514.135c-4.459,0-8.796-2.313-11.186-6.453
		l-15.269-26.446c-3.563-6.171-1.449-14.063,4.722-17.626c6.168-3.562,14.065-1.45,17.626,4.723l15.269,26.446
		c3.563,6.171,1.448,14.063-4.723,17.626C194.677,513.577,192.458,514.135,190.269,514.135z M258.98,551.444
		c-2.032,1.174-4.251,1.73-6.44,1.73c-4.459,0-8.796-2.313-11.186-6.453l-47.742-82.69c-3.563-6.172-1.449-14.063,4.722-17.626
		c6.169-3.563,14.065-1.45,17.626,4.723l47.742,82.69C267.267,539.989,265.151,547.881,258.98,551.444z M547.46,553.175
		c-2.188,0-4.408-0.558-6.439-1.73c-6.172-3.563-8.286-11.455-4.723-17.626l15.269-26.446c3.562-6.173,11.451-8.286,17.626-4.723
		c6.171,3.563,8.285,11.455,4.723,17.626l-15.269,26.446C556.256,550.861,551.919,553.175,547.46,553.175z M568.771,477.574
		l15.269-26.446c3.562-6.175,11.452-8.287,17.626-4.723c6.172,3.563,8.286,11.454,4.723,17.626l-15.269,26.446
		c-2.39,4.14-6.727,6.453-11.187,6.453c-2.188,0-4.407-0.558-6.439-1.73C567.322,491.637,565.206,483.745,568.771,477.574z
		 M573.493,304.8c6.17-3.56,14.064-1.448,17.626,4.723l15.269,26.446c3.563,6.171,1.449,14.063-4.723,17.626
		c-2.031,1.173-4.251,1.731-6.439,1.731c-4.459,0-8.796-2.314-11.187-6.454l-15.269-26.446
		C565.206,316.255,567.322,308.363,573.493,304.8z M613.838,468.332c3.561-6.173,11.449-8.287,17.625-4.723
		c6.172,3.563,8.286,11.455,4.723,17.626l-15.269,26.446c-2.39,4.14-6.727,6.453-11.187,6.453c-2.188,0-4.407-0.558-6.439-1.73
		c-6.171-3.563-8.285-11.455-4.723-17.626L613.838,468.332z M577.258,570.379c-2.188,0-4.408-0.557-6.439-1.73
		c-6.172-3.563-8.286-11.454-4.723-17.626l15.269-26.446c3.56-6.173,11.449-8.284,17.626-4.723
		c6.171,3.563,8.285,11.455,4.723,17.626l-15.27,26.446C586.056,568.065,581.717,570.379,577.258,570.379z M633.513,554.684
		l-15.27,26.446c-2.39,4.14-6.727,6.454-11.186,6.454c-2.188,0-4.408-0.558-6.44-1.731c-6.171-3.563-8.285-11.454-4.723-17.625
		l15.27-26.447c3.562-6.174,11.449-8.283,17.626-4.723C634.961,540.621,637.077,548.513,633.513,554.684z M665.985,498.439
		l-15.269,26.446c-2.39,4.14-6.728,6.453-11.187,6.453c-2.188,0-4.407-0.557-6.439-1.73c-6.171-3.563-8.286-11.454-4.723-17.626
		l15.269-26.446c3.562-6.173,11.449-8.285,17.626-4.723C667.434,484.377,669.55,492.269,665.985,498.439z M650.717,275.114
		l15.269,26.446c3.563,6.171,1.448,14.063-4.723,17.625c-2.031,1.173-4.251,1.731-6.439,1.731c-4.459,0-8.797-2.314-11.187-6.453
		l-15.269-26.447c-3.563-6.171-1.448-14.063,4.723-17.625C639.259,266.832,647.155,268.943,650.717,275.114z M600.617,214.147
		c6.168-3.563,14.063-1.45,17.626,4.723l15.27,26.447c3.563,6.171,1.448,14.063-4.723,17.625c-2.032,1.173-4.252,1.731-6.44,1.731
		c-4.459,0-8.796-2.314-11.186-6.454l-15.27-26.446C592.332,225.602,594.446,217.71,600.617,214.147z M570.818,231.352
		c6.167-3.562,14.064-1.45,17.625,4.723l47.742,82.69c3.563,6.171,1.449,14.063-4.723,17.626c-2.031,1.173-4.251,1.73-6.439,1.73
		c-4.459,0-8.797-2.314-11.186-6.453l-47.742-82.691C562.532,242.806,564.646,234.915,570.818,231.352z M541.021,248.556
		c6.169-3.562,14.064-1.45,17.626,4.723l15.269,26.446c3.563,6.171,1.448,14.063-4.723,17.626c-2.032,1.173-4.251,1.73-6.439,1.73
		c-4.46,0-8.797-2.313-11.187-6.453l-15.269-26.446C532.732,260.01,534.849,252.119,541.021,248.556z M400,258.064
		c78.263,0,141.936,63.673,141.936,141.936c0,78.263-63.673,141.936-141.936,141.936S258.064,478.263,258.064,400
		C258.064,321.738,321.737,258.064,400,258.064z M258.98,248.556c6.171,3.563,8.286,11.455,4.722,17.626l-47.742,82.69
		c-2.39,4.14-6.727,6.454-11.186,6.454c-2.188,0-4.408-0.558-6.44-1.731c-6.171-3.563-8.286-11.455-4.723-17.625l47.742-82.691
		C244.915,247.105,252.805,244.991,258.98,248.556z M229.182,231.352c6.171,3.563,8.286,11.455,4.722,17.625l-47.742,82.691
		c-2.39,4.139-6.727,6.453-11.186,6.453c-2.188,0-4.408-0.557-6.44-1.73c-6.171-3.563-8.286-11.455-4.722-17.626l47.742-82.69
		C215.116,229.901,223.005,227.787,229.182,231.352z M134.015,301.561l47.742-82.691c3.562-6.173,11.452-8.287,17.626-4.723
		c6.171,3.563,8.286,11.455,4.723,17.626l-47.742,82.691c-2.39,4.139-6.727,6.453-11.187,6.453c-2.188,0-4.408-0.558-6.439-1.731
		C132.566,315.623,130.45,307.731,134.015,301.561z M138.737,480.813c6.169-3.561,14.064-1.45,17.626,4.723l47.742,82.691
		c3.563,6.171,1.449,14.063-4.723,17.625c-2.032,1.174-4.251,1.731-6.439,1.731c-4.459,0-8.796-2.314-11.187-6.454l-47.742-82.69
		C130.45,492.269,132.566,484.377,138.737,480.813z"/>
	<path d="M787.097,129.032H12.903C5.775,129.032,0,134.808,0,141.936v516.129c0,7.128,5.775,12.903,12.903,12.903h51.613
		c7.128,0,12.903-5.775,12.903-12.903s-5.775-12.903-12.903-12.903H25.807V154.839h748.387v490.322H116.129
		c-7.127,0-12.903,5.775-12.903,12.903s5.776,12.903,12.903,12.903h670.968c7.128,0,12.903-5.775,12.903-12.903V141.936
		C800,134.808,794.225,129.032,787.097,129.032z"/>
	<path fill="#103B9B" d="M400,517.129c-64.585,0-117.129-52.544-117.129-117.129v-1h234.258v1
		C517.129,464.585,464.585,517.129,400,517.129z"/>
	<path fill="#103B9B" d="M400,516.129c64.034,0,116.129-52.095,116.129-116.129H283.871
		C283.871,464.034,335.966,516.129,400,516.129z"/>
	<path fill="#ED1F34" d="M282.871,401v-1c0-64.585,52.544-117.129,117.129-117.129S517.129,335.415,517.129,400v1H282.871z"/>
	<path fill="#ED1F34" d="M516.129,400c0-64.034-52.095-116.129-116.129-116.129S283.871,335.966,283.871,400H516.129z"/>
	<path d="M400,541.936c78.263,0,141.936-63.673,141.936-141.936c0-78.262-63.673-141.936-141.936-141.936
		S258.064,321.738,258.064,400C258.064,478.263,321.737,541.936,400,541.936z M400,283.871c64.034,0,116.129,52.095,116.129,116.129
		S464.034,516.129,400,516.129S283.871,464.034,283.871,400S335.966,283.871,400,283.871z"/>
	<path d="M138.737,319.186c2.033,1.173,4.251,1.731,6.439,1.731c4.459,0,8.796-2.314,11.187-6.453l47.742-82.691
		c3.563-6.171,1.449-14.063-4.723-17.626c-6.174-3.564-14.064-1.45-17.626,4.723l-47.742,82.691
		C130.45,307.731,132.566,315.623,138.737,319.186z"/>
	<path d="M198.334,353.595c2.034,1.173,4.251,1.731,6.44,1.731c4.459,0,8.796-2.314,11.186-6.454l47.742-82.69
		c3.563-6.171,1.449-14.063-4.722-17.626c-6.175-3.563-14.065-1.45-17.626,4.723l-47.742,82.69
		C190.049,342.14,192.164,350.032,198.334,353.595z"/>
	<path d="M168.537,336.391c2.034,1.173,4.251,1.73,6.44,1.73c4.459,0,8.796-2.314,11.186-6.453l47.742-82.691
		c3.563-6.171,1.449-14.063-4.722-17.625c-6.176-3.563-14.066-1.451-17.626,4.723l-47.742,82.69
		C160.251,324.936,162.366,332.828,168.537,336.391z"/>
	<path d="M628.79,537.058c-6.177-3.561-14.064-1.451-17.626,4.723l-15.269,26.447c-3.563,6.171-1.449,14.063,4.722,17.625
		c2.034,1.174,4.252,1.731,6.44,1.731c4.459,0,8.796-2.314,11.186-6.454l15.27-26.446
		C637.077,548.513,634.961,540.621,628.79,537.058z"/>
	<path d="M661.263,480.813c-6.176-3.563-14.064-1.45-17.626,4.723l-15.269,26.446c-3.563,6.172-1.448,14.063,4.723,17.626
		c2.033,1.174,4.251,1.73,6.439,1.73c4.46,0,8.797-2.313,11.187-6.453l15.269-26.446
		C669.55,492.269,667.434,484.377,661.263,480.813z"/>
	<path d="M569.192,502.649c-6.175-3.563-14.064-1.45-17.626,4.723l-15.269,26.446c-3.563,6.171-1.449,14.063,4.723,17.626
		c2.033,1.174,4.251,1.73,6.439,1.73c4.459,0,8.796-2.313,11.187-6.453l15.269-26.446
		C577.478,514.104,575.363,506.213,569.192,502.649z"/>
	<path d="M573.493,495.2c2.034,1.173,4.251,1.73,6.439,1.73c4.46,0,8.797-2.313,11.187-6.453l15.269-26.446
		c3.563-6.172,1.449-14.063-4.723-17.626c-6.174-3.564-14.064-1.452-17.625,4.723l-15.27,26.446
		C565.206,483.745,567.322,491.637,573.493,495.2z"/>
	<path d="M598.99,519.854c-6.177-3.562-14.066-1.45-17.626,4.723l-15.269,26.446c-3.563,6.172-1.449,14.063,4.723,17.626
		c2.033,1.174,4.251,1.731,6.439,1.731c4.459,0,8.797-2.314,11.187-6.454l15.269-26.446
		C607.275,531.309,605.161,523.417,598.99,519.854z"/>
	<path d="M603.291,512.404c2.034,1.173,4.251,1.73,6.439,1.73c4.46,0,8.797-2.313,11.187-6.453l15.269-26.446
		c3.563-6.171,1.449-14.063-4.723-17.626c-6.176-3.564-14.064-1.45-17.625,4.723l-15.27,26.446
		C595.006,500.949,597.12,508.841,603.291,512.404z"/>
	<path d="M611.164,258.219c2.39,4.14,6.727,6.454,11.187,6.454c2.188,0,4.409-0.558,6.439-1.731
		c6.171-3.563,8.285-11.455,4.723-17.625l-15.27-26.447c-3.563-6.173-11.458-8.286-17.625-4.723
		c-6.172,3.563-8.286,11.455-4.723,17.626L611.164,258.219z"/>
	<path d="M628.368,288.017l15.269,26.447c2.39,4.139,6.728,6.453,11.187,6.453c2.188,0,4.409-0.558,6.439-1.731
		c6.171-3.563,8.286-11.455,4.723-17.625l-15.269-26.446c-3.562-6.171-11.458-8.282-17.626-4.723
		C626.92,273.955,624.805,281.846,628.368,288.017z"/>
	<path d="M551.566,292.628c2.39,4.14,6.727,6.453,11.187,6.453c2.188,0,4.409-0.557,6.439-1.73
		c6.171-3.563,8.285-11.455,4.723-17.626l-15.269-26.446c-3.562-6.173-11.457-8.284-17.626-4.723
		c-6.172,3.563-8.286,11.455-4.723,17.626L551.566,292.628z"/>
	<path d="M584.039,348.872c2.391,4.14,6.728,6.454,11.187,6.454c2.188,0,4.409-0.558,6.439-1.731
		c6.172-3.563,8.286-11.455,4.723-17.625l-15.269-26.447c-3.562-6.171-11.456-8.282-17.626-4.723
		c-6.171,3.563-8.285,11.455-4.723,17.626L584.039,348.872z"/>
	<path d="M613.838,331.668c2.39,4.139,6.727,6.453,11.186,6.453c2.188,0,4.41-0.557,6.439-1.73
		c6.172-3.563,8.286-11.455,4.723-17.626l-47.741-82.69c-3.562-6.173-11.458-8.284-17.626-4.723
		c-6.172,3.563-8.286,11.455-4.723,17.625L613.838,331.668z"/>
	<path d="M181.756,581.13c2.39,4.14,6.727,6.454,11.187,6.454c2.188,0,4.409-0.558,6.439-1.731
		c6.171-3.563,8.286-11.454,4.723-17.625l-47.742-82.691c-3.562-6.173-11.457-8.283-17.626-4.723
		c-6.171,3.563-8.286,11.455-4.723,17.626L181.756,581.13z"/>
	<path d="M215.96,451.128c-3.562-6.173-11.457-8.286-17.626-4.723c-6.171,3.563-8.286,11.454-4.723,17.626l47.742,82.69
		c2.39,4.14,6.727,6.453,11.186,6.453c2.188,0,4.41-0.558,6.44-1.73c6.171-3.563,8.285-11.455,4.722-17.626L215.96,451.128z"/>
	<path d="M218.636,524.576c-3.562-6.173-11.458-8.282-17.626-4.723c-6.171,3.563-8.286,11.455-4.723,17.626l15.269,26.446
		c2.39,4.14,6.727,6.454,11.186,6.454c2.188,0,4.41-0.558,6.44-1.731c6.171-3.563,8.285-11.454,4.722-17.626L218.636,524.576z"/>
	<path d="M201.432,494.778l-15.269-26.446c-3.562-6.173-11.458-8.284-17.626-4.723c-6.171,3.563-8.286,11.455-4.722,17.626
		l15.269,26.446c2.39,4.14,6.727,6.453,11.186,6.453c2.188,0,4.41-0.558,6.44-1.73C202.88,508.841,204.995,500.949,201.432,494.778z
		"/>
</g>
</svg>
