<?xml version="1.0" encoding="iso-8859-1"?>
<!-- Generator: Adobe Illustrator 19.0.0, SVG Export Plug-In . SVG Version: 6.00 Build 0)  -->
<svg version="1.1" id="Capa_1" xmlns="http://www.w3.org/2000/svg" xmlns:xlink="http://www.w3.org/1999/xlink" x="0px" y="0px"
	 viewBox="0 0 511.999 511.999" style="enable-background:new 0 0 511.999 511.999;" xml:space="preserve">
<path style="fill:#FED9A8;" d="M489.824,221.327l8.8-18.725c12.63-26.875,4.392-58.932-19.629-76.388l0,0
	c-43.271-31.446-95.01-49.128-148.476-50.742l0,0c-29.681-0.896-55.815,19.415-62.275,48.398l-4.501,20.193
	c-2.637,11.832-7.571,23.031-14.523,32.962l0,0c-14.717,21.025-20.05,47.215-14.727,72.321l15.609,87.191
	c4.142,23.139,20.511,42.209,42.755,49.811l12.829,4.384l12.829,4.384c22.244,7.602,46.86,2.538,64.298-13.226l65.707-59.402
	c19.576-16.596,31.387-40.572,32.616-66.207l0,0C481.716,244.174,484.668,232.298,489.824,221.327z"/>
<path style="fill:#F4C892;" d="M478.995,126.214L478.995,126.214c-7.119-5.173-14.471-9.966-22.017-14.384
	c7.057,15.96,7.275,34.669-0.576,51.377l-8.8,18.725c-5.156,10.971-8.108,22.848-8.688,34.956l0,0
	c-1.229,25.635-13.04,49.61-32.615,66.207l-65.708,59.402c-17.437,15.764-42.054,20.827-64.298,13.226l-12.829-4.384l-10.254-3.504
	c6.718,17.932,21.147,32.193,39.648,38.515l12.829,4.384l12.829,4.384c22.244,7.602,46.86,2.538,64.298-13.226l65.707-59.401
	c19.576-16.596,31.387-40.572,32.616-66.207l0,0c0.581-12.108,3.532-23.985,8.688-34.956l8.8-18.725
	C511.253,175.728,503.016,143.67,478.995,126.214z"/>
<path style="fill:#ED999B;" d="M341.347,286.385c26.586,9.086,40.772,38.003,31.686,64.588l-3.054-3.453
	c-23.248-26.283-59.093-37.607-93.221-29.449l0,0C285.844,291.486,314.761,277.3,341.347,286.385z"/>
<path style="fill:#FED9A8;" d="M249.349,185.02l-3.735-20.349c-5.361-29.206-30.71-50.489-60.404-50.714l0,0
	c-53.489-0.405-105.859,15.312-150.285,45.102l0,0c-24.663,16.538-34.104,48.261-22.498,75.593l8.087,19.043
	c4.738,11.158,7.24,23.138,7.363,35.259l0,0c0.26,25.663,11.158,50.067,30.094,67.391l63.419,61.839
	c16.83,16.411,41.238,22.4,63.753,15.643l12.985-3.897l12.985-3.897c22.515-6.757,39.592-25.196,44.604-48.162l18.888-86.54
	c6.267-24.887,1.927-51.259-11.986-72.825l0,0C256.046,208.32,251.538,196.942,249.349,185.02z"/>
<path style="fill:#F4C892;" d="M262.618,218.506L262.618,218.506c-6.572-10.187-11.08-21.564-13.269-33.487l-3.735-20.349
	c-5.361-29.206-30.71-50.489-60.404-50.714l0,0c-12.031-0.091-24.004,0.641-35.844,2.158c22.547,6.113,40.285,24.684,44.667,48.556
	l3.736,20.349c2.189,11.923,6.697,23.3,13.268,33.486l0,0c13.913,21.565,18.254,47.937,11.986,72.825l-18.888,86.54
	c-5.013,22.966-22.09,41.405-44.604,48.162l-12.985,3.897l-5.131,1.54c13.64,5.75,29.083,6.752,43.727,2.357l12.985-3.897
	l12.985-3.897c22.515-6.757,39.592-25.196,44.604-48.162l18.888-86.54C280.872,266.444,276.531,240.072,262.618,218.506z"/>
<path style="fill:#ED999B;" d="M182.431,377.633c26.909-8.076,42.177-36.437,34.101-63.346l-3.182,3.335
	c-24.223,25.387-60.47,35.349-94.266,25.91l0,0C127.16,370.441,155.521,385.708,182.431,377.633z"/>
<path d="M375.981,213.187c2.65-3.193,2.21-7.928-0.983-10.578c-3.192-2.649-7.928-2.21-10.578,0.982l-29.404,35.428
	c-3.514,4.235-4.723,9.927-3.232,15.224c1.491,5.298,5.49,9.523,10.698,11.303l19.456,6.65c0.805,0.275,1.625,0.405,2.431,0.405
	c3.123,0,6.041-1.964,7.107-5.084c1.342-3.926-0.753-8.196-4.678-9.538l-19.457-6.65c-0.703-0.24-0.983-0.761-1.095-1.157
	c-0.112-0.395-0.144-0.986,0.332-1.559L375.981,213.187z"/>
<path d="M313.114,153.162c-13.628,0.641-25.656,4.157-26.161,4.306c-3.978,1.176-6.25,5.354-5.074,9.333
	c1.177,3.977,5.353,6.25,9.333,5.074c0.107-0.031,10.774-3.15,22.609-3.707c8.645-0.407,19.482,0.488,24.279,6.602
	c-0.234,1.517-0.006,3.118,0.752,4.585c1.334,2.584,3.959,4.066,6.679,4.065c1.161,0,2.34-0.27,3.442-0.839
	c4.457-2.303,6.149-7.775,3.852-12.459C348.707,161.727,338.496,151.974,313.114,153.162z"/>
<path d="M408.822,203.271c1.499-0.697,2.66-1.825,3.405-3.169c13.535-3.434,32.848,18.113,38.856,26.414
	c1.468,2.033,3.765,3.113,6.095,3.113c1.523,0,3.06-0.461,4.388-1.42c3.365-2.427,4.126-7.122,1.699-10.486
	c-0.308-0.427-7.668-10.57-18.054-19.417c-19.324-16.463-33.39-15.009-41.785-10.89c-4.682,2.297-6.695,7.659-4.581,12.208
	C400.592,203.386,405.06,205.019,408.822,203.271z"/>
<path d="M139.953,303.731c3.008,2.41,6.708,3.677,10.468,3.677c1.609,0,3.23-0.232,4.81-0.706l19.693-5.91
	c3.973-1.193,6.228-5.381,5.035-9.354c-1.191-3.974-5.38-6.224-9.355-5.036l-19.692,5.91c-0.716,0.213-1.244-0.048-1.565-0.304
	c-0.32-0.257-0.691-0.718-0.638-1.46l3.307-45.922c0.298-4.138-2.815-7.734-6.952-8.032c-4.154-0.298-7.734,2.815-8.032,6.953
	l-3.307,45.922C133.33,294.958,135.658,300.29,139.953,303.731z"/>
<path d="M113.952,236.646c-1.054-2.502-3.146-4.398-5.739-5.201c-28.456-8.815-60.193,15.398-61.531,16.433
	c-3.278,2.537-3.876,7.246-1.344,10.526c2.531,3.281,7.248,3.888,10.532,1.36c0.069-0.053,7.067-5.403,16.751-9.739
	c6.541-2.929,15.449-5.874,24.063-5.444l-3.477,6.794c-1.89,3.693-0.428,8.219,3.265,10.109c1.095,0.561,2.264,0.827,3.417,0.827
	c2.73,0,5.363-1.494,6.693-4.091l7.084-13.842C114.902,241.965,115.006,239.146,113.952,236.646z"/>
<path d="M224.3,194.573c-1.688-0.128-41.514-2.863-60.411,20.164c-1.723,2.099-2.425,4.835-1.926,7.505
	c0.498,2.667,2.138,4.962,4.496,6.294l13.533,7.653c1.169,0.661,2.438,0.975,3.691,0.975c2.619,0,5.164-1.373,6.545-3.816
	c2.042-3.611,0.771-8.194-2.84-10.236l-6.663-3.768c15.598-11.548,42.011-9.82,42.446-9.789c4.138,0.303,7.738-2.79,8.051-6.924
	C231.536,198.494,228.437,194.886,224.3,194.573z"/>
<path d="M364.353,352.499l3.055,3.453c1.441,1.629,3.498,2.534,5.626,2.534c0.489,0,0.983-0.048,1.474-0.146
	c2.623-0.525,4.769-2.405,5.634-4.936c5.043-14.757,4.039-30.594-2.831-44.594c-6.868-14.001-18.778-24.489-33.534-29.532
	c-14.759-5.044-30.594-4.038-44.595,2.831c-6.861,3.366-12.871,7.949-17.817,13.477l0.554-2.537
	c6.707-26.772,1.976-55.419-12.988-78.614c-6.069-9.407-10.17-19.76-12.192-30.771l-3.735-20.349
	c-6.004-32.7-34.491-56.617-67.736-56.869c-55.255-0.399-108.659,15.618-154.526,46.375c-27.615,18.515-38.225,54.166-25.23,84.768
	l8.087,19.043c4.376,10.306,6.652,21.207,6.765,32.4c0.282,27.602,12.106,54.119,32.447,72.775l63.333,61.757
	c13.676,13.334,31.852,20.506,50.425,20.504c6.926,0,13.91-0.998,20.732-3.045l25.971-7.794
	c25.116-7.538,44.192-28.136,49.784-53.756l11.818-54.146c1.171,0.304,2.414,0.341,3.632,0.05
	C310.004,317.85,342.897,328.242,364.353,352.499z M267.32,289.496c-0.02,0.077-0.038,0.155-0.055,0.233l-18.888,86.54
	c-4.429,20.289-19.536,36.6-39.424,42.57l-25.972,7.794c-19.886,5.969-41.48,0.672-56.349-13.826l-63.418-61.839
	c-0.058-0.056-0.115-0.111-0.174-0.164c-17.335-15.859-27.414-38.431-27.653-61.924c-0.133-13.169-2.811-25.994-7.96-38.12
	l-8.087-19.043c-10.182-23.977-1.868-51.91,19.767-66.418c42.801-28.7,92.569-43.837,144.055-43.837c0.662,0,1.327,0.002,1.99,0.008
	c26.048,0.197,48.368,18.937,53.072,44.558l3.735,20.349l0,0c2.379,12.954,7.205,25.135,14.345,36.203
	C269.043,242.322,273.057,266.713,267.32,289.496z M290.337,308.302c4.034-5.328,9.288-9.677,15.462-12.706
	c10.398-5.1,22.162-5.848,33.119-2.102c10.96,3.745,19.805,11.534,24.905,21.932c3.047,6.21,4.54,12.909,4.451,19.631
	c-19.028-17.553-43.803-27.116-69.347-27.116C296.07,307.94,293.205,308.06,290.337,308.302z"/>
<path d="M218.284,306.981c-2.604-0.625-5.339,0.183-7.185,2.119l-3.183,3.335c-22.356,23.431-55.621,32.574-86.811,23.861
	c-2.641-0.738-5.467,0.021-7.383,1.975c-1.918,1.954-2.62,4.797-1.833,7.419c7.581,25.26,30.835,41.607,55.949,41.607
	c5.542,0,11.179-0.797,16.753-2.47c30.833-9.253,48.39-41.867,39.137-72.701C222.959,309.565,220.885,307.605,218.284,306.981z
	 M180.272,370.438c-11.092,3.33-22.817,2.14-33.016-3.35c-6.055-3.26-11.142-7.803-14.972-13.28
	c28.395,3.472,57-5.088,78.873-23.779C210.673,348.239,198.646,364.923,180.272,370.438z"/>
<path d="M483.411,120.137c-44.675-32.466-97.466-50.507-152.665-52.174c-33.238-1.007-62.602,21.822-69.835,54.273l-4.083,18.318
	c-0.903,4.049,1.648,8.063,5.697,8.966c4.055,0.902,8.064-1.649,8.966-5.698l4.083-18.317c5.667-25.426,28.649-43.321,54.717-42.524
	c52.17,1.575,102.064,18.627,144.287,49.311c21.072,15.315,28.325,43.541,17.246,67.117l-8.8,18.724
	c-5.602,11.921-8.762,24.636-9.393,37.792c-1.125,23.468-12.048,45.642-29.969,60.836c-0.062,0.051-0.121,0.104-0.18,0.157
	l-65.708,59.402c-15.405,13.926-37.183,18.405-56.831,11.689l-25.661-8.77c-0.815-0.278-1.619-0.573-2.415-0.886
	c-3.857-1.515-8.221,0.385-9.737,4.248c-1.516,3.862,0.386,8.221,4.248,9.737c1.009,0.396,2.036,0.773,3.048,1.118l25.658,8.769
	c7.627,2.607,15.504,3.877,23.327,3.877c17.627,0,34.965-6.458,48.438-18.638l65.622-59.323
	c21.03-17.874,33.845-43.927,35.167-71.498c0.537-11.182,3.223-21.989,7.984-32.121l8.8-18.724
	C519.562,175.708,510.305,139.682,483.411,120.137z"/>
<g>
</g>
<g>
</g>
<g>
</g>
<g>
</g>
<g>
</g>
<g>
</g>
<g>
</g>
<g>
</g>
<g>
</g>
<g>
</g>
<g>
</g>
<g>
</g>
<g>
</g>
<g>
</g>
<g>
</g>
</svg>
