<svg id="Capa_1" enable-background="new 0 0 512.003 512.003" height="512" viewBox="0 0 512.003 512.003" width="512" xmlns="http://www.w3.org/2000/svg"><g><g><path d="m71.993 413.561v3.245l22.086 22.375 3.955.421 28.485-28.485 2.687-4.811 20.041-65.875v-4.124z" fill="#ffd500"/><path d="m139.38 372.863 9.867-32.432v-4.124l-77.254 77.254v3.245l11.646 11.798z" fill="#fbc700"/><path d="m344.024 13.063s39.518 88.949-35.783 164.251l-28.639 28.638-30.098 30.098h4.952l66-17.519 3.859-5.21 9.967-9.967c75.301-75.301 164.251-35.783 164.251-35.783-6.778-6.777-147.732-147.731-154.509-154.508z" fill="#ffd500"/><g><path d="m306.102 205.952 28.639-28.638c45.471-45.471 49.071-95.911 44.79-128.744-19.149-19.149-33.458-33.458-35.506-35.506 0 0 39.518 88.949-35.783 164.251l-28.639 28.638-30.098 30.098h4.952l29.334-7.786z" fill="#fbc700"/></g><g><path d="m366.977 353.523-100.257 100.256c-32.387 32.387-85.085 32.388-117.473 0s-32.387-85.086 0-117.473l100.257-100.256c32.387-32.387 85.085-32.388 117.473 0s32.387 85.085 0 117.473zm-191.689 8.825c-18.028 18.028-18.029 47.363 0 65.391 18.028 18.028 47.363 18.028 65.391 0l100.257-100.257c18.028-18.028 18.029-47.363 0-65.391-18.028-18.028-47.363-18.028-65.392 0z" fill="#ffe559"/></g><g fill="#ffd500"><path d="m264.97 427.739 100.257-100.257c18.028-18.028 18.029-47.363 0-65.391-12.126-12.126-29.365-16.083-44.841-11.896 7.532 2.038 14.648 5.994 20.55 11.896 18.028 18.028 18.028 47.363 0 65.391l-100.257 100.257c-5.902 5.902-13.019 9.859-20.551 11.896 15.476 4.187 32.715.23 44.842-11.896z"/><path d="m173.538 453.78c-32.387-32.387-32.387-85.086 0-117.473l100.257-100.257c13.103-13.103 29.53-20.9 46.592-23.401-25.112-3.681-51.597 4.116-70.882 23.401l-100.258 100.257c-32.387 32.387-32.387 85.086 0 117.473 19.285 19.285 45.77 27.082 70.881 23.4-17.061-2.501-33.488-10.298-46.59-23.4z"/></g><path d="m63.58 474.055 34.454-34.454-26.041-26.041-34.453 34.455c.604.472 1.193.972 1.748 1.527l22.766 22.766c.554.555 1.055 1.143 1.526 1.747z" fill="#b5dcff"/><path d="m85.338 426.906-13.345-13.345-34.453 34.453c.604.472 1.193.972 1.748 1.527l11.707 11.707z" fill="#8bcaff"/><path d="m13.074 448.175c-7.616 7.616-7.616 19.963 0 27.579l22.766 22.766c7.616 7.616 19.963 7.616 27.579 0 7.616-7.616 7.616-19.963 0-27.579l-22.766-22.766c-7.616-7.616-19.963-7.615-27.579 0z" fill="#dbedff"/><path d="m50.507 484.662-22.766-22.766c-5.141-5.141-6.797-12.436-4.997-18.978-3.542.763-6.917 2.505-9.669 5.258-7.616 7.616-7.616 19.963 0 27.579l22.766 22.766c7.616 7.616 19.963 7.616 27.579 0 2.475-2.475 4.131-5.452 4.998-8.601-6.259 1.347-13.048-.395-17.911-5.258z" fill="#b5dcff"/></g><path d="m343.645 2.197c-2.93-2.929-7.678-2.929-10.607 0s-2.929 7.678 0 10.606l4.77 4.77c1.919 4.841 8.827 23.997 9.207 49.751.588 39.898-14.193 75.208-43.935 104.95l-58.736 58.736-6.397 6.397-11.912-11.912 1.484-1.484c2.929-2.929 2.929-7.678-.001-10.606-2.928-2.93-7.677-2.929-10.606 0l-13.573 13.574c-2.929 2.929-2.929 7.678.001 10.606 2.926 2.928 7.675 2.93 10.606 0l1.483-1.483 11.911 11.911-27.821 27.821-11.912-11.912 1.483-1.483c2.929-2.929 2.929-7.678 0-10.606-2.93-2.929-7.678-2.929-10.607 0l-13.573 13.573c-2.929 2.929-2.929 7.678 0 10.606 2.93 2.929 7.678 2.929 10.607 0l1.483-1.483 11.912 11.912-27.821 27.821-11.911-11.912 1.483-1.483c2.929-2.929 2.929-7.678-.001-10.606-2.928-2.93-7.677-2.929-10.606 0l-13.573 13.574c-2.929 2.929-2.929 7.678.001 10.606 2.926 2.928 7.675 2.93 10.606 0l1.483-1.483 11.912 11.912-6.398 6.398c-.016.016-.03.03-.046.046-4.399 4.399-101.763 101.763-106.183 106.183-9.756-4.283-21.737-2.568-29.943 5.639-10.553 10.552-10.555 27.631-.001 38.186l22.766 22.766c10.552 10.551 27.633 10.556 38.186 0 8.139-8.138 9.963-20.099 5.64-29.944l48.326-48.325c4.441 12.474 11.629 23.901 21.256 33.528 35.345 35.344 92.8 35.279 128.08 0l39.482-39.483c2.929-2.929 2.929-7.678 0-10.606-2.931-2.93-7.679-2.929-10.607 0l-39.481 39.483c-29.485 29.483-77.383 29.484-106.866 0-29.443-29.442-29.456-77.415 0-106.866l6.397-6.397 15.434 15.434-6.397 6.397c-20.952 20.953-20.953 55.045-.001 75.998 20.974 20.975 55.022 20.976 75.999 0l50.124-50.124.005-.005s.003-.003.005-.005l50.123-50.123c20.952-20.953 20.953-55.045.001-75.998-20.953-20.953-55.046-20.955-75.999 0l-6.397 6.398-15.434-15.434 6.398-6.398c29.51-29.514 77.462-29.403 106.865 0 29.464 29.462 29.463 77.403 0 106.867l-36.025 36.025c-2.929 2.929-2.929 7.678 0 10.606 2.93 2.929 7.678 2.93 10.607 0l36.025-36.025c35.312-35.313 35.311-92.769 0-128.08-9.796-9.796-21.3-16.864-33.56-21.225l.864-.864c17.291-17.292 36.792-29.658 57.96-36.755 3.928-1.316 6.044-5.567 4.728-9.495-1.317-3.927-5.569-6.043-9.495-4.727-23.388 7.841-44.853 21.423-63.8 40.37l-7.219 7.219c-10.781-1.611-21.775-1.21-31.679.811l23.464-23.464c40.045-40.045 55.207-91.354 45.541-143.886 13.482 13.481 100.202 100.202 113.769 113.769-12.018-2.211-27.134-3.644-44.008-2.228-4.128.346-7.193 3.973-6.847 8.101.346 4.127 3.972 7.193 8.101 6.847 32.665-2.742 58.481 6.474 64.194 8.72l4.761 4.761c2.93 2.929 7.678 2.929 10.607 0s2.929-7.678 0-10.606zm-285.386 491.284c-4.691 4.691-12.281 4.69-16.972 0l-22.766-22.766c-4.69-4.689-4.693-12.28-.001-16.972h.001c4.716-4.716 12.312-4.663 16.972 0 .23.23 22.577 22.576 22.804 22.808 4.609 4.653 4.682 12.211-.038 16.93zm6.942-31.245-15.434-15.435 22.371-22.37 15.434 15.434zm53.396-53.397-20.419 20.419-15.434-15.434 36.667-36.667c-2.091 10.359-2.345 21.367-.814 31.682zm53.102-83.97 27.821-27.821 15.434 15.434-27.821 27.821zm63.82 97.83c-15.113 15.113-39.672 15.112-54.784 0-15.104-15.104-15.104-39.68.001-54.785l6.397-6.397 54.784 54.784zm17.005-17.005-54.784-54.784 27.821-27.821 54.784 54.784zm28.469-138.037c15.109-15.109 39.686-15.1 54.784 0 15.104 15.104 15.104 39.68-.001 54.785l-6.397 6.397-54.784-54.784zm37.778 71.789-27.82 27.82-54.784-54.784 27.82-27.82zm-65.39-65.391-27.82 27.82-15.434-15.434 27.821-27.821z"/></g></svg>