<?xml version="1.0" encoding="iso-8859-1"?>
<!-- Generator: Adobe Illustrator 19.0.0, SVG Export Plug-In . SVG Version: 6.00 Build 0)  -->
<svg version="1.1" id="Capa_1" xmlns="http://www.w3.org/2000/svg" xmlns:xlink="http://www.w3.org/1999/xlink" x="0px" y="0px"
	 viewBox="0 0 512 512" style="enable-background:new 0 0 512 512;" xml:space="preserve">
<path style="fill:#80CBDE;" d="M476.198,441.193H35.801c-15.63,0-28.301-12.671-28.301-28.301V99.108
	c0-15.631,12.671-28.301,28.301-28.301h440.397c15.631,0,28.302,12.671,28.302,28.301v313.784
	C504.5,428.522,491.829,441.193,476.198,441.193z"/>
<circle style="opacity:0.1;enable-background:new    ;" cx="203.36" cy="273.02" r="146.84"/>
<circle style="fill:#4A5058;" cx="186.34" cy="256" r="146.84"/>
<g style="opacity:0.2;">
	<path d="M155.648,161.038c-3.23,0-6.212-2.103-7.184-5.357c-1.185-3.969,1.072-8.147,5.041-9.332
		c16.479-4.92,34.18-6.065,51.189-3.314c4.089,0.661,6.868,4.512,6.206,8.6c-0.66,4.088-4.509,6.864-8.601,6.207
		c-14.788-2.393-30.18-1.396-44.504,2.88C157.08,160.936,156.357,161.038,155.648,161.038z"/>
	<path d="M291.661,244.999c-3.576,0-6.742-2.566-7.379-6.21c-3.528-20.19-13.084-38.554-27.634-53.103
		c-4.232-4.234-8.854-8.097-13.734-11.482c-3.403-2.361-4.249-7.034-1.889-10.438c2.361-3.404,7.033-4.246,10.438-1.889
		c5.615,3.896,10.93,8.337,15.793,13.202c16.743,16.743,27.74,37.881,31.802,61.127c0.713,4.08-2.017,7.966-6.097,8.679
		C292.524,244.962,292.09,244.999,291.661,244.999z"/>
	<path d="M245.183,352.822c-2.436,0-4.823-1.185-6.266-3.368c-2.282-3.457-1.33-8.109,2.126-10.392
		c5.581-3.685,10.831-7.974,15.605-12.749c11.113-11.111,19.227-24.256,24.114-39.069c1.297-3.934,5.541-6.07,9.473-4.771
		c3.934,1.298,6.069,5.539,4.771,9.473c-5.629,17.059-14.966,32.191-27.752,44.976c-5.486,5.486-11.524,10.419-17.946,14.659
		C248.036,352.42,246.602,352.822,245.183,352.822z"/>
</g>
<circle style="fill:#DFE3E5;" cx="186.34" cy="256" r="40.2"/>
<path style="opacity:0.1;enable-background:new    ;" d="M449.797,167.076c-7.685,0-13.916,6.231-13.916,13.916V285.93
	c0,4.991-1.943,9.683-5.472,13.212l-26.091,26.091l-0.673-0.673c-4.989-4.989-13.077-4.989-18.066,0l-27.338,27.338
	c-4.989,4.989-4.989,13.077,0,18.066l21.027,21.027c4.989,4.989,13.077,4.989,18.066,0l27.338-27.338
	c4.989-4.989,4.989-13.077,0-18.066l-0.673-0.673l26.091-26.091c8.786-8.786,13.624-20.467,13.624-32.893V180.993
	C463.714,173.307,457.483,167.076,449.797,167.076z"/>
<path style="fill:#FFFFFF;" d="M389.223,348.973c-3.562,0-7.124-1.359-9.84-4.076c-5.435-5.435-5.435-14.246,0-19.681l38.55-38.55
	c3.529-3.529,5.472-8.22,5.472-13.212V168.517c0-7.686,6.231-13.916,13.916-13.916c7.685,0,13.916,6.231,13.916,13.916v104.938
	c0,12.426-4.838,24.107-13.624,32.893l-38.55,38.55C396.347,347.614,392.785,348.973,389.223,348.973z"/>
<path style="fill:#FFE584;" d="M366.792,378.515l-21.027-21.027c-4.989-4.989-4.989-13.077,0-18.066l27.338-27.338
	c4.989-4.989,13.077-4.989,18.066,0l21.027,21.027c4.989,4.989,4.989,13.077,0,18.066l-27.338,27.338
	C379.87,383.504,371.781,383.504,366.792,378.515z"/>
<g>
	<circle style="fill:#4A5058;" cx="46.06" cy="108.39" r="14.829"/>
	<circle style="fill:#4A5058;" cx="465.94" cy="108.39" r="14.829"/>
	<circle style="fill:#4A5058;" cx="46.06" cy="403.61" r="14.829"/>
	<circle style="fill:#4A5058;" cx="465.94" cy="403.61" r="14.829"/>
</g>
<path style="opacity:0.1;enable-background:new    ;" d="M476.198,70.807h-39.179c15.63,0,28.301,12.671,28.301,28.302v313.784
	c0,15.63-12.671,28.301-28.301,28.301h39.179c15.63,0,28.302-12.671,28.302-28.301V99.108
	C504.5,83.478,491.829,70.807,476.198,70.807z"/>
<path style="fill:#E8618C;" d="M359.434,325.753l-13.669,13.669c-4.989,4.989-4.989,13.077,0,18.066l21.027,21.027
	c4.989,4.989,13.077,4.989,18.066,0l13.669-13.669L359.434,325.753z"/>
<path d="M392.634,113.894h-73.957c-4.143,0-7.5,3.357-7.5,7.5s3.357,7.5,7.5,7.5h73.957c4.143,0,7.5-3.357,7.5-7.5
	S396.776,113.894,392.634,113.894z M234.033,256c0-26.302-21.398-47.699-47.698-47.699c-26.302,0-47.699,21.397-47.699,47.699
	s21.398,47.699,47.699,47.699S234.033,282.302,234.033,256z M153.636,256c0-18.03,14.669-32.699,32.699-32.699
	S219.033,237.97,219.033,256s-14.668,32.699-32.698,32.699S153.636,274.03,153.636,256z M87.673,146.982
	c-2.932-2.926-7.681-2.922-10.606,0.013C47.999,176.132,31.991,214.844,31.991,256c0,85.104,69.238,154.343,154.344,154.343
	c85.105,0,154.343-69.238,154.343-154.343S271.44,101.657,186.335,101.657c-27.012,0-53.595,7.081-76.875,20.478
	c-3.59,2.066-4.825,6.65-2.759,10.241c2.066,3.591,6.652,4.827,10.241,2.759c21.007-12.089,45.003-18.478,69.393-18.478
	c76.834,0,139.343,62.509,139.343,139.343s-62.509,139.343-139.343,139.343S46.991,332.834,46.991,256
	c0-37.156,14.452-72.106,40.694-98.411C90.611,154.656,90.605,149.908,87.673,146.982z M465.94,86.066
	c-12.313,0-22.329,10.017-22.329,22.329s10.017,22.329,22.329,22.329s22.329-10.017,22.329-22.329S478.253,86.066,465.94,86.066z
	 M465.94,115.725c-4.041,0-7.329-3.288-7.329-7.329s3.288-7.329,7.329-7.329c4.041,0,7.329,3.288,7.329,7.329
	S469.981,115.725,465.94,115.725z M504.5,173.495c-4.143,0-7.5,3.357-7.5,7.5v231.896c0,11.47-9.332,20.802-20.802,20.802H35.802
	c-11.47,0-20.802-9.332-20.802-20.802v-28.113c0-4.143-3.357-7.5-7.5-7.5s-7.5,3.357-7.5,7.5v28.113
	c0,19.741,16.06,35.802,35.802,35.802h440.396c19.741,0,35.802-16.061,35.802-35.802V180.995
	C512,176.852,508.643,173.495,504.5,173.495z M476.198,63.307H35.802C16.06,63.307,0,79.367,0,99.108V345.3
	c0,4.143,3.357,7.5,7.5,7.5s7.5-3.357,7.5-7.5V99.108c0-11.47,9.332-20.802,20.802-20.802h440.396
	c11.47,0,20.802,9.332,20.802,20.802V142c0,4.143,3.357,7.5,7.5,7.5s7.5-3.357,7.5-7.5V99.108
	C512,79.367,495.94,63.307,476.198,63.307z M349.649,188.258h42.984c4.143,0,7.5-3.357,7.5-7.5s-3.357-7.5-7.5-7.5h-42.984
	c-4.143,0-7.5,3.357-7.5,7.5C342.149,184.9,345.507,188.258,349.649,188.258z M349.649,158.576h42.984c4.143,0,7.5-3.357,7.5-7.5
	s-3.357-7.5-7.5-7.5h-42.984c-4.143,0-7.5,3.357-7.5,7.5C342.149,155.219,345.507,158.576,349.649,158.576z M46.06,425.934
	c12.313,0,22.329-10.017,22.329-22.329s-10.017-22.329-22.329-22.329s-22.33,10.016-22.33,22.328S33.747,425.934,46.06,425.934z
	 M46.06,396.275c4.041,0,7.329,3.288,7.329,7.329c0,4.041-3.288,7.329-7.329,7.329c-4.041,0-7.329-3.288-7.329-7.329
	C38.73,399.564,42.019,396.275,46.06,396.275z M415.905,168.517v104.939c0,2.986-1.163,5.795-3.276,7.908l-21.563,21.564
	c-2.747-1.351-5.779-2.085-8.93-2.085c-5.415,0-10.507,2.109-14.335,5.939l-27.34,27.339c-7.903,7.905-7.903,20.767,0,28.673
	l21.027,21.027c0.001,0,0.001,0,0.001,0c3.952,3.952,9.144,5.928,14.336,5.928c5.191,0,10.384-1.977,14.337-5.929l27.337-27.338
	c3.83-3.829,5.94-8.921,5.94-14.336c0-3.151-0.734-6.183-2.086-8.93l21.565-21.564c10.202-10.203,15.82-23.768,15.82-38.195v-104.94
	c0-11.809-9.607-21.416-21.417-21.416C425.513,147.101,415.905,156.708,415.905,168.517z M406.893,345.874l-27.337,27.338
	c-2.057,2.057-5.404,2.057-7.461,0h0.001l-21.027-21.026c-2.057-2.057-2.057-5.404-0.001-7.46l27.34-27.339
	c0.996-0.996,2.32-1.545,3.729-1.545s2.733,0.549,3.729,1.546l21.028,21.027c0.996,0.996,1.545,2.32,1.545,3.729
	S407.89,344.877,406.893,345.874z M443.738,168.517v104.939c0,10.421-4.059,20.22-11.427,27.589l-20.788,20.787l-9.075-9.074
	l20.788-20.788c4.945-4.946,7.669-11.521,7.669-18.515V168.517c0-3.538,2.878-6.416,6.416-6.416
	C440.859,162.101,443.738,164.979,443.738,168.517z M465.94,381.275c-12.313,0-22.329,10.017-22.329,22.329
	s10.017,22.329,22.329,22.329s22.329-10.017,22.329-22.329S478.253,381.275,465.94,381.275z M465.94,410.934
	c-4.041,0-7.329-3.288-7.329-7.329c0-4.041,3.288-7.329,7.329-7.329c4.041,0,7.329,3.288,7.329,7.329
	C473.27,407.646,469.981,410.934,465.94,410.934z M46.06,86.066c-12.313,0-22.329,10.017-22.329,22.329s10.017,22.329,22.329,22.329
	s22.329-10.017,22.329-22.329S58.372,86.066,46.06,86.066z M46.06,115.725c-4.041,0-7.329-3.288-7.329-7.329
	s3.288-7.329,7.329-7.329c4.041,0,7.329,3.288,7.329,7.329S50.101,115.725,46.06,115.725z"/>
<g>
</g>
<g>
</g>
<g>
</g>
<g>
</g>
<g>
</g>
<g>
</g>
<g>
</g>
<g>
</g>
<g>
</g>
<g>
</g>
<g>
</g>
<g>
</g>
<g>
</g>
<g>
</g>
<g>
</g>
</svg>
