<?xml version="1.0" encoding="iso-8859-1"?>
<!-- Generator: Adobe Illustrator 19.0.0, SVG Export Plug-In . SVG Version: 6.00 Build 0)  -->
<svg version="1.1" id="Capa_1" xmlns="http://www.w3.org/2000/svg" xmlns:xlink="http://www.w3.org/1999/xlink" x="0px" y="0px"
	 viewBox="0 0 512.001 512.001" style="enable-background:new 0 0 512.001 512.001;" xml:space="preserve">
<rect x="-26.298" y="261.047" transform="matrix(0.7071 0.7071 -0.7071 0.7071 267.7685 -100.3556)" style="fill:#FFDEA9;" width="562.645" height="24"/>
<g>
	<polygon style="fill:#A66856;" points="102.178,103.229 120.373,84.654 92.283,56.565 73.898,74.95 	"/>
	<path style="fill:#A66856;" d="M48.386,460.945C-21.247,389.713,1.53,277.648,90.419,257.146l0.009-0.009
		c24.272,12.122,50.786,11.031,66.844-5.011c11.918-11.906,15.594-29.58,11.718-47.831c5.417-8.773,4.612-10.293,19.31-26.379
		c78.408-85.854,237.927,67.801,144.075,147.8c-16.349,13.93-14.61,11.157-24.327,17.372c-18.322-3.925-36.085-0.269-48.038,11.672
		c-16.058,16.042-17.159,42.52-5.025,66.767C234.385,510.808,120.161,534.352,48.386,460.945z"/>
</g>
<path style="fill:#8F5040;" d="M286.288,162.453c45.375,36.623,69.661,102.253,18.421,145.93
	c-15.552,13.252-14.737,11.388-22.986,16.525c-0.866,0.539-1.907,0.721-2.909,0.53c-17.764-3.392-34.859,0.389-46.471,11.989
	c-15.773,15.757-17.115,41.584-5.657,65.475c0.402,0.837,0.521,1.79,0.301,2.693c-17.577,72.155-96.785,100.576-164.108,68.43
	c71.732,56.981,172.844,30.982,192.107-52.498c-12.135-24.248-11.033-50.726,5.025-66.768c11.953-11.94,29.716-15.597,48.038-11.671
	c9.717-6.215,7.979-3.442,24.328-17.372C393.316,273.771,347.43,190.774,286.288,162.453z"/>
<path style="fill:#5C4346;" d="M99.231,495.158c-18.015-7.126-35.409-18.434-50.84-34.214
	C9.618,421.292-0.501,368.961,13.487,326.842c26.459-11.64,57.913-15.794,70.399,20.511c13.389,38.924,9.585,40.676,34.507,70.094
	C131.883,433.365,119.396,458.376,99.231,495.158z"/>
<g>
	<path style="fill:#735458;" d="M49.68,462.253L49.68,462.253c-3.293-3.291-3.553-8.541-0.6-12.14l77.302-90.469l25.983,25.964
		l-90.536,77.245C58.227,465.803,52.973,465.544,49.68,462.253z"/>
	<polygon style="fill:#735458;" points="241.328,313.646 198.422,270.783 414.907,62.284 450.046,97.388 	"/>
</g>
<g>
	<path style="fill:#5C4346;" d="M452.045,128.296l-26.914-41.217L383.85,60.215c-5.948-5.938-5.948-15.567,0-21.505l0,0
		c5.946-5.936,15.584-5.936,21.529,0l27.032,41.099l41.163,26.982c5.948,5.938,5.948,15.567,0,21.505l0,0
		C467.629,134.232,457.991,134.232,452.045,128.296z"/>
	<path style="fill:#5C4346;" d="M417.298,163.018l-27.629-40.494l-40.566-27.588c-5.948-5.938-5.948-15.567,0-21.505l0,0
		c5.946-5.936,15.584-5.936,21.529,0l28.16,39.982l40.035,28.099c5.948,5.938,5.948,15.567,0,21.505l0,0
		C432.882,168.954,423.243,168.954,417.298,163.018z"/>
</g>
<path style="fill:#8F5040;" d="M402.176,146.958l-36.986-36.923c-1.7-1.697-1.016-5.042,1.477-7.219l71.172-62.17
	c2.189-1.912,5.007-2.235,6.5-0.745l27.805,27.757c1.487,1.484,1.173,4.281-0.724,6.465l-61.99,71.337
	C407.25,147.966,403.883,148.662,402.176,146.958z"/>
<path style="fill:#A66856;" d="M503.75,48.651l-41.65,52.98c-1.47,1.86-4.52,1.69-6.58-0.36l-21.33-21.29l-23.28-23.25
	c-2.05-2.05-2.22-5.08-0.38-6.55l52.73-41.92c1.63-1.29,4.24-0.9,6.05,0.9l12.44,12.42l0.01,0.01l21.08,21.05
	C504.63,44.431,505.03,47.031,503.75,48.651z"/>
<path style="fill:#8F5040;" d="M503.75,48.651l-41.65,52.98c-1.47,1.86-4.52,1.69-6.58-0.36l-21.33-21.29h0.04
	c2.06,2.05,5.11,2.22,6.58,0.36l41.65-52.98c1.22-1.55,0.9-3.99-0.7-5.77l21.08,21.05C504.63,44.431,505.03,47.031,503.75,48.651z"
	/>
<path d="M185.118,490.55c-20.701,7.428-43.595,8.463-66.204,2.992c-2.988-0.723-5.952-1.559-8.887-2.502
	c16.04-29.497,28.416-55.208,17.178-74.118l30.035-25.625c1.592-1.358,2.544-3.32,2.626-5.411c0.083-2.091-0.712-4.121-2.193-5.6
	l-25.983-25.963c-1.479-1.477-3.51-2.26-5.596-2.188c-2.089,0.082-4.049,1.032-5.407,2.622l-19.198,22.467
	c-1.14-3.25-2.287-6.914-3.687-11.389c-1.728-5.524-3.877-12.399-6.813-20.94c-5.123-14.889-13.631-25.025-25.288-30.125
	c-10.694-4.681-23.661-4.926-38.68-0.781c12.742-24.459,34.707-41.814,62.594-48.935c27.215,12.586,55.614,9.699,72.963-7.63
	c12.691-12.68,17.838-31.407,14.325-51.743c0.604-1.035,1.128-1.969,1.616-2.837c2.638-4.692,4.544-8.082,15.326-19.875
	c12.738-13.951,28.26-21.594,46.135-22.72c4.134-0.261,7.274-3.823,7.014-7.957c-0.261-4.134-3.828-7.26-7.957-7.013
	c-13.011,0.819-25.241,4.632-36.248,11.169L72.57,26.232c-2.929-2.928-7.678-2.928-10.606,0c-2.929,2.93-2.929,7.677,0,10.607
	l19.72,19.719l-7.778,7.778L69.9,60.331c-1.406-1.406-3.314-2.196-5.303-2.196s-3.897,0.79-5.303,2.197l-16.97,16.97
	c-2.929,2.929-2.929,7.676,0,10.606l119.659,119.655c2.888,15.724-0.706,29.957-10.006,39.249
	c-13.245,13.229-36.085,14.644-58.189,3.606c-1.671-0.834-3.543-0.992-5.264-0.537c-41.183,9.574-71.591,38.249-83.444,78.702
	c-4.666,15.925-6.059,32.525-4.419,48.994c0.623,6.329,1.687,12.672,3.211,18.983c5.087,21.066,15.125,41.045,29.285,58.508
	c0.114,0.141,0.234,0.279,0.349,0.419c0.911,1.116,1.83,2.225,2.775,3.319c0.361,0.419,0.738,0.829,1.104,1.245
	c0.724,0.822,1.443,1.647,2.187,2.456c1.027,1.119,2.077,2.223,3.141,3.317c0.107,0.11,0.209,0.224,0.316,0.334l1.24,1.26
	c0.017,0.018,0.061,0.061,0.091,0.091c0.009,0.009,0.017,0.02,0.026,0.029c0.008,0.008,0.017,0.015,0.025,0.022l0.144,0.145
	c0.709,0.707,1.428,1.397,2.147,2.088c0.104,0.1,0.206,0.202,0.31,0.301c1.289,1.232,2.592,2.439,3.91,3.62
	c0.003,0.002,0.005,0.005,0.008,0.007c1.335,1.197,2.687,2.363,4.052,3.507c0.022,0.019,0.045,0.038,0.067,0.057
	c11.012,9.225,22.964,16.728,35.705,22.408c0.066,0.03,0.132,0.059,0.198,0.088c1.481,0.658,2.973,1.293,4.475,1.901
	c0.103,0.042,0.205,0.085,0.308,0.127c0.248,0.1,0.493,0.206,0.741,0.305c0.169,0.067,0.339,0.121,0.51,0.174
	c6.014,2.358,12.155,4.321,18.4,5.832c10.706,2.591,21.481,3.881,32.121,3.881c14.668,0,29.076-2.453,42.678-7.333
	c3.898-1.399,5.925-5.693,4.526-9.592C193.312,491.178,189.02,489.153,185.118,490.55z M182.771,172.85
	c-0.058,0.063-0.108,0.119-0.165,0.182l-69.868-69.866l7.697-7.858l70.048,70.045C187.812,167.67,185.231,170.157,182.771,172.85z
	 M92.29,67.165l17.538,17.537l0,0l-7.698,7.858L84.512,74.943L92.29,67.165z M64.597,76.24L64.597,76.24
	C64.599,76.242,64.595,76.239,64.597,76.24L64.597,76.24C64.6,76.243,64.594,76.238,64.597,76.24l108.18,108.177
	c-2.429,3.075-3.971,5.364-5.251,7.475L58.234,82.604L64.597,76.24z M95.923,485.556c-10.047-4.586-19.63-10.49-28.549-17.59
	L115.391,427C119.696,439.022,110.533,458.616,95.923,485.556z M126.824,370.665l14.503,14.492L57.048,457.06
	c-0.585,0.453-1.387,0.416-1.948-0.055c-0.061-0.062-0.124-0.122-0.185-0.183c-0.47-0.555-0.508-1.355-0.057-1.936L126.824,370.665z
	 M59.688,328.51c7.764,3.397,13.363,10.353,17.117,21.263c2.867,8.339,4.894,14.82,6.682,20.537
	c2.537,8.113,4.398,14.053,6.974,19.82l-46.497,54.415c-15.078-19.003-24.58-40.97-27.771-63.35
	c-0.098-0.694-0.179-1.388-0.264-2.082c-0.071-0.568-0.148-1.136-0.211-1.704c-0.112-1.027-0.206-2.054-0.292-3.08
	c-0.02-0.242-0.046-0.483-0.065-0.726c-0.089-1.151-0.159-2.301-0.215-3.45c-0.006-0.124-0.015-0.247-0.02-0.371
	c-0.054-1.193-0.089-2.385-0.106-3.576c-0.001-0.087-0.004-0.174-0.005-0.261c-0.015-1.195-0.011-2.389,0.01-3.579
	c0.002-0.091,0.002-0.182,0.004-0.272c0.023-1.175,0.067-2.347,0.125-3.517c0.006-0.116,0.011-0.231,0.017-0.347
	c0.061-1.141,0.14-2.279,0.235-3.414c0.013-0.152,0.026-0.305,0.039-0.458c0.096-1.101,0.209-2.198,0.337-3.292
	c0.023-0.193,0.046-0.385,0.07-0.578c0.13-1.06,0.273-2.117,0.432-3.17c0.035-0.229,0.072-0.457,0.108-0.685
	c0.161-1.023,0.334-2.044,0.523-3.061c0.047-0.253,0.099-0.505,0.148-0.758c0.194-1.002,0.397-2.001,0.618-2.996
	c0.053-0.238,0.112-0.474,0.166-0.712c0.234-1.02,0.476-2.039,0.739-3.052c0.032-0.122,0.067-0.242,0.099-0.363
	c0.293-1.11,0.598-2.216,0.926-3.315C40.411,323.875,52.841,325.515,59.688,328.51z"/>
<path d="M214.13,381.981c-9.43,6.77-14.27,14.09-13.99,21.17c0.22,5.38,3.26,8.93,4.28,9.54c3.57,2.1,4.78,6.69,2.69,10.26
	c-1.4,2.39-3.91,3.72-6.49,3.72c-1.28,0-2.59-0.33-3.78-1.03c-5.28-3.09-11.19-11.19-11.68-21.69c-0.4-8.67,2.78-21.64,20.22-34.15
	c13-9.33,15.07-16.52,14.31-19.53c-0.92-1.24-1.45-2.78-1.45-4.44c0-4.18,3.39-7.57,7.57-7.57c2.81,0,5.28,1.54,6.57,3.82l0.01-0.01
	C232.86,342.831,243.7,360.761,214.13,381.981z"/>
<path d="M188.923,358.315c1.464,1.463,3.383,2.194,5.301,2.194c1.92,0,3.841-0.733,5.305-2.198
	c2.928-2.931,2.926-7.679-0.004-10.607l-35.163-35.136c-2.93-2.927-7.679-2.925-10.606,0.004c-2.928,2.931-2.926,7.679,0.004,10.607
	L188.923,358.315z"/>
<path d="M508.147,37.327L474.612,3.845c-4.509-4.502-11.391-5.13-16.008-1.461l-44.737,35.565l-2.212-3.365
	c-0.283-0.429-0.608-0.828-0.973-1.191c-4.295-4.28-9.997-6.637-16.054-6.637c-6.079,0-11.787,2.36-16.069,6.642
	c-4.3,4.293-6.667,10.001-6.664,16.072c0.002,6.065,2.371,11.764,6.668,16.047c0.366,0.365,0.77,0.691,1.203,0.974l9.79,6.371
	l-6.28,5.485l-6.506-9.24c-0.248-0.352-0.525-0.682-0.83-0.986c-4.286-4.285-9.99-6.645-16.063-6.645
	c-6.064,0-11.77,2.357-16.074,6.646c-8.854,8.854-8.854,23.261,0,32.115c0.333,0.334,0.697,0.635,1.087,0.899l11.058,7.518
	l-55.04,53.007c-8.903-5.223-18.076-9.293-27.347-12.094c-3.963-1.196-8.15,1.045-9.349,5.01c-1.198,3.966,1.045,8.151,5.01,9.349
	c6.871,2.076,13.705,4.966,20.411,8.595l-96.407,92.847c-1.451,1.397-2.279,3.319-2.297,5.334c-0.019,2.014,0.774,3.951,2.199,5.374
	l42.906,42.861c1.407,1.406,3.314,2.194,5.301,2.194c0.023,0,0.045,0,0.068,0c2.012-0.019,3.931-0.845,5.328-2.292l93.712-97.093
	c9.009,15.545,13.541,31.576,13.141,46.818c-0.36,13.732-4.682,26.251-12.871,37.4c-0.068,0.082-0.13,0.168-0.194,0.253
	c-3.601,4.858-7.927,9.459-12.997,13.781c-11.252,9.587-13.321,10.763-17.076,12.899c-1.062,0.603-2.296,1.306-3.859,2.256
	c-20.388-3.544-39.16,1.589-51.871,14.287c-17.358,17.337-20.252,45.716-7.641,72.911c-5.706,22.284-18.042,40.996-35.791,54.23
	c-3.321,2.477-4.005,7.176-1.529,10.496c1.472,1.975,3.731,3.017,6.018,3.016c1.559,0,3.132-0.484,4.478-1.487
	c21.301-15.883,35.843-38.5,42.054-65.403c0.393-1.7,0.18-3.484-0.601-5.045c-11.049-22.07-9.631-44.877,3.614-58.105
	c9.274-9.264,23.449-12.857,39.131-10.027l135.726,135.721c1.464,1.464,3.384,2.196,5.303,2.196s3.839-0.732,5.303-2.196
	l16.97-16.969c1.799-1.799,2.488-4.284,2.078-6.612l0.614-2.172c4.825-16.984-2.594-38.495-18.901-54.802l-21.605-21.605
	c-2.929-2.928-7.678-2.928-10.606,0c-2.929,2.93-2.929,7.677,0,10.607l21.605,21.605c9.494,9.493,15.249,21.224,15.891,31.447
	L339.246,329.668c2.787-2.497,5.38-5.091,7.783-7.773l49.035,49.033c1.464,1.464,3.384,2.196,5.303,2.196s3.839-0.732,5.303-2.196
	c2.929-2.93,2.929-7.677,0-10.607l-50.504-50.502c7.796-12.386,12.028-26.185,12.413-40.863c0.505-19.256-5.491-39.325-17.355-58.38
	l52.407-54.298l7.481,10.961c0.265,0.389,0.566,0.752,0.9,1.084c4.294,4.281,9.996,6.638,16.055,6.638
	c6.065,0,11.771-2.357,16.069-6.642c4.297-4.289,6.663-9.993,6.664-16.061c0-6.068-2.366-11.773-6.663-16.063
	c-0.306-0.305-0.637-0.583-0.991-0.832l-9.321-6.541l5.494-6.322l6.46,9.893c0.285,0.437,0.616,0.843,0.986,1.212
	c4.295,4.28,9.997,6.637,16.054,6.637c6.058,0,11.76-2.357,16.058-6.642c4.297-4.289,6.664-9.993,6.664-16.061
	c0-6.068-2.366-11.773-6.664-16.063c-0.363-0.362-0.762-0.687-1.191-0.968l-3.409-2.231l35.379-44.992
	C513.285,48.671,512.637,41.811,508.147,37.327z M445.477,469.834L320.208,344.57c2.107-1.266,4.214-2.689,7.477-5.249
	l124.156,124.15L445.477,469.834z M371.293,168.183l-27.245-27.244l21.123-20.343l26.508,26.464L371.293,168.183z M316.074,225.396
	l-29.299-29.297l17.83-17.172l28.659,28.658L316.074,225.396z M288.464,254.002l-30.326-30.324l17.831-17.173l29.686,29.686
	L288.464,254.002z M343.683,196.79l-28.272-28.271l17.831-17.172l27.632,27.631L343.683,196.79z M375.978,110.189l38.84-37.405
	l24.719,24.693l-37.438,38.789L375.978,110.189z M388.71,54.415c-1.174-1.383-1.815-3.118-1.815-4.952
	c-0.001-2.058,0.802-3.993,2.266-5.454c1.453-1.453,3.395-2.254,5.467-2.254c1.844,0,3.592,0.644,4.989,1.825l3.14,4.775
	c-0.553,1.232-0.898,2.568-0.977,3.958c-0.157,2.765,0.675,5.526,2.302,7.863l-2.783,2.431L388.71,54.415z M354.401,78.736
	c1.464-1.459,3.408-2.262,5.476-2.262c1.884,0,3.662,0.665,5.062,1.884l6.977,9.91l-8.436,7.368l-9.471-6.439
	C351.411,86.172,351.545,81.593,354.401,78.736z M241.238,302.933l-32.099-32.065l38.193-36.782l30.713,30.712L241.238,302.933z
	 M433.909,147.206c1.223,1.402,1.891,3.176,1.891,5.052c0,2.057-0.803,3.99-2.257,5.442c-1.463,1.458-3.408,2.262-5.475,2.262
	c-1.863,0-3.628-0.656-5.031-1.859l-6.448-9.446l7.344-8.451L433.909,147.206z M468.282,122.98
	c-1.464,1.459-3.405,2.263-5.465,2.263c-1.841,0-3.586-0.642-4.981-1.818l-8.29-12.695l2.379-2.737
	c2.183,1.564,4.749,2.427,7.351,2.427c0.236,0,0.474-0.008,0.711-0.021c1.379-0.083,2.704-0.428,3.926-0.977l4.803,3.143
	c1.181,1.391,1.824,3.133,1.824,4.974C470.539,119.595,469.737,121.529,468.282,122.98z M458.695,93.826l-40.344-40.28
	l47.217-37.535l30.428,30.379L458.695,93.826z"/>
<path d="M173.71,286.261c0,4.18-3.39,7.58-7.58,7.58c-1.65,0-3.18-0.53-4.42-1.44c-3.03-0.74-10.22,1.38-19.51,14.3
	c-11.87,16.51-24.14,20.23-32.78,20.23c-0.48,0-0.95-0.01-1.4-0.03c-10.5-0.49-18.61-6.39-21.7-11.67c-2.1-3.57-0.9-8.17,2.68-10.26
	c3.57-2.1,8.17-0.9,10.26,2.68c0.62,1.02,4.18,4.06,9.56,4.27c7.1,0.28,14.43-4.55,21.2-13.97c8.35-11.61,17.12-18.4,26.06-20.17
	c7.83-1.56,12.93,1.33,13.87,1.92l-0.02,0.03C172.19,281.021,173.71,283.461,173.71,286.261z"/>
<g>
</g>
<g>
</g>
<g>
</g>
<g>
</g>
<g>
</g>
<g>
</g>
<g>
</g>
<g>
</g>
<g>
</g>
<g>
</g>
<g>
</g>
<g>
</g>
<g>
</g>
<g>
</g>
<g>
</g>
</svg>
