<?xml version="1.0"?>
<svg xmlns="http://www.w3.org/2000/svg" xmlns:xlink="http://www.w3.org/1999/xlink" xmlns:svgjs="http://svgjs.com/svgjs" version="1.1" width="512" height="512" x="0" y="0" viewBox="0 0 449.799 449.799" style="enable-background:new 0 0 512 512" xml:space="preserve" class=""><g>
<g xmlns="http://www.w3.org/2000/svg">
	<g>
		<g>
			<polygon style="" points="120.483,202.799 142.483,261.799 207.483,225.799 130.483,151.799    " fill="#4d4d4d" data-original="#4d4d4d" class=""/>
			<path style="" d="M142.482,267.799c-0.702,0-1.406-0.123-2.08-0.372c-1.639-0.605-2.932-1.895-3.542-3.532l-22-59     c-0.387-1.038-0.479-2.163-0.266-3.25l10-51c0.422-2.155,1.987-3.906,4.081-4.567c2.096-0.661,4.382-0.126,5.964,1.396l77,74     c1.374,1.32,2.039,3.214,1.792,5.103c-0.246,1.889-1.376,3.549-3.042,4.472l-65,36     C144.489,267.546,143.488,267.799,142.482,267.799z M126.696,202.291l18.974,50.884l51.792-28.684l-63.208-60.745     L126.696,202.291z" fill="#000000" data-original="#333333" class=""/>
		</g>
		<g>
			<polygon style="" points="329.316,202.799 307.316,261.799 242.316,225.799 319.316,151.799    " fill="#4d4d4d" data-original="#4d4d4d" class=""/>
			<path style="" d="M307.315,267.799c-1.006,0-2.007-0.253-2.907-0.751l-65-36c-1.666-0.923-2.796-2.583-3.042-4.472     c-0.247-1.889,0.418-3.783,1.792-5.103l77-74c1.582-1.52,3.869-2.055,5.964-1.396c2.094,0.661,3.659,2.413,4.081,4.567l10,51     c0.214,1.087,0.121,2.212-0.266,3.25l-22,59c-0.61,1.637-1.903,2.926-3.542,3.532     C308.722,267.676,308.018,267.799,307.315,267.799z M252.336,224.49l51.792,28.684l18.974-50.884l-7.558-38.545L252.336,224.49z" fill="#000000" data-original="#333333" class=""/>
		</g>
	</g>
	<path style="" d="M274.254,272.769c0.19,0.05,0.39,0.09,0.58,0.14c10.46,2.53,20.19,6.93,28.83,12.81   c23.39,15.92,38.75,42.77,38.75,73.19v84.89h-47.04h-140.96h-47.03v-84.89c0-30.42,15.35-57.27,38.74-73.19   c8.64-5.88,18.37-10.28,28.83-12.81c0.19-0.05,0.39-0.09,0.58-0.14" fill="#4d4d4d" data-original="#4d4d4d" class=""/>
	<path style="" d="M350.399,443.799h-12v-78.69c0-25.831-11.67-50.163-32.858-68.514   c-21.429-18.57-49.979-28.796-80.392-28.796c-62.446,0-113.25,43.653-113.25,97.31v78.69h-12v-78.69   c0-60.274,56.187-109.31,125.25-109.31c33.3,0,64.641,11.267,88.249,31.726c23.859,20.665,37.001,48.218,37.001,77.584V443.799z" fill="#000000" data-original="#333333" class=""/>
	<path style="" d="M301.374,443.799h-12v-124c0-12.816,3.101-25.558,8.966-36.846l10.648,5.533   c-5.053,9.724-7.614,20.259-7.614,31.313V443.799z" fill="#000000" data-original="#333333" class=""/>
	<path style="" d="M322.414,429.799c-3.313,0-6-2.687-6-6v-73c0-3.313,2.687-6,6-6s6,2.687,6,6v73   C328.414,427.112,325.728,429.799,322.414,429.799z" fill="#ffffff" data-original="#ffffff"/>
	<g>
		<path style="opacity:0.44;fill:#333333;enable-background:new    ;" d="M151.064,297.719c-15.21,15.89-24.56,37.45-24.56,61.19    v82.89h-19.12v-82.89c0-30.42,15.35-57.27,38.74-73.19C148.104,289.539,149.764,293.549,151.064,297.719z" fill=""/>
	</g>
	<path style="" d="M160.414,443.799h-12v-124c0-11.054-2.562-21.59-7.614-31.313l10.648-5.533   c5.865,11.289,8.966,24.03,8.966,36.846V443.799z" fill="#000000" data-original="#333333" class=""/>
	<g>
		<path style="" d="M259.379,419.799h-68.96c-23.159,0-42-18.841-42-42h12c0,16.542,13.458,30,30,30h68.96    c16.542,0,30-13.458,30-30h12C301.379,400.958,282.538,419.799,259.379,419.799z" fill="#000000" data-original="#333333" class=""/>
		<path style="" d="M259.379,401.799c-3.313,0-6-2.687-6-6s2.687-6,6-6c6.617,0,12-5.383,12-12c0-3.313,2.687-6,6-6    s6,2.687,6,6C283.379,391.033,272.612,401.799,259.379,401.799z" fill="#ffffff" data-original="#ffffff"/>
	</g>
	<path style="" d="M266.691,263.799v65.36c0,14.71-11.93,26.64-26.64,26.64h-30.72c-14.71,0-26.64-11.93-26.64-26.64   v-65.36c12.5,6.75,26.8,10.58,41.99,10.58C239.891,274.379,254.191,270.549,266.691,263.799z" fill="#ffd3ae" data-original="#ffd3ae" class=""/>
	<path style="" d="M266.694,279.979v5.35c-12.45,6.68-26.68,10.47-41.8,10.47c-15.28,0-29.65-3.87-42.2-10.7v-6.55   v-14.75l0.71-1.31c12.38,6.58,26.5,10.31,41.49,10.31c14.88,0,28.89-3.67,41.19-10.14l0.61,1.14V279.979z" fill="#4d4d4d" data-original="#4d4d4d" class=""/>
	<path style="" d="M224.69,361.799c-3.313,0-6-2.687-6-6v-15c0-3.313,2.687-6,6-6s6,2.687,6,6v15   C230.69,359.112,228.004,361.799,224.69,361.799z" fill="#000000" data-original="#333333" class=""/>
	<path style="opacity:0.44;fill:#333333;enable-background:new    ;" d="M266.691,261.799c-1.18,2.25,1.37,16.06,0,18.18   c-6.42,10.03-14.81,18.67-24.62,25.39c-0.19,0.14-0.39,0.27-0.58,0.4c-14.1,9.49-31.08,15.03-49.36,15.03   c-5.24,0-6.11-4.72-9.44-7.26v-49.74c11.87,5.92,29.24,12,43.41,12C243.961,275.799,252.791,270.889,266.691,261.799z" fill=""/>
	<g>
		<path style="" d="M356.399,449.799H93.629c-3.313,0-6-2.687-6-6s2.687-6,6-6H356.4c3.313,0,6,2.687,6,6    S359.713,449.799,356.399,449.799z" fill="#000000" data-original="#333333" class=""/>
		<path style="" d="M388.399,449.799h-11c-3.313,0-6-2.687-6-6s2.687-6,6-6h11c3.313,0,6,2.687,6,6    S391.713,449.799,388.399,449.799z" fill="#000000" data-original="#333333" class=""/>
		<path style="" d="M72.399,449.799h-11c-3.313,0-6-2.687-6-6s2.687-6,6-6h11c3.313,0,6,2.687,6,6    S75.713,449.799,72.399,449.799z" fill="#000000" data-original="#333333" class=""/>
	</g>
	<g>
		<g>
			<circle style="" cx="144.332" cy="161.799" r="27.89" fill="#ffd3ae" data-original="#ffd3ae" class=""/>
			<circle style="" cx="305.467" cy="161.799" r="27.89" fill="#ffd3ae" data-original="#ffd3ae" class=""/>
		</g>
		<g>
			<path style="" d="M144.332,195.689c-18.688,0-33.891-15.203-33.891-33.89s15.203-33.89,33.891-33.89     c18.687,0,33.89,15.203,33.89,33.89S163.019,195.689,144.332,195.689z M144.332,139.909c-12.07,0-21.891,9.82-21.891,21.89     s9.82,21.89,21.891,21.89s21.89-9.82,21.89-21.89S156.402,139.909,144.332,139.909z" fill="#000000" data-original="#333333" class=""/>
			<path style="" d="M305.467,195.689c-18.687,0-33.89-15.203-33.89-33.89s15.203-33.89,33.89-33.89     s33.89,15.203,33.89,33.89S324.153,195.689,305.467,195.689z M305.467,139.909c-12.07,0-21.89,9.82-21.89,21.89     s9.819,21.89,21.89,21.89s21.89-9.82,21.89-21.89S317.537,139.909,305.467,139.909z" fill="#000000" data-original="#333333" class=""/>
		</g>
	</g>
	<path style="" d="M313.404,110.299v74c0,12.27-2.5,23.96-7.01,34.58c-3.93,9.25-9.4,17.71-16.08,25.03   c-4.61,5.06-9.8,9.58-15.47,13.46c-0.19,0.14-0.4,0.27-0.58,0.4c-14.1,9.49-31.08,15.03-49.37,15.03   c-18.27,0-35.25-5.54-49.35-15.03c-0.2-0.13-0.4-0.26-0.58-0.4c-23.28-15.94-38.57-42.72-38.57-73.07v-74   c0-23.7,9.32-45.21,24.48-61.1c32.4-1.69,64.02,15.6,64.02,15.6h0.01c0,0,31.61-17.29,64.02-15.6   C304.084,65.089,313.404,86.599,313.404,110.299z" fill="#ffd3ae" data-original="#ffd3ae" class=""/>
	<g style="opacity:0.44;">
		<path style="" d="M225.404,244.799h-1.01c-2.209,0-4-1.791-4-4s1.791-4,4-4h1.01c2.209,0,4,1.791,4,4    S227.613,244.799,225.404,244.799z" fill="#000000" data-original="#333333" class=""/>
	</g>
	<g>
		<g>
			<path style="" d="M280.372,156.213c-0.452,0-0.912-0.052-1.372-0.159c-7.916-1.853-16.285-1.853-24.201,0     c-3.231,0.757-6.455-1.25-7.209-4.476c-0.755-3.227,1.248-6.454,4.475-7.209c9.705-2.27,19.963-2.271,29.67,0     c3.227,0.755,5.229,3.982,4.475,7.209C285.563,154.345,283.097,156.212,280.372,156.213z" fill="#000000" data-original="#333333" class=""/>
		</g>
	</g>
	<path style="opacity:0.44;fill:#333333;enable-background:new    ;" d="M206.539,257.769c10.02,6.74,21.5,11.49,33.86,13.68   c-5.03,0.89-10.21,1.35-15.5,1.35c-18.28,0-35.26-5.54-49.36-15.03c-0.19-0.13-0.39-0.26-0.58-0.4   c-23.28-15.94-38.56-42.72-38.56-73.07v-22.5c0-139,54.89-137.301,54.89-134.411l-10.384,15.807   c-15.364,23.387-15.305,53.174-0.958,76.231c2.423,3.895,10.151,17.294,10.019,20.366c-0.483,11.29-9.201,21.36-21.338,21.975   c-0.407,0.021-0.817,0.031-1.229,0.031v22.5c0,30.35,15.28,57.13,38.56,73.07C206.149,257.509,206.349,257.639,206.539,257.769z" fill=""/>
	<g>
		<g>
			<g>
				<g>
					<circle style="" cx="190.559" cy="172.915" r="8.009" fill="#000000" data-original="#333333" class=""/>
				</g>
				<path style="" d="M175.23,180.006c-1.533,0-3.065-0.583-4.236-1.751c-2.347-2.34-2.353-6.139-0.013-8.485      c6.153-6.169,15.547-7.745,23.376-3.919c2.978,1.455,4.211,5.048,2.756,8.025c-1.456,2.976-5.049,4.211-8.025,2.756      c-3.218-1.574-7.08-0.924-9.608,1.611C178.306,179.418,176.768,180.006,175.23,180.006z" fill="#000000" data-original="#333333" class=""/>
			</g>
		</g>
		<g>
			<g>
				<g>
					<circle style="" cx="259.239" cy="172.915" r="8.009" fill="#000000" data-original="#333333" class=""/>
				</g>
				<path style="" d="M274.568,180.006c-1.539,0-3.077-0.588-4.249-1.764c-2.528-2.536-6.388-3.185-9.607-1.611      c-2.978,1.456-6.569,0.221-8.025-2.755c-1.455-2.977-0.222-6.57,2.756-8.025c7.827-3.828,17.222-2.251,23.375,3.919      c2.34,2.347,2.334,6.146-0.013,8.485C277.634,179.423,276.101,180.006,274.568,180.006z" fill="#000000" data-original="#333333" class=""/>
			</g>
		</g>
	</g>
	<g>
		<path style="" d="M217.956,204.799c-3.313,0-6-2.687-6-6v-32.927c0-2.692-1.515-5.195-3.858-6.375    c-7.192-3.621-19.527-7.153-37.439-3.412c-3.247,0.676-6.423-1.403-7.1-4.647c-0.678-3.244,1.403-6.422,4.646-7.1    c21.303-4.447,36.388-0.041,45.289,4.44c6.453,3.25,10.462,9.799,10.462,17.094v32.927    C223.956,202.112,221.27,204.799,217.956,204.799z" fill="#000000" data-original="#333333" class=""/>
	</g>
	<path style="" d="M240.054,361.799h-30.72c-17.998,0-32.64-14.642-32.64-32.64v-65.36h12v65.36   c0,11.381,9.259,20.64,20.64,20.64h30.72c11.381,0,20.641-9.259,20.641-20.64v-65.36h12v65.36   C272.694,347.157,258.052,361.799,240.054,361.799z" fill="#000000" data-original="#333333" class=""/>
	<path style="" d="M224.895,278.799c-15.432,0-30.752-3.808-44.307-11.012c-0.002-0.001-0.005-0.003-0.007-0.004   c-2.926-1.56-5.735-3.247-8.354-5.014c-0.262-0.171-0.52-0.346-0.764-0.526c-25.717-17.664-41.068-46.792-41.068-77.944v-74   c0-52.107,42.393-94.5,94.5-94.5c52.117,0,94.51,42.393,94.51,94.5v74c0,31.174-15.365,60.317-41.102,77.973   c-0.141,0.101-0.285,0.199-0.428,0.295l-0.103,0.069c-0.058,0.042-0.1,0.071-0.158,0.11c-2.855,1.921-5.797,3.679-8.742,5.225   C255.408,275.054,240.199,278.799,224.895,278.799z M186.228,257.194c11.824,6.284,25.194,9.604,38.667,9.604   c13.366,0,26.644-3.268,38.396-9.45c2.544-1.335,5.085-2.853,7.56-4.514c0.107-0.076,0.219-0.152,0.333-0.229l0.113-0.076   c0.059-0.043,0.097-0.071,0.157-0.112c22.511-15.413,35.95-40.878,35.95-68.119v-74c0-45.491-37.01-82.5-82.5-82.5   c-45.5,0-82.51,37.009-82.51,82.5v74c0,27.236,13.442,52.702,35.959,68.119c0.098,0.067,0.194,0.137,0.288,0.21   c0.03,0.02,0.104,0.066,0.177,0.113c0.028,0.019,0.057,0.038,0.085,0.057C181.189,254.343,183.653,255.822,186.228,257.194   L186.228,257.194z" fill="#000000" data-original="#333333" class=""/>
	<path style="" d="M224.895,301.799c-15.744,0-31.329-3.953-45.068-11.43l5.736-10.54   c11.984,6.522,25.586,9.97,39.332,9.97c13.593,0,27.066-3.374,38.963-9.757l5.674,10.574   C255.896,297.932,240.46,301.799,224.895,301.799z" fill="#000000" data-original="#333333" class=""/>
	<path style="opacity:0.44;fill:#333333;enable-background:new    ;" d="M313.404,110.299v73.56c-0.01,10.14-3.1,22.91-7.01,35.02   c-6.77,20.94-12.492,20.328-12.492,20.328c0.35-4.99-3.208,9.622-3.588,4.702c-2.044-26.52-13.383-50.949-19.684-62.726   c-2.428-4.539-8.42-5.595-12.329-2.246c-6.045,5.178-11.187,12.513-14.728,18.358c-2.199,3.628-7.705,2.694-8.572-1.459   c-1.215-5.817-1.522-11.297-1.467-15.715c0.054-4.353-4.825-6.975-8.397-4.487c-11.424,7.96-16.996,15.24-19.582,21.086   c-1.858,4.201-7.7,4.548-9.996,0.569c-5.083-8.806-7.87-16.044-9.391-21.511c-1.716-6.169-9.308-8.434-14.07-4.153   c-9.913,8.911-14.001,20.867-15.658,30.093c-0.694,3.865-5.867,4.672-7.661,1.179L136.405,178.8c0,1.71,0,3.4-0.01,5.06V110.3   c0-23.7,9.32-45.21,24.48-61.1c32.4-1.69,64.02,15.6,64.02,15.6h0.01c0,0,31.61-17.29,64.02-15.6   C304.084,65.089,313.404,86.599,313.404,110.299z" fill=""/>
	<path style="" d="M313.404,140.859c-0.03,27.68-23,74.94-23,74.94c3-42.67-24-85-24-85c-15.67,6.33-28,33-28,33   c-7.67-18-4-37-4-37c-39,22.33-30,41-30,41c-21.67-29.67-20-47-20-47c-31.67,13.67-29,52-29,52l-19-37   c0,109.33-16.75,136-16.75,136c-5.4-12.47-11.17-26.74-17.25-43c-35-93.67-18.33-177,21-209s101.49,2,101.49,2h0.01   c0,0,62.15-34,101.49-2c39.33,32,56,115.33,21,209c-6.08,16.26-11.86,30.53-17.25,43   C330.144,271.799,313.914,245.959,313.404,140.859z" fill="#4d4d4d" data-original="#4d4d4d" class=""/>
	<path style="opacity:0.44;fill:#333333;enable-background:new    ;" d="M189.864,9.019c-7.21,2.14-14.19,5.6-20.56,10.78   c-32.9,26.77-21.9,104-34.14,164.09c-3.88,69.4-15.51,87.91-15.51,87.91c-5.4-12.47-11.17-26.74-17.25-43   c-35-93.67-18.33-177,21-209C143.384,3.549,169.244,4.319,189.864,9.019z" fill=""/>
	<path style="" d="M119.655,277.799c-0.151,0-0.304-0.006-0.457-0.017c-2.221-0.169-4.165-1.555-5.05-3.599   c-5.73-13.231-11.572-27.793-17.364-43.283C79.992,185.959,73.87,140.835,79.08,100.406c4.853-37.661,19.249-67.94,40.537-85.261   c37.461-30.477,92.059-6.62,105.282-0.09c13.22-6.53,67.812-30.387,105.281,0.089c21.289,17.321,35.686,47.601,40.538,85.262   c5.21,40.43-0.912,85.553-17.704,130.493c-5.719,15.295-11.561,29.856-17.362,43.28c-0.884,2.045-2.828,3.432-5.05,3.602   c-2.219,0.172-4.354-0.905-5.539-2.791c-0.474-0.754-4.749-7.947-8.97-28.014c-3.445-16.384-5.879-36.348-7.28-59.65   c-6.038,16.654-12.508,30.057-13.013,31.096c-1.257,2.585-4.17,3.918-6.946,3.174c-2.777-0.743-4.637-3.35-4.436-6.217   c2.249-31.991-13.592-64.427-20.237-76.468c-9.327,6.781-17.608,21.517-20.331,27.407c-0.995,2.153-3.14,3.52-5.537,3.481   c-2.371-0.036-4.499-1.465-5.429-3.647c-4.274-10.032-5.348-20.253-5.361-27.919c-21.722,15.24-20.555,26.657-20.363,27.841   c1.065,2.776-0.146,5.723-2.758,7.179c-2.65,1.474-6.056,0.533-7.844-1.914c-12.769-17.483-17.028-31.126-18.212-40.086   c-18.566,14.336-16.978,40.829-16.957,41.13c0.198,2.842-1.63,5.431-4.374,6.196c-2.74,0.766-5.647-0.504-6.949-3.039   l-7.949-15.481c-0.854,34.746-3.605,63.583-8.211,85.95c-4.283,20.796-8.684,28.206-9.171,28.982   C123.633,276.746,121.708,277.799,119.655,277.799z M165.349,12.122c-13.302,0-26.868,3.146-38.157,12.332   c-18.893,15.371-31.752,42.889-36.21,77.486c-4.961,38.5,0.933,81.642,17.043,124.759c3.755,10.042,7.529,19.684,11.277,28.815   c1.013-3.637,2.106-8.138,3.195-13.633c3.607-18.197,7.907-51.373,7.907-106.082c0-2.771,1.897-5.181,4.59-5.832   c2.697-0.654,5.482,0.627,6.747,3.091l9.897,19.273c3.329-13.03,11.346-28.822,30.388-37.041c2.148-0.927,4.676-0.628,6.419,0.938   c1.729,1.552,2.435,3.855,1.77,6.076c-0.16,0.829-1.912,11.457,8.132,29.658c4.219-8.454,13.474-19.146,33.076-30.37   c2.037-1.166,4.563-1.038,6.472,0.327c1.908,1.364,2.846,3.715,2.401,6.018c-0.022,0.116-1.675,9.186-0.028,20.241   c5.566-8.608,13.92-18.915,23.89-22.942c2.677-1.083,5.751-0.101,7.306,2.336c0.913,1.432,18.17,28.845,23.573,62.258   c5.954-15.319,12.353-35.023,12.368-48.978c0.004-3.307,2.682-5.987,5.988-5.994c0.004,0,0.008,0,0.012,0   c3.302,0,5.984,2.668,6,5.971c0.261,53.788,4.729,86.068,8.433,103.677c0.909,4.322,1.812,7.964,2.656,11.003   c3.781-9.208,7.557-18.852,11.281-28.813c16.11-43.116,22.004-86.257,17.043-124.758c-4.458-34.597-17.317-62.115-36.21-77.486   c-35.707-29.045-94.239,2.292-94.827,2.612c-1.764,0.961-4.001,0.962-5.765-0.002C221.616,26.846,194.113,12.122,165.349,12.122z" fill="#000000" data-original="#333333" class=""/>
	<path style="" d="M334.813,216.286c-0.618,0-1.246-0.096-1.865-0.298c-3.149-1.03-4.868-4.418-3.839-7.567   c15.472-47.326,14.746-84.381,11.413-107.133c-4.128-28.178-14.797-51.094-29.272-62.871c-1.564-1.272-3.24-2.409-4.979-3.377   c-2.896-1.611-3.938-5.265-2.326-8.161c1.611-2.894,5.263-3.937,8.16-2.326c2.351,1.308,4.611,2.84,6.719,4.554   c32.003,26.039,49.73,97.272,21.692,183.041C339.688,214.68,337.338,216.286,334.813,216.286z" fill="#ffffff" data-original="#ffffff"/>
	<path style="" d="M289.41,30.254c-0.146,0-0.292-0.005-0.44-0.016c-2.333-0.168-4.85-0.202-7.328-0.105   c-3.328,0.131-6.102-2.447-6.232-5.758s2.446-6.102,5.758-6.232c2.925-0.117,5.895-0.075,8.672,0.127   c3.305,0.24,5.79,3.114,5.55,6.419C295.159,27.845,292.526,30.253,289.41,30.254z" fill="#ffffff" data-original="#ffffff"/>
	<path style="" d="M313.404,140.859h-6l-0.01-5.048c-0.007-3.313,2.675-6.005,5.988-6.012c0.004,0,0.008,0,0.012,0   c3.309,0,5.993,2.678,6,5.988l0.01,5L313.404,140.859z" fill="#000000" data-original="#333333" class=""/>
	<path style="" d="M224.895,42.799c-3.313,0-6-2.687-6-6v-15c0-3.313,2.687-6,6-6s6,2.687,6,6v15   C230.895,40.112,228.208,42.799,224.895,42.799z" fill="#000000" data-original="#333333" class=""/>
	<path style="" d="M234.899,229.799h-20c-3.313,0-6-2.687-6-6s2.687-6,6-6h20c3.313,0,6,2.687,6,6   S238.213,229.799,234.899,229.799z" fill="#000000" data-original="#333333" class=""/>
</g>
<g xmlns="http://www.w3.org/2000/svg">
</g>
<g xmlns="http://www.w3.org/2000/svg">
</g>
<g xmlns="http://www.w3.org/2000/svg">
</g>
<g xmlns="http://www.w3.org/2000/svg">
</g>
<g xmlns="http://www.w3.org/2000/svg">
</g>
<g xmlns="http://www.w3.org/2000/svg">
</g>
<g xmlns="http://www.w3.org/2000/svg">
</g>
<g xmlns="http://www.w3.org/2000/svg">
</g>
<g xmlns="http://www.w3.org/2000/svg">
</g>
<g xmlns="http://www.w3.org/2000/svg">
</g>
<g xmlns="http://www.w3.org/2000/svg">
</g>
<g xmlns="http://www.w3.org/2000/svg">
</g>
<g xmlns="http://www.w3.org/2000/svg">
</g>
<g xmlns="http://www.w3.org/2000/svg">
</g>
<g xmlns="http://www.w3.org/2000/svg">
</g>
</g></svg>
